<?xml version="1.0" encoding="utf-8"?>
<!-- Generator: Adobe Illustrator 24.0.0, SVG Export Plug-In . SVG Version: 6.00 Build 0)  -->
<svg version="1.1" id="Capa_1" xmlns="http://www.w3.org/2000/svg" xmlns:xlink="http://www.w3.org/1999/xlink" x="0px" y="0px"
	 viewBox="0 0 58 58" style="enable-background:new 0 0 58 58;" xml:space="preserve">
<g>
	<g>
		<g>
			<path d="M57,52.2h-2.9V33.8c0-0.5-0.4-1-1-1c-0.3,0-0.6,0.2-0.8,0.4L38.8,52.6c-0.3,0.4-0.2,1,0.2,1.3c0.2,0.1,0.4,0.2,0.6,0.2
				h12.6V57c0,0.5,0.4,1,1,1c0.5,0,1-0.4,1-1v-2.9H57c0.5,0,1-0.4,1-1C58,52.6,57.6,52.2,57,52.2z M52.2,52.2H41.5l10.7-15.3V52.2z"
				/>
			<path d="M39.6,56.1H28.2l10.6-12.5c0,0,0-0.1,0.1-0.1c2-3,1.3-7-1.5-9.1c-3.5-2.5-8.3-1.7-10.8,1.8c-0.9,1.3-1.5,2.9-1.5,4.5
				c0,0.5,0.4,1,1,1c0.5,0,1-0.4,1-1c0-3.2,2.6-5.8,5.8-5.8c1.2,0,2.4,0.4,3.4,1.1c2,1.5,2.5,4.4,1.1,6.4L25.4,56.4
				c-0.3,0.4-0.3,1,0.1,1.4c0.2,0.1,0.4,0.2,0.6,0.2h13.5c0.5,0,1-0.4,1-1S40.2,56.1,39.6,56.1z"/>
			<path d="M26.1,51.3c0-0.5-0.4-1-0.9-1c0,0,0,0,0,0C12.6,49.8,2.5,39.7,2,27.1h3.8c0.5,0,1-0.4,1-1c0-0.5-0.4-1-1-1H2
				C2.5,12.5,12.5,2.5,25.1,2v2.9c0,0.5,0.4,1,1,1c0.5,0,1-0.4,1-1V2c12.4,0.5,22.4,10.3,23.2,22.7l-3.8-3.8c-0.4-0.4-1-0.4-1.4,0
				c-0.4,0.4-0.4,1,0,1.3l5.4,5.4c0.1,0.1,0.2,0.2,0.4,0.3c0,0,0.1,0,0.1,0c0.1,0,0.1,0,0.2,0c0,0,0,0,0,0s0,0,0,0
				c0.1,0,0.1,0,0.2,0c0,0,0.1,0,0.1,0c0.1,0,0.3-0.1,0.3-0.2l5.5-5.5c0.4-0.4,0.4-1,0-1.4c-0.4-0.4-1-0.4-1.3,0l-3.9,3.9
				C51.5,10.9,40,0,26.2,0c0,0,0,0-0.1,0s0,0-0.1,0C11.7,0,0,11.7,0,26c0,0,0,0,0,0.1s0,0,0,0.1c0,14,11.1,25.5,25.1,26h0
				C25.7,52.2,26.1,51.8,26.1,51.3z"/>
			<path d="M39.1,13.1c-0.4-0.4-1-0.4-1.4,0L27.3,23.5c-0.8-0.3-1.7-0.3-2.5,0l-4.9-4.9c-0.4-0.4-1-0.4-1.4,0c-0.4,0.4-0.4,1,0,1.3
				l4.9,4.9c-0.7,1.4-0.1,3.2,1.4,3.9c1.1,0.5,2.4,0.3,3.3-0.6c0.9-0.9,1.1-2.2,0.6-3.3l10.4-10.4C39.5,14.1,39.5,13.5,39.1,13.1z
				 M26.8,26.8C26.8,26.8,26.8,26.8,26.8,26.8c-0.4,0.4-1,0.4-1.4,0c-0.4-0.4-0.4-1,0-1.4c0.4-0.4,1-0.4,1.4,0
				C27.2,25.8,27.2,26.4,26.8,26.8z"/>
		</g>
	</g>
</g>
</svg>
