<?xml version="1.0" encoding="UTF-8"?>
<svg width="9px" height="13px" viewBox="0 0 9 13" version="1.1" xmlns="http://www.w3.org/2000/svg" xmlns:xlink="http://www.w3.org/1999/xlink">
    <title>Shape</title>
    <g id="Main-Screens" stroke="none" stroke-width="1" fill="none" fill-rule="evenodd">
        <g id="Properties-List-View(Location)" transform="translate(-934.000000, -1047.000000)" fill="#979797" fill-rule="nonzero">
            <g id="Footer" transform="translate(0.000000, 979.000000)">
                <g id="Group-9" transform="translate(934.000000, 33.000000)">
                    <path d="M4.33333333,35 C1.94397863,35 0,36.9439824 0,39.3333418 C0,40.050627 0.179333634,40.7618184 0.52025289,41.392623 L4.09636309,47.8603516 C4.14397042,47.9465781 4.23469095,48 4.33333333,48 C4.43197572,48 4.52269624,47.9465781 4.57030357,47.8603516 L8.14773409,41.3904902 C8.48733303,40.7618184 8.66666667,40.0506016 8.66666667,39.3333164 C8.66666667,36.9439824 6.72268804,35 4.33333333,35 Z M4.33333333,41.5 C3.13864898,41.5 2.16666667,40.5280177 2.16666667,39.3333333 C2.16666667,38.138649 3.13864898,37.1666667 4.33333333,37.1666667 C5.52801769,37.1666667 6.5,38.138649 6.5,39.3333333 C6.5,40.5280177 5.52801769,41.5 4.33333333,41.5 Z" id="Shape"></path>
                </g>
            </g>
        </g>
    </g>
</svg>