<?xml version="1.0" encoding="UTF-8"?>
<svg width="11px" height="11px" viewBox="0 0 11 11" version="1.1" xmlns="http://www.w3.org/2000/svg" xmlns:xlink="http://www.w3.org/1999/xlink">
    <title>Path</title>
    <g id="Main-Screens" stroke="none" stroke-width="1" fill="none" fill-rule="evenodd">
        <g id="Properties-List-View(Location)" transform="translate(-935.000000, -1099.000000)" fill="#979797" fill-rule="nonzero">
            <g id="Footer" transform="translate(0.000000, 979.000000)">
                <g id="Group-9" transform="translate(934.000000, 33.000000)">
                    <g id="call" transform="translate(0.000000, 87.000000)">
                        <path d="M11.3888984,7.63889844 C10.6280651,7.63889844 9.89166667,7.51666667 9.20723177,7.2905651 C8.99639844,7.22333333 8.755,7.27223177 8.58696354,7.44029687 L7.24252865,8.78779687 C5.51002865,7.90779687 4.09529687,6.4930651 3.21529687,4.76363021 L4.55973177,3.4130651 C4.72779687,3.245 4.77666667,3.00363021 4.70946354,2.79279688 C4.48336198,2.10836198 4.36113021,1.37196354 4.36113021,0.611130208 C4.36110156,0.271934896 4.08916667,0 3.75,0 L1.61110156,0 C1.275,0 1,0.271934896 1,0.611101563 C1,6.3494349 5.6505651,11 11.3888984,11 C11.7280651,11 12,10.7280651 12,10.3888984 L12,8.25 C12,7.91083333 11.7280651,7.63889844 11.3888984,7.63889844 Z" id="Path"></path>
                    </g>
                </g>
            </g>
        </g>
    </g>
</svg>