<?xml version="1.0" encoding="UTF-8"?>
<svg width="27px" height="24px" viewBox="0 0 27 24" version="1.1" xmlns="http://www.w3.org/2000/svg" xmlns:xlink="http://www.w3.org/1999/xlink">
    <title>checkmark</title>
    <g id="Main-Screens" stroke="none" stroke-width="1" fill="none" fill-rule="evenodd">
        <g id="Property-detail-view-new" transform="translate(-341.000000, -6557.000000)" fill="#444444" fill-rule="nonzero">
            <g id="Content-section" transform="translate(0.000000, 6347.000000)">
                <g id="Group" transform="translate(341.000000, 81.000000)">
                    <g id="checkmark" transform="translate(0.000000, 129.000000)">
                        <path d="M20.8570731,24 L3.14292691,24 C1.40917971,24 0,22.5908203 0,20.8570731 L0,3.14292689 C0,1.40917969 1.40917971,0 3.14292691,0 L17.4285017,0 C17.9016462,0 18.2856445,0.383998313 18.2856445,0.857142831 C18.2856445,1.3302874 17.9016462,1.71428569 17.4285017,1.71428569 L3.14292691,1.71428569 C2.35546875,1.71428569 1.71428571,2.35546873 1.71428571,3.14292689 L1.71428571,20.8570731 C1.71428571,21.6445312 2.35546875,22.2857143 3.14292691,22.2857143 L20.8570731,22.2857143 C21.6445312,22.2857143 22.2857143,21.6445312 22.2857143,20.8570731 L22.2857143,11.1428571 C22.2857143,10.6697126 22.6697126,10.2857143 23.1428571,10.2857143 C23.6160017,10.2857143 24,10.6697126 24,11.1428571 L24,20.8570731 C24,22.5908203 22.5908203,24 20.8570731,24 L20.8570731,24 Z" id="Path"></path>
                        <path d="M13.8670903,14.6086957 C13.6526253,14.6086957 13.4379557,14.5233107 13.2748559,14.3514708 L8.24557057,9.0922697 C7.91814314,8.74987379 7.91814314,8.19476441 8.24557057,7.85236851 C8.57299801,7.5099726 9.10383971,7.5099726 9.43126714,7.85236851 L13.8683182,12.492047 L25.5685282,0.256957415 C25.8961602,-0.0856524716 26.427002,-0.0856524716 26.7544294,0.256957415 C27.0818569,0.599353317 27.0818569,1.1544627 26.7544294,1.4968586 L14.4605525,14.3527547 C14.2962249,14.5233107 14.0817599,14.6086957 13.8670903,14.6086957 Z" id="Path"></path>
                    </g>
                </g>
            </g>
        </g>
    </g>
</svg>