<?xml version="1.0" encoding="utf-8"?>
<!-- Generator: Adobe Illustrator 24.0.0, SVG Export Plug-In . SVG Version: 6.00 Build 0)  -->
<svg version="1.1" id="_x33_0" xmlns="http://www.w3.org/2000/svg" xmlns:xlink="http://www.w3.org/1999/xlink" x="0px" y="0px"
	 viewBox="0 0 78.2 58" style="enable-background:new 0 0 78.2 58;" xml:space="preserve">
<g>
	<path d="M75.7,49.2c0-1.9-1.5-3.5-3.4-3.7c-0.8-1.8-2.2-3.2-3.9-4.1c1.4-1.2,2.2-2.9,2.2-4.8c0-3.5-2.8-6.3-6.3-6.3
		c-3.5,0-6.3,2.8-6.3,6.3c0,1.9,0.9,3.6,2.2,4.8c-1.7,0.9-3.1,2.3-3.9,4.1c-1.9,0.2-3.4,1.8-3.4,3.7v6.3h-2.5v-6.3
		c0-1.9-1.5-3.5-3.4-3.7c-0.8-1.8-2.2-3.2-3.9-4.1c1.4-1.2,2.2-2.9,2.2-4.8c0-3.5-2.8-6.3-6.3-6.3c-3.5,0-6.3,2.8-6.3,6.3
		c0,1.9,0.9,3.6,2.2,4.8c-1.7,0.9-3.1,2.3-3.9,4.1c-1.9,0.2-3.4,1.8-3.4,3.7v6.3h-2.5v-6.3c0-1.9-1.5-3.5-3.4-3.7
		c-0.8-1.8-2.2-3.2-3.9-4.1c1.4-1.2,2.2-2.9,2.2-4.8c0-3.5-2.8-6.3-6.3-6.3s-6.3,2.8-6.3,6.3c0,1.9,0.9,3.6,2.2,4.8
		c-1.7,0.9-3.1,2.3-3.9,4.1c-1.9,0.2-3.4,1.8-3.4,3.7v6.3H0V58h78.2v-2.5h-2.5V49.2z M60.5,36.6c0-2.1,1.7-3.8,3.8-3.8
		c2.1,0,3.8,1.7,3.8,3.8c0,2.1-1.7,3.8-3.8,3.8C62.2,40.3,60.5,38.7,60.5,36.6z M64.3,42.9c2,0,3.9,1,5,2.5H59.3
		C60.4,43.8,62.3,42.9,64.3,42.9L64.3,42.9z M55.5,49.2c0-0.7,0.6-1.3,1.3-1.3h15.1c0.7,0,1.3,0.6,1.3,1.3v6.3H55.5V49.2z
		 M35.3,36.6c0-2.1,1.7-3.8,3.8-3.8c2.1,0,3.8,1.7,3.8,3.8c0,2.1-1.7,3.8-3.8,3.8C37,40.3,35.3,38.7,35.3,36.6z M39.1,42.9
		c2,0,3.9,1,5,2.5H34C35.2,43.8,37.1,42.9,39.1,42.9z M30.3,49.2c0-0.7,0.6-1.3,1.3-1.3h15.1c0.7,0,1.3,0.6,1.3,1.3v6.3H30.3V49.2z
		 M10.1,36.6c0-2.1,1.7-3.8,3.8-3.8s3.8,1.7,3.8,3.8c0,2.1-1.7,3.8-3.8,3.8S10.1,38.7,10.1,36.6z M13.9,42.9c2,0,3.9,1,5,2.5H8.8
		C10,43.8,11.9,42.9,13.9,42.9z M5,49.2c0-0.7,0.6-1.3,1.3-1.3h15.1c0.7,0,1.3,0.6,1.3,1.3v6.3H5V49.2z"/>
	<path d="M75.7,17.7v-6.3c0-2.1-1.7-3.8-3.8-3.8h-1.4c0.1-0.4,0.1-0.8,0.1-1.3c0-3.5-2.8-6.3-6.3-6.3C60.8,0,58,2.8,58,6.3
		c0,0.4,0,0.9,0.1,1.3h-1.4c-2.1,0-3.8,1.7-3.8,3.8v6.3h-2.5v-6.3c0-2.1-1.7-3.8-3.8-3.8h-1.4c0.1-0.4,0.1-0.8,0.1-1.3
		c0-3.5-2.8-6.3-6.3-6.3c-3.5,0-6.3,2.8-6.3,6.3c0,0.4,0,0.9,0.1,1.3h-1.4c-2.1,0-3.8,1.7-3.8,3.8v6.3h-2.5v-6.3
		c0-2.1-1.7-3.8-3.8-3.8H20c0.1-0.4,0.1-0.8,0.1-1.3c0-3.5-2.8-6.3-6.3-6.3S7.6,2.8,7.6,6.3c0,0.4,0,0.9,0.1,1.3H6.3
		c-2.1,0-3.8,1.7-3.8,3.8v6.3c-1.4,0-2.5,1.1-2.5,2.5v25.2h2.5V20.2h73.1v25.2h2.5V20.2C78.2,18.8,77,17.7,75.7,17.7z M71.9,10.1
		c0.7,0,1.3,0.6,1.3,1.3v6.3H73c-0.4-2.9-2.2-5.3-4.7-6.6c0.4-0.3,0.7-0.6,0.9-1H71.9z M70.5,17.7H58.1c0.6-2.9,3.1-5,6.2-5
		C67.3,12.6,69.9,14.8,70.5,17.7L70.5,17.7z M64.3,2.5c2.1,0,3.8,1.7,3.8,3.8s-1.7,3.8-3.8,3.8c-2.1,0-3.8-1.7-3.8-3.8
		S62.2,2.5,64.3,2.5z M55.5,11.3c0-0.7,0.6-1.3,1.3-1.3h2.6c0.3,0.4,0.6,0.7,0.9,1c-2.5,1.3-4.3,3.7-4.7,6.6h-0.1L55.5,11.3z
		 M46.7,10.1c0.7,0,1.3,0.6,1.3,1.3v6.3h-0.1c-0.4-2.9-2.2-5.3-4.7-6.6c0.4-0.3,0.7-0.6,0.9-1H46.7z M45.3,17.7H32.9
		c0.6-2.9,3.1-5,6.2-5S44.7,14.8,45.3,17.7z M39.1,2.5c2.1,0,3.8,1.7,3.8,3.8s-1.7,3.8-3.8,3.8c-2.1,0-3.8-1.7-3.8-3.8
		S37,2.5,39.1,2.5L39.1,2.5z M30.3,11.3c0-0.7,0.6-1.3,1.3-1.3h2.6c0.3,0.4,0.6,0.7,0.9,1c-2.5,1.3-4.3,3.7-4.7,6.6h-0.1V11.3z
		 M21.4,10.1c0.7,0,1.3,0.6,1.3,1.3v6.3h-0.1c-0.4-2.9-2.2-5.3-4.7-6.6c0.4-0.3,0.7-0.6,0.9-1H21.4z M20,17.7H7.7
		c0.6-2.9,3.1-5,6.2-5S19.5,14.8,20,17.7z M13.9,2.5c2.1,0,3.8,1.7,3.8,3.8s-1.7,3.8-3.8,3.8s-3.8-1.7-3.8-3.8S11.8,2.5,13.9,2.5z
		 M5,11.3c0-0.7,0.6-1.3,1.3-1.3h2.6c0.3,0.4,0.6,0.7,0.9,1c-2.5,1.3-4.3,3.7-4.7,6.6H5L5,11.3z"/>
</g>
</svg>
