<?xml version="1.0" standalone="no"?>
<!DOCTYPE svg PUBLIC "-//W3C//DTD SVG 20010904//EN"
 "http://www.w3.org/TR/2001/REC-SVG-20010904/DTD/svg10.dtd">
<svg version="1.0" xmlns="http://www.w3.org/2000/svg"
 width="512.000000pt" height="512.000000pt" viewBox="0 0 512.000000 512.000000"
 preserveAspectRatio="xMidYMid meet">

<g transform="translate(0.000000,512.000000) scale(0.100000,-0.100000)"
fill="#000000" stroke="none">
<path d="M1263 4897 c-168 -168 -171 -177 -101 -253 l42 -45 -230 -230 c-184
-185 -233 -229 -249 -224 -100 30 -180 11 -250 -59 -71 -71 -91 -147 -63 -238
14 -48 76 -121 118 -138 l30 -12 0 -329 0 -329 -95 0 c-88 0 -98 -2 -120 -25
-24 -23 -25 -29 -25 -160 l0 -135 -95 0 c-88 0 -98 -2 -120 -25 l-25 -24 0
-271 0 -271 25 -24 c23 -24 29 -25 160 -25 l135 0 0 -975 0 -976 25 -24 c24
-25 26 -25 215 -25 189 0 191 0 215 25 14 13 25 30 25 38 0 8 34 435 75 950
41 514 75 947 75 961 l0 26 1530 0 1530 0 0 -26 c0 -14 34 -447 75 -961 41
-515 75 -942 75 -950 0 -8 11 -25 25 -38 24 -25 26 -25 215 -25 189 0 191 0
215 25 l25 24 0 976 0 975 135 0 c131 0 137 1 160 25 l25 24 0 271 0 271 -25
24 -24 25 -376 0 -375 0 0 95 c0 88 -2 98 -25 120 -21 22 -33 25 -94 25 l-71
0 -40 80 -40 80 271 0 c184 0 285 4 313 12 55 16 138 99 154 154 17 59 17
1369 0 1428 -16 55 -99 138 -154 154 -59 17 -1849 17 -1908 0 -55 -16 -138
-99 -154 -154 -17 -59 -17 -1369 0 -1428 16 -55 99 -138 154 -154 28 -8 129
-12 313 -12 l271 0 -40 -80 -40 -80 -71 0 c-61 0 -73 -3 -94 -25 -23 -22 -25
-32 -25 -120 l0 -95 -400 0 -400 0 0 215 c0 216 0 216 -25 240 -21 22 -33 25
-102 25 l-78 0 88 88 c48 48 87 92 87 98 0 12 -92 104 -105 104 -5 0 -49 -39
-97 -87 l-88 -88 0 103 0 102 -80 0 -80 0 0 -160 0 -160 -55 0 c-46 0 -60 -4
-80 -25 -25 -24 -25 -24 -25 -240 l0 -215 -280 0 -280 0 0 135 c0 131 -1 137
-25 160 -22 23 -32 25 -120 25 l-95 0 0 329 0 329 30 12 c41 17 94 78 115 133
17 45 17 107 0 162 -5 16 39 64 225 250 l230 230 60 -60 60 -59 0 -199 c0
-197 0 -198 25 -222 16 -17 35 -25 57 -25 30 0 64 32 375 343 311 311 343 345
343 375 0 22 -8 41 -25 57 -24 25 -25 25 -222 25 l-197 0 -161 160 c-145 144
-165 160 -195 160 -31 0 -49 -15 -177 -143z m282 -157 l100 -100 -63 -62 -62
-63 -102 102 -103 103 60 60 c33 33 62 60 65 60 3 0 50 -45 105 -100z m2990
-45 l25 -24 0 -456 0 -455 -960 0 -960 0 0 455 0 456 25 24 24 25 911 0 911 0
24 -25z m-2750 -315 l-180 -180 -3 82 -3 82 98 98 98 98 85 0 85 0 -180 -180z
m-1090 -405 c50 -49 15 -135 -55 -135 -41 0 -80 39 -80 80 0 41 39 80 80 80
19 0 40 -9 55 -25z m3865 -510 c0 -131 -1 -137 -25 -160 l-24 -25 -911 0 -911
0 -24 25 c-24 23 -25 29 -25 160 l0 135 960 0 960 0 0 -135z m-730 -425 l40
-80 -270 0 -270 0 40 80 40 80 190 0 190 0 40 -80z m-1830 -160 l0 -160 -160
0 -160 0 0 160 0 160 160 0 160 0 0 -160z m-1200 -80 l0 -80 -160 0 -160 0 0
80 0 80 160 0 160 0 0 -80z m3280 -40 l0 -40 -480 0 -480 0 0 40 0 40 480 0
480 0 0 -40z m800 -360 l0 -160 -2320 0 -2320 0 0 160 0 160 2320 0 2320 0 0
-160z m-4010 -341 c0 -11 -31 -414 -70 -894 -39 -480 -70 -885 -70 -899 0 -26
0 -26 -85 -26 l-85 0 0 920 0 920 155 0 c150 0 155 -1 155 -21z m3690 -899 l0
-920 -85 0 c-85 0 -85 0 -85 26 0 14 -31 419 -70 899 -38 480 -70 883 -70 894
0 20 5 21 155 21 l155 0 0 -920z"/>
</g>
</svg>
