<?xml version="1.0" encoding="UTF-8"?>
<svg width="56px" height="56px" viewBox="0 0 56 56" version="1.1" xmlns="http://www.w3.org/2000/svg" xmlns:xlink="http://www.w3.org/1999/xlink">
    <title>glass</title>
    <g id="Main-Screens" stroke="none" stroke-width="1" fill="none" fill-rule="evenodd">
        <g id="Property-detail-view-new" transform="translate(-155.000000, -5495.000000)" fill="#000000" fill-rule="nonzero">
            <g id="On-site-amenities" transform="translate(-133.000000, 4991.000000)">
                <g id="Amenities-New" transform="translate(175.000000, 198.000000)">
                    <g id="Amenities-Row-2" transform="translate(0.000000, 268.000000)">
                        <g id="Group-7" transform="translate(21.000000, 38.000000)">
                            <g id="glass" transform="translate(92.000000, 0.000000)">
                                <polygon id="Path" points="27 33 28 33 28 34 27 34"></polygon>
                                <path d="M27,36.0087905 C27.0194018,40.0514407 27.6682835,44.0853003 28.930477,48 L31,47.4520593 C29.7938561,43.7121927 29.1740771,39.8590265 29.1557532,36 L27,36.0087905 Z" id="Path"></path>
                                <path d="M47.7297297,32.6459 L47.7297297,29 L22,29 L22,36.0371 C22,42.7592 23.6228108,49.4894 26.6910811,55.5023 L26.9456216,56 L42.7841081,56 L43.0377297,55.5023 C43.8721081,53.867 44.5897838,52.1759 45.2072973,50.4488 C45.7356757,50.5406 46.2714054,50.6 46.8108108,50.6 C51.8777297,50.6 56,46.5626 56,41.6 C56,36.9416 52.3665946,33.0986 47.7297297,32.6459 Z M47.6672432,38.1089 C49.2808649,38.4896 50.4864865,39.9044 50.4864865,41.6 C50.4864865,43.5854 48.8379459,45.2 46.8108108,45.2 C46.7777297,45.2 46.7455676,45.191 46.7124865,45.1901 C47.2252432,42.8591 47.5496216,40.4894 47.6672432,38.1089 L47.6672432,38.1089 Z M41.6437297,54.2 L28.086,54.2 C25.3053514,48.5633 23.8378378,42.2966 23.8378378,36.0371 L23.8378378,30.8 L45.8918919,30.8 L45.8918919,36.0371 C45.8918919,42.2966 44.4243784,48.5633 41.6437297,54.2 Z M46.8108108,48.8 C46.4671351,48.8 46.1262162,48.7685 45.7880541,48.7226 C45.9672432,48.1439 46.1243784,47.5598 46.2796757,46.9748 C46.4561081,46.991 46.6334595,47 46.8108108,47 C49.8515135,47 52.3243243,44.5781 52.3243243,41.6 C52.3243243,38.927 50.3293514,36.7076 47.7223784,36.2801 C47.7223784,36.1991 47.7297297,36.1181 47.7297297,36.0371 L47.7297297,34.4621 C51.3502703,34.9076 54.1621622,37.9352 54.1621622,41.6 C54.1621622,45.5699 50.8641622,48.8 46.8108108,48.8 L46.8108108,48.8 Z" id="Shape"></path>
                                <path d="M20.84375,50.5806452 L17.21875,50.5806452 L17.21875,30.7430968 C17.21875,29.5743226 17.954625,28.5184516 19.0095,28.1752258 C24.9853125,26.2296774 29,20.7145806 29,14.4516129 L29,0 L0,0 L0,14.4516129 C0,20.7145806 4.0146875,26.2296774 9.9905,28.1752258 C11.045375,28.5184516 11.78125,29.5743226 11.78125,30.7430968 L11.78125,50.5806452 L8.15625,50.5806452 C5.65771875,50.5806452 3.625,52.6065806 3.625,55.0967742 L3.625,56 L25.375,56 L25.375,55.0967742 C25.375,52.6065806 23.3422813,50.5806452 20.84375,50.5806452 Z M5.59246875,54.1935484 C5.96675,53.1421935 6.9745,52.3870968 8.15625,52.3870968 L13.59375,52.3870968 L13.59375,30.7430968 C13.59375,28.7722581 12.372125,27.0507097 10.5541875,26.4581935 C5.325125,24.7556129 1.8125,19.9305806 1.8125,14.4516129 L1.8125,1.80645161 L27.1875,1.80645161 L27.1875,14.4516129 C27.1875,19.9305806 23.674875,24.7556129 18.4458125,26.4581935 C16.627875,27.0507097 15.40625,28.7722581 15.40625,30.7430968 L15.40625,52.3870968 L20.84375,52.3870968 C22.0255,52.3870968 23.03325,53.1421935 23.4075313,54.1935484 L5.59246875,54.1935484 Z" id="Shape"></path>
                                <path d="M26,14.3905278 L26,7 L23.8840457,7 L23.8840457,14.3905278 C23.8840457,16.7628872 22.8599238,19.0142268 21,20.729753 L22.5361828,22 C24.7695726,19.9398904 26,17.2377286 26,14.3905278 Z" id="Path"></path>
                                <polygon id="Path" points="25 4 26 4 26 5 25 5"></polygon>
                            </g>
                        </g>
                    </g>
                </g>
            </g>
        </g>
    </g>
</svg>