<?xml version="1.0" encoding="UTF-8"?>
<svg width="62px" height="56px" viewBox="0 0 62 56" version="1.1" xmlns="http://www.w3.org/2000/svg" xmlns:xlink="http://www.w3.org/1999/xlink">
    <!-- Generator: Sketch 63 (92445) - https://sketch.com -->
    <title>working</title>
    <desc>Created with Sketch.</desc>
    <g id="Main-Screens" stroke="none" stroke-width="1" fill="none" fill-rule="evenodd">
        <g id="Property-detail-view-new" transform="translate(-1152.000000, -5230.000000)" fill="#000000" fill-rule="nonzero">
            <g id="On-site-amenities" transform="translate(-133.000000, 4991.000000)">
                <g id="Amenities-New" transform="translate(175.000000, 198.000000)">
                    <g id="Amenities-Row-1">
                        <g id="Space" transform="translate(999.000000, 0.000000)">
                            <g id="Group-7" transform="translate(21.000000, 41.000000)">
                                <g id="working" transform="translate(90.000000, 0.000000)">
                                    <path d="M46.9375234,47 C46.4196748,47 46,47.4476419 46,48 C46,48.5522249 46.4196748,49 46.9375234,49 L50.0624766,49 C50.5803252,49 51,48.5523581 51,48 C51,47.4477751 50.5803252,47 50.0624766,47 L46.9375234,47 Z" id="Path"></path>
                                    <path d="M46.9375234,36 L50.0624766,36 C50.5803252,36 51,35.5523581 51,35 C51,34.4477751 50.5803252,34 50.0624766,34 L46.9375234,34 C46.4196748,34 46,34.4476419 46,35 C46.0001249,35.5523581 46.4197997,36 46.9375234,36 L46.9375234,36 Z" id="Path"></path>
                                    <path d="M59.7501992,0 L35.3934023,0 C34.1527969,0 33.1436016,1.00828082 33.1436016,2.2477621 L33.1436016,6.62556886 C33.1436016,7.12704762 33.5504766,7.53367491 34.0525313,7.53367491 C34.5545859,7.53367491 34.9614609,7.1271686 34.9614609,6.62556886 L34.9614609,2.2477621 C34.9614609,2.00978654 35.155332,1.81609112 35.3935234,1.81609112 L59.7501992,1.81609112 C59.9883906,1.81609112 60.1822617,2.00966555 60.1822617,2.2477621 L60.1822617,14.8137673 L34.9613398,14.8137673 L34.9613398,10.8707771 C34.9613398,10.3692984 34.5544648,9.96267107 34.0524102,9.96267107 C33.5503555,9.96267107 33.1434805,10.3691774 33.1434805,10.8707771 L33.1434805,18.1589755 C33.1434805,19.3984567 34.1526758,20.4067376 35.3932812,20.4067376 L43.6460625,20.4067376 L43.0184336,23.3195488 L31.980375,23.3195488 C31.8819258,21.8091843 31.2677383,20.3553194 30.2259687,19.222546 C28.9456445,17.8302619 27.1965664,17.0634652 25.3009648,17.0634652 L16.4947852,17.0634652 C14.5991836,17.0634652 12.8501055,17.8302619 11.5697812,19.222546 C10.5281328,20.3554403 9.91382422,21.8091843 9.815375,23.3195488 L1.89572266,23.3195488 C0.850441406,23.3196698 0,24.1693406 0,25.2136746 L0,27.4714784 C0,28.5159335 0.850441406,29.3654832 1.89572266,29.3654832 L3.06597266,29.3654832 L3.06597266,54.1834191 C3.06597266,55.1850458 3.88166016,56 4.88407422,56 L6.80026172,56 C7.80279687,56 8.61836328,55.1849249 8.61836328,54.1834191 L8.61836328,29.3654832 L10.8992852,29.3654832 L12.0970234,34.6685758 C12.5620234,36.7271189 14.3619609,38.164893 16.4741992,38.164893 L17.5824492,38.164893 L17.7542812,39.5891168 L14.855418,39.5891168 C12.7969453,39.5891168 11.1222188,41.2623258 11.1222188,43.3189332 C11.1222188,44.5324029 12.1103437,45.5196325 13.3249141,45.5196325 L20.0292695,45.5196325 L20.0292695,51.603193 L18.0858359,51.603193 C16.0163437,51.603193 14.1590078,52.8338424 13.3542187,54.7384938 C13.1588945,55.2005318 13.3755312,55.7332244 13.8379883,55.9282507 C14.29875,56.122793 14.8328945,55.9084093 15.0288242,55.4449195 C15.5488008,54.2143911 16.7488398,53.4192841 18.085957,53.4192841 L23.8289492,53.4192841 C25.1659453,53.4192841 26.3658633,54.2143911 26.886082,55.4450405 C27.0815273,55.9070785 27.6144609,56.1232769 28.0770391,55.9282507 C28.539375,55.7331035 28.7560117,55.2004108 28.5606875,54.7383728 C27.7555352,52.8338424 25.8984414,51.603072 23.8290703,51.603072 L21.84725,51.603072 L21.84725,45.5197535 L28.4708359,45.5197535 C29.6854063,45.5197535 30.6736523,44.5325239 30.6736523,43.3190542 C30.6736523,41.2624468 28.9989258,39.5892378 26.9404531,39.5892378 L24.0414688,39.5892378 L24.2133008,38.1650139 L25.3216719,38.1650139 C27.4339102,38.1650139 29.2338477,36.7273608 29.6987266,34.6686968 L30.8964648,29.3656042 L39.403543,29.3656042 L39.403543,54.0303744 C39.403543,55.1164479 40.2878906,56 41.3749492,56 L56.8292969,56 C57.9163555,56 58.8007031,55.1164479 58.8007031,54.0303744 L58.8007031,50.5214748 C58.8007031,50.0199961 58.3938281,49.6133688 57.8917734,49.6133688 C57.3897188,49.6133688 56.9828438,50.0198751 56.9828438,50.5214748 L56.9828438,54.0303744 C56.9828438,54.1149422 56.9139414,54.1839031 56.8291758,54.1839031 L41.3750703,54.1839031 C41.2903047,54.1839031 41.2214023,54.1150632 41.2214023,54.0303744 L41.2214023,42.62388 L56.9829648,42.62388 L56.9829648,46.2824368 C56.9829648,46.7839155 57.3898398,47.1905428 57.8918945,47.1905428 C58.3939492,47.1905428 58.8008242,46.7840365 58.8008242,46.2824368 L58.8008242,29.3654832 L60.0574141,29.3654832 C61.1028164,29.3654832 61.9531367,28.5158125 61.9531367,27.4714784 L61.9531367,25.2136746 C61.9531367,24.1692196 61.1026953,23.3196698 60.0574141,23.3196698 L52.1250469,23.3196698 L51.497418,20.4068585 L59.7501992,20.4068585 C60.9908047,20.4068585 62,19.3984567 62,18.1590964 L62,2.2477621 C62,1.00828082 60.9908047,0 59.7501992,0 Z M6.80038281,54.1837821 L4.88371094,54.1834191 L4.88371094,29.3654832 L6.800625,29.3654832 L6.80038281,54.1837821 Z M1.89572266,27.5493921 C1.85273438,27.5493921 1.81773828,27.5144277 1.81773828,27.4714784 L1.81773828,25.2136746 C1.81773828,25.1707253 1.85273438,25.1357609 1.89572266,25.1357609 L9.94579297,25.1357609 C9.98757031,25.3340537 10.2360547,26.4260555 10.4892617,27.5493921 L1.89572266,27.5493921 Z M28.855793,43.3189332 C28.855793,43.5310182 28.6831133,43.7035414 28.4708359,43.7035414 L13.3251563,43.7035414 C13.1128789,43.7035414 12.9401992,43.5310182 12.9401992,43.3189332 C12.9401992,42.2637106 13.7994805,41.405208 14.8556602,41.405208 L26.9404531,41.405208 C27.9965117,41.405208 28.855793,42.2637106 28.855793,43.3189332 Z M22.2104102,39.5891168 L19.5854609,39.5891168 L19.4136289,38.164893 L22.3822422,38.164893 L22.2104102,39.5891168 Z M27.9255508,34.2688446 C27.6489727,35.4934448 26.5782617,36.3488018 25.3216719,36.3488018 L16.4743203,36.3488018 C15.2177305,36.3488018 14.1468984,35.4935658 13.8703203,34.2688446 L11.737375,24.824832 C11.3738516,23.2167124 11.8571367,21.5945587 12.9083516,20.4513807 C13.8404102,19.4378975 15.1140742,18.8796773 16.4947852,18.8796773 L25.3009648,18.8796773 C26.6816758,18.8796773 27.9554609,19.4378975 28.8873984,20.4513807 C29.9826914,21.6425893 30.4073672,23.280229 30.058375,24.824953 L29.2795,28.2732395 C29.2793789,28.2738444 29.2791367,28.2745703 29.2790156,28.2751753 L27.9255508,34.2688446 Z M56.9829648,40.8076679 L41.2214023,40.8076679 L41.2214023,29.3656042 L56.9829648,29.3656042 L56.9829648,40.8076679 Z M60.1353984,25.2136746 L60.1353984,27.4714784 C60.1353984,27.5144277 60.1004023,27.5493921 60.0574141,27.5493921 L31.3067305,27.5493921 C31.6313828,26.1088354 31.8003086,25.3728896 31.8501992,25.1357609 L60.0574141,25.1357609 C60.1002813,25.1357609 60.1353984,25.1707253 60.1353984,25.2136746 L60.1353984,25.2136746 Z M50.2655313,23.3196698 L44.8779492,23.3196698 L45.5055781,20.4068585 L49.6379023,20.4068585 L50.2655313,23.3196698 Z M59.7501992,18.5906464 C59.0955664,18.5906464 36.0473086,18.5906464 35.3935234,18.5906464 C35.155332,18.5906464 34.9614609,18.396951 34.9614609,18.1589755 L34.9614609,16.6298584 L60.1822617,16.6298584 L60.1822617,18.1589755 C60.1822617,18.397072 59.9883906,18.5906464 59.7501992,18.5906464 L59.7501992,18.5906464 Z" id="Shape"></path>
                                </g>
                            </g>
                        </g>
                    </g>
                </g>
            </g>
        </g>
    </g>
</svg>