<?xml version="1.0" standalone="no"?>
<!DOCTYPE svg PUBLIC "-//W3C//DTD SVG 20010904//EN"
 "http://www.w3.org/TR/2001/REC-SVG-20010904/DTD/svg10.dtd">
<svg version="1.0" xmlns="http://www.w3.org/2000/svg"
 width="512.000000pt" height="512.000000pt" viewBox="0 0 512.000000 512.000000"
 preserveAspectRatio="xMidYMid meet">

<g transform="translate(0.000000,512.000000) scale(0.100000,-0.100000)"
fill="#000000" stroke="none">
<path d="M545 4455 c-14 -13 -25 -30 -25 -37 0 -8 -9 -31 -20 -53 -24 -48 -25
-88 -2 -139 17 -38 17 -41 0 -75 -38 -75 -7 -151 62 -151 32 0 80 37 80 62 0
8 9 31 20 53 24 48 25 88 2 139 -17 38 -17 41 0 75 38 75 7 151 -62 151 -19 0
-40 -9 -55 -25z"/>
<path d="M865 4455 c-14 -13 -25 -30 -25 -37 0 -8 -9 -31 -20 -53 -24 -48 -25
-88 -2 -139 17 -38 17 -41 0 -75 -38 -75 -7 -151 62 -151 32 0 80 37 80 62 0
8 9 31 20 53 24 48 25 88 2 139 -17 38 -17 41 0 75 38 75 7 151 -62 151 -19 0
-40 -9 -55 -25z"/>
<path d="M1991 4384 c-154 -41 -285 -161 -337 -307 -8 -23 -37 -197 -64 -387
-27 -190 -52 -360 -55 -377 l-6 -33 -244 0 -245 0 0 40 0 40 95 0 c88 0 98 2
120 25 24 23 25 28 25 175 0 147 -1 152 -25 175 -22 23 -32 25 -120 25 l-95 0
0 55 c0 46 -4 60 -25 80 l-24 25 -271 0 -271 0 -24 -25 -25 -24 0 -296 0 -295
-135 0 c-131 0 -137 -1 -160 -25 -25 -24 -25 -26 -25 -215 0 -189 0 -191 25
-215 20 -21 34 -25 80 -25 l55 0 0 -1040 0 -1040 -55 0 c-46 0 -60 -4 -80 -25
-33 -32 -33 -78 0 -110 l24 -25 2431 0 2431 0 24 25 c16 15 25 36 25 55 0 51
-38 80 -105 80 l-55 0 0 1040 0 1040 55 0 c46 0 60 4 80 25 25 24 25 26 25
215 0 189 0 191 -25 215 -23 24 -29 25 -160 25 l-135 0 0 80 0 80 55 0 c46 0
60 4 80 25 25 24 25 26 25 215 0 189 0 191 -25 215 l-24 25 -392 0 c-278 0
-404 -4 -433 -12 -55 -16 -138 -99 -154 -154 -14 -49 -15 -104 -3 -137 8 -21
5 -26 -29 -41 -52 -23 -114 -95 -130 -151 -7 -26 -10 -66 -7 -95 l6 -50 -49 0
c-48 0 -49 1 -55 33 -3 17 -28 187 -55 377 -27 190 -56 365 -64 388 -53 149
-201 279 -354 311 -86 18 -1052 14 -1121 -5z m1161 -177 c31 -15 72 -45 92
-67 68 -76 74 -97 127 -464 27 -187 51 -353 53 -368 l6 -28 -870 0 -869 0 5
28 c2 15 26 181 53 368 52 361 59 387 122 458 17 20 46 45 65 57 77 47 87 48
639 46 l520 -2 57 -28z m-2272 -687 l0 -240 -160 0 -160 0 0 240 0 240 160 0
160 0 0 -240z m3840 160 l0 -80 -335 0 -336 0 -24 25 c-16 15 -25 36 -25 55 0
19 9 40 25 55 l24 25 336 0 335 0 0 -80z m-3600 -120 l0 -40 -40 0 -40 0 0 40
0 40 40 0 40 0 0 -40z m3440 -200 l0 -80 -335 0 -336 0 -24 25 c-16 15 -25 36
-25 55 0 19 9 40 25 55 l24 25 336 0 335 0 0 -80z m320 -320 l0 -80 -2320 0
-2320 0 0 80 0 80 2320 0 2320 0 0 -80z m-160 -1120 l0 -880 -2160 0 -2160 0
0 880 0 880 2160 0 2160 0 0 -880z m-4240 -1120 l0 -80 -40 0 -40 0 0 80 0 80
40 0 40 0 0 -80z m4000 0 l0 -80 -1920 0 -1920 0 0 80 0 80 1920 0 1920 0 0
-80z m240 0 l0 -80 -40 0 -40 0 0 80 0 80 40 0 40 0 0 -80z"/>
<path d="M585 2615 l-25 -24 0 -671 0 -671 25 -24 24 -25 1951 0 1951 0 24 25
25 24 0 671 0 671 -25 24 -24 25 -1951 0 -1951 0 -24 -25z m3815 -695 l0 -560
-1840 0 -1840 0 0 560 0 560 1840 0 1840 0 0 -560z"/>
</g>
</svg>
