<?xml version="1.0" standalone="no"?>
<!DOCTYPE svg PUBLIC "-//W3C//DTD SVG 20010904//EN"
 "http://www.w3.org/TR/2001/REC-SVG-20010904/DTD/svg10.dtd">
<svg version="1.0" xmlns="http://www.w3.org/2000/svg"
 width="512.000000pt" height="512.000000pt" viewBox="0 0 512.000000 512.000000"
 preserveAspectRatio="xMidYMid meet">

<g transform="translate(0.000000,512.000000) scale(0.100000,-0.100000)"
fill="#000000" stroke="none">
<path d="M885 5095 c-25 -24 -25 -26 -25 -205 0 -179 0 -181 25 -205 23 -24
29 -25 155 -25 l130 0 0 -865 0 -864 22 -21 c21 -20 32 -20 660 -20 l638 0 -1
-67 0 -68 -47 -30 c-65 -41 -105 -119 -100 -191 14 -177 224 -266 354 -151
110 96 101 265 -18 342 l-47 30 0 68 -1 67 640 0 639 0 21 22 c20 22 20 30 20
885 l0 863 130 0 c126 0 132 1 155 25 25 24 25 26 25 205 0 179 0 181 -25 205
l-24 25 -1651 0 -1651 0 -24 -25z m3235 -205 l0 -90 -1560 0 -1560 0 0 90 0
90 1560 0 1560 0 0 -90z m-310 -1045 l0 -815 -1250 0 -1250 0 0 815 0 815
1250 0 1250 0 0 -815z m-1199 -1243 c33 -27 30 -78 -5 -109 -15 -12 -36 -23
-46 -23 -10 0 -31 11 -46 23 -53 46 -24 127 46 127 15 0 38 -8 51 -18z"/>
<path d="M3120 4380 c-19 -19 -20 -33 -20 -532 0 -282 4 -518 8 -524 19 -28
56 -34 222 -34 168 0 171 0 195 25 l25 24 0 511 c0 497 -1 511 -20 530 -19 19
-33 20 -205 20 -172 0 -186 -1 -205 -20z m290 -535 l0 -415 -85 0 -85 0 0 415
0 415 85 0 85 0 0 -415z"/>
<path d="M2362 4180 c-22 -21 -22 -22 -22 -440 l0 -419 22 -15 c18 -13 55 -16
199 -16 159 0 179 2 200 19 l24 19 3 411 3 411 -25 25 c-25 25 -27 25 -204 25
-166 0 -180 -1 -200 -20z m278 -435 l0 -315 -85 0 -85 0 0 315 0 315 85 0 85
0 0 -315z"/>
<path d="M1592 3977 c-22 -23 -22 -29 -22 -334 l0 -312 26 -20 c25 -19 40 -21
199 -21 159 0 174 2 199 21 l26 20 0 314 c0 310 0 314 -22 335 -20 19 -34 20
-203 20 -177 0 -182 -1 -203 -23z m288 -332 l0 -215 -85 0 -85 0 0 215 0 215
85 0 85 0 0 -215z"/>
<path d="M170 2661 c-76 -25 -118 -61 -149 -131 -20 -44 -21 -63 -21 -600 0
-623 -1 -611 72 -760 32 -66 59 -102 117 -161 42 -41 87 -82 99 -90 l24 -14
-115 -305 c-63 -168 -117 -318 -121 -334 -22 -92 56 -219 155 -251 88 -30 188
-1 246 69 18 23 73 153 157 375 l130 341 138 0 138 0 0 -285 c0 -167 4 -305
11 -335 45 -212 329 -246 428 -52 20 39 21 57 21 357 l0 315 83 0 c128 0 202
42 246 140 28 62 29 216 2 276 -22 49 -78 97 -130 113 -27 7 -195 11 -547 11
-474 0 -512 1 -543 18 -19 10 -43 34 -53 53 -17 31 -18 69 -18 544 0 302 -4
524 -10 544 -16 56 -58 107 -113 137 -44 23 -66 28 -137 31 -47 1 -96 -1 -110
-6z m179 -146 c16 -8 32 -22 37 -32 5 -10 11 -259 14 -553 5 -528 5 -536 27
-576 31 -59 106 -121 166 -139 42 -12 137 -15 560 -15 l509 0 29 -29 c26 -27
29 -36 29 -98 0 -76 -13 -103 -58 -122 -21 -9 -169 -11 -563 -9 -529 3 -535 3
-598 26 -170 62 -303 202 -346 367 -13 50 -15 146 -15 593 0 345 4 540 10 552
25 47 139 67 199 35z m206 -1700 c41 -9 59 -17 57 -26 -6 -25 -214 -573 -228
-601 -29 -56 -89 -64 -135 -19 -18 18 -29 40 -29 57 0 15 50 160 112 322 111
292 111 293 137 287 14 -4 53 -13 86 -20z m815 -316 l0 -301 -29 -29 c-40 -39
-82 -39 -122 0 l-29 29 0 301 0 301 90 0 90 0 0 -301z"/>
<path d="M4750 2661 c-70 -23 -113 -58 -146 -121 -18 -33 -19 -72 -24 -570 -5
-490 -7 -538 -23 -563 -42 -64 -18 -62 -607 -67 -586 -5 -560 -3 -624 -66 -57
-57 -71 -99 -71 -209 0 -83 4 -107 22 -140 47 -87 118 -124 240 -125 l82 0 3
-322 3 -323 28 -48 c43 -72 94 -101 187 -105 89 -5 138 14 185 70 54 64 55 73
55 413 l0 315 143 0 142 0 130 -343 c105 -277 136 -349 165 -381 136 -151 378
-67 396 138 4 46 -6 79 -115 366 l-120 315 32 25 c124 97 203 204 251 339 l31
86 3 545 c2 300 1 564 -3 586 -9 62 -56 126 -117 159 -45 25 -66 29 -138 32
-47 1 -96 -1 -110 -6z m206 -164 l24 -28 0 -537 c0 -332 -4 -554 -11 -582 -27
-118 -127 -257 -234 -325 -27 -18 -79 -43 -115 -56 l-65 -24 -548 -3 -548 -3
-29 30 c-28 27 -30 35 -30 106 0 69 2 78 26 100 l26 24 527 3 526 3 53 24 c31
14 69 43 92 69 70 78 70 82 70 651 1 401 3 511 14 530 22 40 54 52 130 48 60
-2 71 -6 92 -30z m-168 -1952 c62 -163 112 -309 112 -326 0 -85 -124 -109
-164 -31 -15 29 -223 577 -228 601 -2 11 11 17 47 23 28 4 64 12 80 17 17 5
33 10 36 10 3 1 56 -132 117 -294z m-866 -37 c3 -248 1 -298 -12 -323 -32 -62
-129 -55 -156 11 -11 26 -14 99 -14 319 l0 285 90 0 89 0 3 -292z"/>
<path d="M810 2153 c-50 -18 -50 -20 -50 -285 0 -235 1 -249 20 -268 20 -20
33 -20 785 -20 l765 0 0 -720 0 -720 -165 0 c-152 0 -167 -2 -185 -20 -26 -26
-26 -81 -2 -103 17 -15 72 -17 584 -17 535 0 566 1 581 18 23 25 21 78 -3 102
-18 18 -33 20 -185 20 l-165 0 0 720 0 720 763 0 c754 0 763 0 785 20 21 20
22 27 22 269 0 239 -1 249 -21 267 -21 19 -65 19 -1768 21 -960 1 -1753 -1
-1761 -4z m3410 -288 l0 -145 -1660 0 -1660 0 0 145 0 145 1660 0 1660 0 0
-145z m-1570 -1005 l0 -720 -90 0 -90 0 0 720 0 720 90 0 90 0 0 -720z"/>
</g>
</svg>
