<?xml version="1.0" encoding="UTF-8"?>
<svg width="56px" height="58px" viewBox="0 0 56 58" version="1.1" xmlns="http://www.w3.org/2000/svg" xmlns:xlink="http://www.w3.org/1999/xlink">
    <title>wifi</title>
    <g id="Main-Screens" stroke="none" stroke-width="1" fill="none" fill-rule="evenodd">
        <g id="Property-detail-view-new" transform="translate(-156.000000, -5229.000000)" fill="#000000" fill-rule="nonzero">
            <g id="On-site-amenities" transform="translate(-133.000000, 4991.000000)">
                <g id="Amenities-New" transform="translate(175.000000, 198.000000)">
                    <g id="High-Speed-Internet" transform="translate(0.000000, 2.000000)">
                        <g id="Group-7" transform="translate(97.000000, 38.000000)">
                            <g id="wifi" transform="translate(17.000000, 0.000000)">
                                <path d="M13.4760639,34.7187648 C13.8222041,35.0910895 14.3862499,35.0941155 14.7358954,34.7255235 C15.085541,34.3569315 15.0883827,33.7562998 14.7422425,33.3839751 C8.12808687,26.2384946 8.12808687,14.7615054 14.7422425,7.6160249 C15.0883827,7.24370017 15.085541,6.6430685 14.7358954,6.27447652 C14.3862499,5.90588454 13.8222041,5.90891052 13.4760639,6.28123524 C6.17464537,14.166106 6.17464537,26.833894 13.4760639,34.7187648 L13.4760639,34.7187648 Z" id="Path"></path>
                                <path d="M41.2642172,34.7255684 C41.6138439,35.0941004 42.1778223,35.0910746 42.5239438,34.7188096 C49.8253521,26.8338925 49.8253521,14.1661517 42.5239438,6.28123453 C42.1778018,5.90891075 41.6137532,5.90588477 41.2641059,6.27447581 C40.9144586,6.64306686 40.9116169,7.24369699 41.2577588,7.61602076 C47.8719008,14.7615496 47.8719008,26.2384946 41.2577588,33.3840234 C41.0915418,33.5628306 40.9988415,33.8046288 41,34.0562203 C41.0012639,34.3078118 41.0962874,34.5485853 41.2642172,34.7255684 Z" id="Path"></path>
                                <path d="M9.01756682,40 C9.41306646,40 9.76982024,39.769048 9.92211043,39.414373 C10.0744006,39.059698 9.99237842,38.6508361 9.71414442,38.3777102 C-0.624582755,28.1861874 -0.624582755,11.8160814 9.71414442,1.62455866 C9.96184268,1.38302009 10.0577378,1.03122853 9.96556697,0.702213868 C9.87339617,0.373199209 9.60722721,0.117177822 9.26771181,0.0309641371 C8.92819642,-0.0552495478 8.56715364,0.0415029647 8.32111173,0.284634733 C-2.77370391,11.2183766 -2.77370391,28.7838923 8.32111173,39.7176342 C8.50495153,39.8986287 8.75585763,40 9.01756682,40 L9.01756682,40 Z" id="Path"></path>
                                <path d="M54.0398448,20 C54.0651078,26.881882 51.2759431,33.4916911 46.2858556,38.3755335 C46.0381573,38.6170584 45.9422622,38.96883 46.034433,39.297826 C46.1266038,39.626822 46.3927728,39.8828288 46.7322882,39.9690376 C47.0718036,40.0552464 47.4328464,39.9584994 47.6788883,39.7153814 C58.7737039,28.7822597 58.7737039,11.2177403 47.6788883,0.284618589 C47.4328464,0.0415006107 47.0718036,-0.0552464141 46.7322882,0.0309623809 C46.3927728,0.117171176 46.1266038,0.373178042 46.034433,0.702174039 C45.9422622,1.03117004 46.0381573,1.38294165 46.2858556,1.62446652 C51.2759431,6.50830894 54.0651078,13.118118 54.0398448,20 L54.0398448,20 Z" id="Path"></path>
                                <path d="M20.0931839,29 C20.4591,29 20.7891856,28.7719953 20.9300757,28.4217511 C21.0709657,28.0715069 20.995038,27.6677573 20.7375703,27.3980934 C16.8384878,23.2949245 16.8384878,16.7050524 20.7375703,12.6018835 C21.0898561,12.2328169 21.086964,11.6374412 20.7311105,11.2720746 C20.375257,10.9067081 19.8011967,10.9097076 19.4489108,11.2787742 C14.8503631,16.1148632 14.8503631,23.8851137 19.4489108,28.7212026 C19.6190126,28.8998542 19.851096,29.0002838 20.0931839,29 L20.0931839,29 Z" id="Path"></path>
                                <path d="M35.2686616,28.7278001 C35.6245266,29.0933352 36.198568,29.0903339 36.5508653,28.7210964 C41.1497116,23.8819512 41.1497116,16.1069777 36.5508653,11.2678325 C36.1968632,10.9089945 35.6309708,10.9109787 35.2793138,11.2722911 C34.9276568,11.6336034 34.9201419,12.2207704 35.262428,12.5916461 C39.1617719,16.697496 39.1617719,23.2914328 35.262428,27.3972828 C34.910104,27.7664921 34.9128948,28.3621631 35.2686616,28.7278001 L35.2686616,28.7278001 Z" id="Path"></path>
                                <path d="M46.3214286,44.3178645 L28.9642857,44.3178645 L28.9642857,24.6742271 C31.3894288,24.1725181 33.0457885,21.8911842 32.7970136,19.3953422 C32.5482387,16.8995003 30.4751513,15 28,15 C25.5248487,15 23.4517613,16.8995003 23.2029864,19.3953422 C22.9542115,21.8911842 24.6105712,24.1725181 27.0357143,24.6742271 L27.0357143,44.3178645 L9.67857143,44.3178645 C4.88775926,44.3233177 1.00538059,48.2580755 1,53.113523 L1,57.0227046 C1,57.5624499 1.43172542,58 1.96428571,58 L54.0357143,58 C54.5682746,58 55,57.5624499 55,57.0227046 L55,53.113523 C54.9946194,48.2580755 51.1122407,44.3233177 46.3214286,44.3178645 Z M25.1071429,19.8854796 C25.1071429,18.2662436 26.4023191,16.9535934 28,16.9535934 C29.5976809,16.9535934 30.8928571,18.2662436 30.8928571,19.8854796 C30.8928571,21.5047157 29.5976809,22.8173658 28,22.8173658 C26.4030901,22.8154809 25.1090027,21.5039343 25.1071429,19.8854796 L25.1071429,19.8854796 Z M53.0714286,56.0454092 L2.92857143,56.0454092 L2.92857143,53.113523 C2.93275633,49.3370639 5.95238419,46.2766966 9.67857143,46.2724553 L46.3214286,46.2724553 C50.0476158,46.2766966 53.0672437,49.3370639 53.0714286,53.113523 L53.0714286,56.0454092 Z" id="Shape"></path>
                                <circle id="Oval" cx="28" cy="51" r="1"></circle>
                                <circle id="Oval" cx="32" cy="51" r="1"></circle>
                                <circle id="Oval" cx="36" cy="51" r="1"></circle>
                                <circle id="Oval" cx="24" cy="51" r="1"></circle>
                                <circle id="Oval" cx="20" cy="51" r="1"></circle>
                            </g>
                        </g>
                    </g>
                </g>
            </g>
        </g>
    </g>
</svg>