<?xml version="1.0" encoding="UTF-8"?>
<svg width="58px" height="58px" viewBox="0 0 58 58" version="1.1" xmlns="http://www.w3.org/2000/svg" xmlns:xlink="http://www.w3.org/1999/xlink">
    <!-- Generator: Sketch 63 (92445) - https://sketch.com -->
    <title>kitchen</title>
    <desc>Created with Sketch.</desc>
    <g id="Main-Screens" stroke="none" stroke-width="1" fill="none" fill-rule="evenodd">
        <g id="Property-detail-view-new" transform="translate(-821.000000, -5494.000000)" fill="#000000" fill-rule="nonzero">
            <g id="On-site-amenities" transform="translate(-133.000000, 4991.000000)">
                <g id="Amenities-New" transform="translate(175.000000, 198.000000)">
                    <g id="Amenities-Row-2" transform="translate(0.000000, 268.000000)">
                        <g id="Snacks" transform="translate(666.000000, 0.000000)">
                            <g id="Group-7" transform="translate(21.000000, 37.000000)">
                                <g id="kitchen" transform="translate(92.000000, 0.000000)">
                                    <path d="M20.7471923,20 L37.252697,20 C38.2161269,20 39,19.2162376 39,18.2528077 L39,15.5018902 C39,15.3077208 38.9319189,15.11964 38.8076018,14.9704152 L34.4151007,9.6995024 L34.4151007,1.71586399 C34.4151007,0.769703377 33.6453973,0 32.6992367,0 L25.3007633,0 C24.3546027,0 23.5848993,0.769703377 23.5848993,1.71586399 L23.5848993,9.6993917 L19.1923982,14.9703045 C19.0680811,15.1195293 19,15.3076101 19,15.5017795 L19,18.252697 C19,19.2161269 19.7837624,20 20.7471923,20 L20.7471923,20 Z M37.252697,18.3394865 L20.7471923,18.3394865 C20.6993696,18.3394865 20.6604028,18.3005197 20.6604028,18.2528077 L20.6604028,16.332147 L37.3393758,16.332147 L37.3393758,18.2528077 C37.3393758,18.3005197 37.3005197,18.3394865 37.252697,18.3394865 Z M24.8039376,10.8303121 L33.1960624,10.8303121 L36.3970897,14.6716334 L21.6027996,14.6716334 L24.8039376,10.8303121 Z M25.2453021,1.71586399 C25.2453021,1.68531054 25.2700991,1.66051354 25.3006526,1.66051354 L32.699126,1.66051354 C32.7296795,1.66051354 32.7544765,1.68531054 32.7544765,1.71586399 L32.7544765,9.16979858 L25.2453021,9.16979858 L25.2453021,1.71586399 Z" id="Shape"></path>
                                    <path d="M34.3191286,43 L21.6809798,43 C20.754055,43 20,43.781763 20,44.7427479 L20,52.2572521 C20,53.218237 20.754055,54 21.6809798,54 L34.3190202,54 C35.245945,54 36,53.218237 36,52.2572521 L36,44.7427479 C36,43.781763 35.245945,43 34.3191286,43 Z M34.3733538,52.2572521 C34.3733538,52.2882842 34.3490609,52.3134698 34.3191286,52.3134698 L21.6809798,52.3134698 C21.6510476,52.3134698 21.6267547,52.2882842 21.6267547,52.2572521 L21.6267547,44.7427479 C21.6267547,44.7117158 21.6510476,44.6865302 21.6809798,44.6865302 L34.3190202,44.6865302 C34.3489524,44.6865302 34.3733538,44.7117158 34.3733538,44.7427479 L34.3733538,52.2572521 L34.3733538,52.2572521 Z" id="Shape"></path>
                                    <path d="M20.9663703,36 L22.0336297,36 C22.5673238,36 23,35.7761333 23,35.5 C23,35.2238667 22.5673238,35 22.0336297,35 L20.9663703,35 C20.4326762,35 20,35.2238667 20,35.5 C20,35.7761333 20.4326762,36 20.9663703,36 Z" id="Path"></path>
                                    <path d="M28.9663703,36 L30.0336297,36 C30.5673238,36 31,35.7761333 31,35.5 C31,35.2238667 30.5673238,35 30.0336297,35 L28.9663703,35 C28.4326762,35 28,35.2238667 28,35.5 C28,35.7761333 28.4326762,36 28.9663703,36 L28.9663703,36 Z" id="Path"></path>
                                    <path d="M35.9663703,36 L37.0336297,36 C37.5673238,36 38,35.7761333 38,35.5 C38,35.2238667 37.5673238,35 37.0336297,35 L35.9663703,35 C35.4326762,35 35,35.2238667 35,35.5 C35,35.7761333 35.4326762,36 35.9663703,36 Z" id="Path"></path>
                                    <path d="M32.1694046,47 L24.8305954,47 C24.3718853,47 24,47.2238667 24,47.5 C24,47.7761333 24.3718853,48 24.8305954,48 L32.1694046,48 C32.6281147,48 33,47.7761333 33,47.5 C33,47.2238 32.6281147,47 32.1694046,47 Z" id="Path"></path>
                                    <path d="M10.0495137,35 L7.95035955,35 C7.42550765,35 7,35.2238667 7,35.5 C7,35.7761333 7.42550765,36 7.95035955,36 L10.0496404,36 C10.5744923,36 11,35.7761333 11,35.5 C10.9998733,35.2238667 10.5744923,35 10.0495137,35 Z" id="Path"></path>
                                    <path d="M4,47.7790913 L4,51.2209087 C4,51.6511749 4.22386667,52 4.5,52 C4.77613333,52 5,51.6511749 5,51.2209087 L5,47.7790913 C5,47.3488251 4.77613333,47 4.5,47 C4.22386667,47 4,47.3488251 4,47.7790913 Z" id="Path"></path>
                                    <path d="M56.2441406,31.5954813 L11.0826445,31.5954813 L11.0826445,25.7766001 C11.0826445,24.7969484 10.295,24 9.32678516,24 L7.3859375,24 C6.41772266,24 5.63007813,24.7969484 5.63007813,25.7766001 L5.63007813,31.5954813 L1.75585938,31.5954813 C0.787644531,31.5954813 0,32.3924297 0,33.3720814 L0,40.0506078 L0,56.2233999 C0,57.2030516 0.787644531,58 1.75585938,58 L7.62756641,58 C8.09677734,58 8.47717578,57.6151082 8.47717578,57.1403548 C8.47717578,56.6656014 8.09677734,56.2807096 7.62756641,56.2807096 L1.75585938,56.2807096 C1.72459375,56.2807096 1.69921875,56.2550348 1.69921875,56.2233999 L1.69921875,40.910253 L16.8902344,40.910253 L16.8902344,56.2807096 L10.9882812,56.2807096 C10.5190703,56.2807096 10.1386719,56.6656014 10.1386719,57.1403548 C10.1386719,57.6151082 10.5190703,58 10.9882812,58 L56.2441406,58 C57.2123555,58 58,57.2030516 58,56.2233999 L58,40.0506078 L58,33.3720814 C58,32.3924297 57.2123555,31.5954813 56.2441406,31.5954813 Z M56.3007812,33.3720814 L56.3007812,39.1909626 L41.1097656,39.1909626 L41.1097656,33.3147717 L56.2441406,33.3147717 C56.2754062,33.3147717 56.3007812,33.3404465 56.3007812,33.3720814 Z M39.4105469,39.1909626 L18.5894531,39.1909626 L18.5894531,33.3147717 L39.4105469,33.3147717 L39.4105469,39.1909626 Z M7.32929687,25.7767147 C7.32929687,25.7450798 7.35467187,25.7194051 7.3859375,25.7194051 L9.32678516,25.7194051 C9.35805078,25.7194051 9.38342578,25.7450798 9.38342578,25.7767147 L9.38342578,31.5955959 L7.32929687,31.5955959 L7.32929687,25.7767147 Z M1.69921875,39.1909626 L1.69921875,33.3720814 C1.69921875,33.3404465 1.72459375,33.3147717 1.75585937,33.3147717 L16.8902344,33.3147717 L16.8902344,39.1909626 L1.69921875,39.1909626 Z M18.5894531,40.910253 L39.4105469,40.910253 L39.4105469,56.2807096 L18.5894531,56.2807096 L18.5894531,40.910253 Z M56.3007812,56.2233999 C56.3007812,56.2550348 56.2754062,56.2807096 56.2441406,56.2807096 L41.1097656,56.2807096 L41.1097656,40.910253 L56.3007812,40.910253 L56.3007812,56.2233999 Z" id="Shape"></path>
                                    <path d="M47.9503596,36 L50.0496404,36 C50.5744923,36 51,35.7761333 51,35.5 C51,35.2238667 50.5744923,35 50.0496404,35 L47.9503596,35 C47.4255077,35 47,35.2238667 47,35.5 C47,35.7761333 47.4255077,36 47.9503596,36 Z" id="Path"></path>
                                    <path d="M43.5,52 C43.7761333,52 44,51.6511749 44,51.2209087 L44,47.7790913 C44,47.3488251 43.7761333,47 43.5,47 C43.2238667,47 43,47.3488251 43,47.7790913 L43,51.2209087 C43,51.6511749 43.2238667,52 43.5,52 Z" id="Path"></path>
                                    <path d="M1.68097985,15 L14.3190202,15 C15.245945,15 16,14.2036544 16,13.2247436 L16,1.77525636 C16,0.796345644 15.245945,0 14.3190202,0 L1.68097985,0 C0.754055025,0 0,0.796345644 0,1.77525636 L0,13.2247436 C0,14.2036544 0.754055025,15 1.68097985,15 Z M1.62675469,1.77525636 C1.62675469,1.74364535 1.65104756,1.71799003 1.68097985,1.71799003 L14.3190202,1.71799003 C14.3489524,1.71799003 14.3732453,1.74364535 14.3732453,1.77525636 L14.3732453,13.2247436 C14.3732453,13.2563547 14.3489524,13.28201 14.3190202,13.28201 L1.68097985,13.28201 C1.65104756,13.28201 1.62675469,13.2563547 1.62675469,13.2247436 L1.62675469,1.77525636 Z" id="Shape"></path>
                                    <path d="M6.95035955,11 L9.04964045,11 C9.57449235,11 10,10.7761333 10,10.5 C10,10.2238667 9.57449235,10 9.04964045,10 L6.95035955,10 C6.42550765,10 6,10.2238667 6,10.5 C6,10.7761333 6.42550765,11 6.95035955,11 Z" id="Path"></path>
                                    <path d="M56.3190202,0 L43.6809798,0 C42.754055,0 42,0.796345644 42,1.77525636 L42,3.88460452 C42,4.35899883 42.3641762,4.74359953 42.8133773,4.74359953 C43.2625785,4.74359953 43.6267547,4.35899883 43.6267547,3.88460452 L43.6267547,1.77525636 C43.6267547,1.74364535 43.6510476,1.71799003 43.6809798,1.71799003 L56.3190202,1.71799003 C56.3489524,1.71799003 56.3732453,1.74364535 56.3732453,1.77525636 L56.3732453,13.2247436 C56.3732453,13.2563547 56.3489524,13.28201 56.3190202,13.28201 L43.6809798,13.28201 C43.6510476,13.28201 43.6267547,13.2563547 43.6267547,13.2247436 L43.6267547,7.32058457 C43.6267547,6.84619026 43.2625785,6.46158956 42.8133773,6.46158956 C42.3641762,6.46158956 42,6.84619026 42,7.32058457 L42,13.2247436 C42,14.2036544 42.754055,15 43.6809798,15 L56.3190202,15 C57.245945,15 58,14.2036544 58,13.2247436 L58,1.77525636 C58,0.796345644 57.245945,0 56.3190202,0 Z" id="Path"></path>
                                    <path d="M51.0496404,11 C51.5744923,11 52,10.7761333 52,10.5 C52,10.2238667 51.5744923,10 51.0496404,10 L48.9503596,10 C48.4255077,10 48,10.2238667 48,10.5 C48,10.7761333 48.4255077,11 48.9503596,11 L51.0496404,11 Z" id="Path"></path>
                                    <path d="M57.1866227,21 L42.8133773,21 C42.3641762,21 42,21.3718898 42,21.8306057 C42,22.2893215 42.3641762,22.6612113 42.8133773,22.6612113 L45.5932842,22.6612113 L45.5932842,24.8026235 C44.5512936,25.1525853 43.7965879,26.155071 43.7965879,27.3346418 C43.7965879,28.8042601 44.9674175,30 46.4066616,30 C47.8457972,30 49.0166268,28.8043708 49.0166268,27.3346418 C49.0166268,26.1549603 48.2619211,25.1524746 47.2200389,24.8026235 L47.2200389,22.6612113 L52.7799611,22.6612113 L52.7799611,24.8026235 C51.7379705,25.1525853 50.9832648,26.155071 50.9832648,27.3346418 C50.9832648,28.8042601 52.1540943,30 53.5933384,30 C55.0324741,30 56.2033037,28.8043708 56.2033037,27.3346418 C56.2033037,26.1549603 55.4485979,25.1524746 54.4067158,24.8026235 L54.4067158,22.6612113 L57.1866227,22.6612113 C57.6358238,22.6612113 58,22.2893215 58,21.8306057 C58,21.3718898 57.6358238,21 57.1866227,21 L57.1866227,21 Z M46.4066616,28.3388994 C45.86441,28.3388994 45.4233426,27.8884897 45.4233426,27.3347525 C45.4233426,26.7811262 45.86441,26.3307164 46.4066616,26.3307164 C46.9488047,26.3307164 47.3898721,26.7811262 47.3898721,27.3347525 C47.3898721,27.8884897 46.9488047,28.3388994 46.4066616,28.3388994 Z M53.5933384,28.3388994 C53.0511953,28.3388994 52.6100195,27.8884897 52.6100195,27.3347525 C52.6100195,26.7811262 53.0510869,26.3307164 53.5933384,26.3307164 C54.1354816,26.3307164 54.576549,26.7811262 54.576549,27.3347525 C54.576549,27.8884897 54.1354816,28.3388994 53.5933384,28.3388994 Z" id="Shape"></path>
                                </g>
                            </g>
                        </g>
                    </g>
                </g>
            </g>
        </g>
    </g>
</svg>