<?xml version="1.0" standalone="no"?>
<!DOCTYPE svg PUBLIC "-//W3C//DTD SVG 20010904//EN"
 "http://www.w3.org/TR/2001/REC-SVG-20010904/DTD/svg10.dtd">
<svg version="1.0" xmlns="http://www.w3.org/2000/svg"
 width="512.000000pt" height="512.000000pt" viewBox="0 0 512.000000 512.000000"
 preserveAspectRatio="xMidYMid meet">

<g transform="translate(0.000000,512.000000) scale(0.100000,-0.100000)"
fill="#000000" stroke="none">
<path d="M212 4908 c-17 -17 -17 -3799 0 -3816 9 -9 111 -12 400 -12 377 0
388 1 398 20 8 14 8 26 0 40 -10 19 -21 20 -290 20 l-280 0 0 40 0 40 311 2
c284 3 313 5 323 21 8 12 8 22 0 35 -9 13 -28 18 -83 20 l-71 3 0 399 0 400
80 0 80 0 2 -351 c3 -323 4 -353 20 -363 13 -8 23 -8 35 0 17 10 18 40 21 363
l2 351 80 0 79 0 3 -111 c3 -94 6 -114 21 -123 12 -8 22 -8 35 0 15 10 17 30
20 149 2 93 -1 142 -9 151 -9 12 -93 14 -480 14 l-469 0 0 40 0 40 871 2 c818
3 873 4 883 21 8 12 8 22 0 35 -10 16 -65 17 -883 20 l-871 2 0 40 0 40 831 2
c780 3 833 4 843 21 16 25 -4 51 -43 55 l-31 3 0 400 0 399 80 0 80 0 2 -211
c3 -189 5 -213 21 -223 12 -8 22 -8 35 0 15 10 17 34 20 223 l2 211 80 0 79 0
3 -151 c3 -132 5 -153 21 -163 12 -8 22 -8 35 0 16 10 17 65 20 869 1 625 -1
861 -9 871 -16 19 -2118 21 -2137 2 -9 -9 -12 -423 -12 -1800 l0 -1788 -40 0
-40 0 0 1840 0 1840 2280 0 2280 0 0 -1840 0 -1840 -40 0 -40 0 0 1788 c0
1377 -3 1791 -12 1800 -19 19 -2121 17 -2137 -2 -8 -10 -10 -246 -9 -871 3
-804 4 -859 21 -869 12 -8 22 -8 35 0 15 10 17 35 20 243 l2 231 1000 0 1000
0 0 -40 0 -40 -828 0 c-631 0 -831 -3 -840 -12 -17 -17 -17 -919 0 -936 9 -9
209 -12 840 -12 l828 0 0 -40 0 -40 -831 -2 c-780 -3 -833 -4 -843 -20 -8 -13
-8 -23 0 -35 10 -17 63 -18 843 -21 l831 -2 0 -368 -1 -367 -167 329 c-92 182
-175 335 -184 340 -14 8 -38 0 -113 -37 -93 -46 -95 -46 -95 -23 0 13 -6 29
-14 35 -9 8 -173 10 -591 9 -538 -3 -579 -4 -589 -20 -8 -13 -8 -23 0 -35 10
-17 44 -18 442 -21 l432 -2 2 -192 c3 -169 5 -192 21 -202 12 -8 22 -8 35 0
15 10 17 33 20 203 l2 191 80 0 80 0 0 -428 c0 -320 3 -431 12 -440 9 -9 94
-12 320 -12 l308 0 0 -40 0 -40 -291 -2 c-265 -3 -293 -5 -303 -21 -8 -12 -8
-22 0 -35 10 -16 43 -17 409 -20 285 -1 402 1 411 9 19 16 21 3798 2 3817 -17
17 -4679 17 -4696 0z m2228 -708 l0 -480 -362 0 c-337 1 -361 2 -333 17 40 21
65 43 65 59 0 12 -429 763 -452 792 -17 20 -39 14 -118 -33 l-75 -44 -3 32
c-2 17 -8 38 -14 44 -8 10 -92 13 -359 13 l-349 0 0 40 0 40 1000 0 1000 0 0
-480z m2240 0 l0 -480 -160 0 -160 0 0 428 c0 320 -3 431 -12 440 -9 9 -209
12 -840 12 l-828 0 0 40 0 40 1000 0 1000 0 0 -480z m-4080 -80 l0 -400 -80 0
-80 0 0 400 0 400 80 0 80 0 0 -400z m240 0 l0 -400 -80 0 -80 0 0 400 0 400
80 0 80 0 0 -400z m240 0 l0 -400 -80 0 -80 0 0 400 0 400 80 0 80 0 0 -400z
m1760 0 l0 -400 -80 0 -80 0 0 400 0 400 80 0 80 0 0 -400z m240 0 l0 -400
-80 0 -80 0 0 400 0 400 80 0 80 0 0 -400z m240 0 l0 -400 -80 0 -80 0 0 400
0 400 80 0 80 0 0 -400z m240 0 l0 -400 -80 0 -80 0 0 400 0 400 80 0 80 0 0
-400z m240 0 l0 -400 -80 0 -80 0 0 400 0 400 80 0 80 0 0 -400z m240 0 l0
-400 -80 0 -80 0 0 400 0 400 80 0 80 0 0 -400z m240 0 l0 -400 -80 0 -80 0 0
400 0 400 80 0 80 0 0 -400z m-2766 41 c108 -186 196 -341 196 -344 0 -8 -115
-77 -128 -77 -12 0 -405 680 -398 688 9 9 120 71 128 72 3 0 94 -153 202 -339z
m-33 -423 c9 -17 -1 -18 -156 -18 l-165 0 0 287 0 288 156 -270 c86 -149 160
-278 165 -287z m959 -138 l0 -40 -1000 0 -1000 0 0 40 0 40 1000 0 1000 0 0
-40z m2240 0 l0 -40 -1000 0 -1000 0 0 40 0 40 1000 0 1000 0 0 -40z m-2240
-160 l0 -40 -588 0 c-444 0 -591 -3 -600 -12 -7 -7 -12 -27 -12 -44 l0 -33
-80 46 c-43 24 -87 43 -97 41 -17 -3 -51 -60 -339 -560 -103 -178 -134 -240
-127 -253 5 -9 27 -27 49 -40 l39 -24 -122 -1 -123 0 0 480 0 480 1000 0 1000
0 0 -40z m-960 -520 l0 -400 -80 0 -80 0 0 400 0 400 80 0 80 0 0 -400z m240
0 l0 -400 -80 0 -80 0 0 400 0 400 80 0 80 0 0 -400z m240 0 l0 -400 -80 0
-80 0 0 400 0 400 80 0 80 0 0 -400z m1280 0 l0 -400 -80 0 -80 0 0 400 0 400
80 0 80 0 0 -400z m240 0 l0 -400 -80 0 -80 0 0 400 0 400 80 0 80 0 0 -400z
m240 0 l0 -400 -80 0 -80 0 0 400 0 400 80 0 80 0 0 -400z m240 0 l0 -400 -80
0 -80 0 0 400 0 400 80 0 80 0 0 -400z m240 0 l0 -400 -80 0 -80 0 0 400 0
400 80 0 80 0 0 -400z m240 0 l0 -400 -80 0 -80 0 0 400 0 400 80 0 80 0 0
-400z m240 0 l0 -400 -80 0 -80 0 0 400 0 400 80 0 80 0 0 -400z m-3520 344
c38 -22 60 -41 56 -49 -7 -20 -376 -659 -386 -669 -7 -7 -140 58 -140 69 0 12
394 685 401 685 4 0 35 -16 69 -36z m77 -741 c-2 -2 -76 -2 -164 -1 l-160 3
161 279 161 279 3 -278 c1 -153 1 -280 -1 -282z m-637 -803 l0 -400 -80 0 -80
0 0 400 0 400 80 0 80 0 0 -400z m240 0 l0 -400 -80 0 -80 0 0 400 0 400 80 0
80 0 0 -400z m3632 58 c95 -189 174 -348 176 -355 2 -7 -28 -28 -65 -47 l-69
-34 -182 357 -182 357 63 31 c34 18 67 32 74 32 7 1 90 -153 185 -341z m-42
-450 c0 -5 -70 -8 -155 -8 l-155 0 0 308 0 307 155 -300 c85 -165 155 -303
155 -307z"/>
<path d="M2430 2905 c-56 -18 -122 -73 -156 -131 -38 -64 -42 -142 -15 -279
30 -149 38 -170 72 -199 29 -25 29 -25 29 -140 l0 -115 -362 -3 c-348 -3 -365
-4 -410 -25 -66 -30 -135 -98 -167 -163 -16 -30 -128 -305 -249 -610 -238
-597 -240 -602 -210 -702 15 -50 78 -122 132 -151 40 -21 52 -22 451 -27 l410
-5 305 -78 305 -78 322 80 322 81 356 0 c217 0 372 4 398 11 110 27 192 137
191 254 0 54 -23 120 -223 635 -123 316 -234 594 -247 616 -30 54 -85 101
-154 133 l-55 26 -377 3 -378 3 0 39 c0 35 3 39 34 50 98 32 125 89 126 260 0
114 2 126 20 138 17 11 20 23 20 98 0 48 -5 105 -12 126 -17 59 -88 133 -145
152 -60 21 -268 21 -333 1z m314 -79 c18 -8 46 -31 62 -51 23 -31 29 -50 32
-106 l4 -69 -44 0 c-32 0 -56 8 -84 26 -21 15 -53 33 -71 40 -40 17 -175 18
-191 2 -7 -7 -12 -38 -12 -70 0 -56 -1 -58 -26 -58 -14 0 -35 -5 -46 -11 -29
-16 -38 -2 -45 74 -10 108 31 184 122 223 42 19 255 18 299 0z m-98 -252 c50
-35 97 -54 129 -54 l25 0 0 -120 c0 -85 -4 -129 -14 -149 -26 -50 -93 -64
-171 -36 -71 26 -105 13 -90 -35 6 -18 71 -50 100 -50 21 0 21 -159 1 -199
-35 -66 -137 -66 -172 0 -11 21 -14 72 -14 209 l0 181 -35 20 c-81 48 -43 138
46 109 57 -19 69 -5 69 81 l0 69 44 0 c30 0 55 -8 82 -26z m-266 -667 c68
-143 252 -143 320 1 l25 53 370 -3 370 -3 53 -29 c28 -16 64 -45 79 -65 22
-29 121 -269 238 -577 l23 -61 -170 -67 c-94 -36 -172 -65 -173 -64 -1 2 -29
72 -61 157 -61 158 -79 185 -111 165 -16 -10 -18 -33 -21 -212 l-2 -200 -40
16 -40 17 0 171 c0 142 -3 174 -15 184 -13 11 -72 -1 -338 -68 l-322 -81 -327
81 c-272 68 -330 79 -342 68 -13 -10 -16 -41 -16 -184 l0 -171 -40 -17 -40
-16 -2 210 c-3 188 -5 212 -20 222 -33 20 -51 -8 -119 -175 -41 -102 -71 -163
-79 -161 -7 1 -83 30 -170 63 l-157 61 114 286 c136 340 142 351 190 391 69
57 86 59 458 60 l340 1 25 -53z m-142 -666 c150 -38 275 -71 278 -73 2 -3 3
-200 2 -439 l-3 -435 -200 49 -200 49 3 239 3 239 -25 25 c-21 21 -35 25 -81
25 l-55 0 0 195 c0 107 1 195 3 195 1 0 125 -31 275 -69z m922 -126 l0 -195
-55 0 c-46 0 -60 -4 -81 -25 l-25 -25 3 -239 3 -240 -185 -46 c-102 -25 -193
-48 -202 -51 -17 -5 -18 20 -18 434 l0 440 278 70 c152 39 278 71 280 71 1 1
2 -87 2 -194z m-1440 -65 l0 -130 -54 0 -54 0 51 130 c29 71 53 130 55 130 1
0 2 -58 2 -130z m-310 26 c79 -31 146 -58 147 -60 2 -2 -5 -24 -14 -49 l-17
-47 -154 -2 c-135 -3 -156 -5 -166 -21 -8 -12 -8 -22 0 -35 10 -15 37 -17 280
-20 148 -1 278 0 289 2 12 3 31 24 44 46 12 22 31 45 42 50 17 10 19 7 19 -33
0 -23 5 -48 12 -55 7 -7 40 -12 80 -12 l68 0 0 -200 0 -200 -432 0 c-400 0
-436 2 -473 19 -46 21 -79 54 -94 94 -24 63 -14 106 86 354 90 225 97 241 117
233 12 -4 86 -33 166 -64z m2039 -36 c23 -57 41 -107 41 -112 0 -4 -20 -8 -45
-8 l-45 0 0 117 c0 64 2 114 4 112 3 -2 23 -51 45 -109z m530 -127 c49 -127
93 -247 96 -267 9 -45 -9 -99 -48 -143 -56 -63 -52 -63 -522 -63 l-425 0 0
200 0 200 68 0 c40 0 73 5 80 12 7 7 12 32 12 55 0 40 2 43 20 33 10 -6 33
-31 50 -55 l31 -45 281 2 c255 3 282 5 292 20 8 13 8 23 0 35 -10 16 -32 18
-172 21 l-161 2 -17 45 c-9 25 -15 47 -13 50 5 5 333 133 336 131 1 -1 42
-106 92 -233z"/>
</g>
</svg>
