<?xml version="1.0" encoding="UTF-8"?>
<svg width="12px" height="18px" viewBox="0 0 12 18" version="1.1" xmlns="http://www.w3.org/2000/svg" xmlns:xlink="http://www.w3.org/1999/xlink">
    <title>Shape</title>
    <g id="Page-1" stroke="none" stroke-width="1" fill="none" fill-rule="evenodd">
        <path d="M6,0 C2.69166271,0 0,2.69166797 0,6.00001172 C0,6.99317578 0.248308109,7.97790234 0.720350156,8.85132422 L5.67188736,17.8066406 C5.7378052,17.9260313 5.86341824,18 6,18 C6.13658176,18 6.2621948,17.9260313 6.32811264,17.8066406 L11.281478,8.84837109 C11.7516919,7.97790234 12,6.99314062 12,5.99997656 C12,2.69166797 9.30833729,0 6,0 Z M6,9 C4.34582166,9 3,7.65417834 3,6 C3,4.34582166 4.34582166,3 6,3 C7.65417834,3 9,4.34582166 9,6 C9,7.65417834 7.65417834,9 6,9 Z" id="Shape" fill="#FFFFFF" fill-rule="nonzero"></path>
    </g>
</svg>