<?xml version="1.0" encoding="UTF-8"?>
<svg width="425px" height="455px" viewBox="0 0 425 455" version="1.1" xmlns="http://www.w3.org/2000/svg" xmlns:xlink="http://www.w3.org/1999/xlink">
    <!-- Generator: Sketch 63 (92445) - https://sketch.com -->
    <title>Group 7</title>
    <desc>Created with Sketch.</desc>
    <defs>
        <polygon id="path-1" points="0.00413336543 0.522656584 424.097071 0.522656584 424.097071 296.08839 0.00413336543 296.08839"></polygon>
        <polygon id="path-3" points="0.120860473 0.986009281 331.009611 0.986009281 331.009611 455 0.120860473 455"></polygon>
    </defs>
    <g id="Page-1" stroke="none" stroke-width="1" fill="none" fill-rule="evenodd" opacity="0.2">
        <g id="Group-7">
            <g id="Group-3" transform="translate(0.000000, 64.000000)">
                <g id="Fill-1-Clipped">
                    <mask id="mask-2" fill="white">
                        <use xlink:href="#path-1"></use>
                    </mask>
                    <g id="path-1"></g>
                    <path d="M348.873954,222.454585 C343.62458,227.689607 337.383198,231.921593 330.452922,234.820778 L319.072389,238.20087 C315.61414,238.84666 312.03189,239.203906 308.394528,239.203906 L302.19448,239.203906 L115.683254,239.203906 C112.05967,239.203906 108.47742,238.84666 105.032949,238.20087 L105.005393,238.20087 L105.005393,249.646468 C108.491198,250.209817 112.05967,250.553322 115.683254,250.553322 L302.800707,250.553322 L308.394528,250.553322 C312.03189,250.553322 315.572806,250.209817 319.072389,249.646468 C322.97153,249.028158 326.774226,248.107564 330.452922,246.870945 C340.524555,243.435891 349.576626,237.829884 356.934016,230.506351 C360.323376,227.126258 363.313177,223.333959 365.944753,219.294336 L365.669195,182.085838 C365.669195,197.845863 359.262479,212.094464 348.873954,222.454585 L348.873954,222.454585 Z M424.073649,112.72524 C424.073649,108.671877 423.853203,104.728436 423.41231,100.798735 C423.315865,99.7819591 423.109197,98.7651833 422.985196,97.7758879 C422.571859,94.8492224 422.117189,91.9500374 421.510962,89.1058132 C421.318072,88.0890374 420.987403,87.0860018 420.753178,86.069226 C420.036728,83.2250018 419.278945,80.4357384 418.383382,77.6739555 C418.080269,76.8358025 417.777155,76.0388701 417.474042,75.2007171 C416.426923,72.301532 415.310914,69.4573078 414.043349,66.6680445 C413.767791,66.0497349 413.464677,65.4863861 413.175342,64.8680765 C411.75622,61.8864502 410.213097,58.9735249 408.518417,56.1293007 C408.325526,55.7445747 408.091302,55.4010694 407.884634,55.0438238 C406.02462,52.0209769 404.040604,49.0393505 401.91881,46.1676459 C401.822365,46.0302438 401.712142,45.8653612 401.615697,45.7691797 C398.350338,41.4410125 394.919645,37.2502473 391.089393,33.4442082 C386.859582,29.2122224 382.230213,25.3374822 377.339064,21.7925071 L365.958531,14.578895 L365.944753,14.578895 L365.944753,219.294336 C372.93014,208.57697 377.049728,195.812311 377.049728,182.085838 L377.049728,176.026404 C377.132395,176.191286 377.256396,176.356169 377.339064,176.507311 L377.339064,36.4533149 C378.73063,37.6624537 380.177308,38.8441121 381.513763,40.0807313 C381.486207,40.121952 381.486207,40.1494324 381.486207,40.1494324 C395.773873,53.8484253 406.093509,71.5870409 410.461099,91.5790516 C410.474876,91.730194 410.543766,91.8675961 410.571322,92.0324786 C411.163771,94.9041833 411.604663,97.8033683 411.94911,100.757514 C412.004222,101.293383 412.142,101.77429 412.197112,102.310158 C412.541559,105.690251 412.73445,109.125304 412.73445,112.560358 C412.73445,112.642799 412.748227,112.72524 412.748227,112.807681 L412.748227,183.830845 C412.748227,183.885806 412.73445,183.968247 412.73445,184.050689 C412.73445,187.513222 412.541559,190.948276 412.197112,194.328368 C412.142,194.836756 412.004222,195.345144 411.94911,195.881012 C411.604663,198.835158 411.163771,201.734343 410.571322,204.606048 C410.543766,204.770931 410.474876,204.908333 410.461099,205.059475 C406.093509,225.024005 395.773873,242.776361 381.486207,256.489094 C381.486207,256.489094 381.486207,256.530315 381.513763,256.530315 C380.177308,257.821895 378.73063,258.976073 377.339064,260.185212 C373.729258,263.30424 369.940339,266.203425 365.944753,268.745365 C355.308226,275.560511 343.307688,280.479507 330.452922,282.939005 C326.746671,283.639756 322.916419,284.093183 319.072389,284.367988 C316.564814,284.560351 314.084795,284.738973 311.535886,284.738973 L116.069035,284.738973 L112.58323,284.738973 C110.020543,284.738973 107.49919,284.560351 105.005393,284.367988 L105.005393,295.827326 L105.032949,295.827326 C107.526746,295.964728 110.034321,296.08839 112.58323,296.08839 L311.535886,296.08839 C314.071017,296.08839 316.59237,295.992208 319.072389,295.827326 L330.452922,294.480785 C343.10102,292.309831 355.08778,288.064105 365.944753,282.087112 C365.944753,282.087112 365.944753,282.059632 365.958531,282.059632 L377.339064,274.84602 C382.230213,271.328525 386.859582,267.398824 391.089393,263.194319 C394.919645,259.360799 398.350338,255.197514 401.615697,250.896827 C401.712142,250.745685 401.822365,250.608283 401.91881,250.470881 C404.040604,247.599176 406.02462,244.64503 407.884634,241.567222 C408.091302,241.237457 408.325526,240.893952 408.518417,240.509226 C410.213097,237.665002 411.75622,234.752077 413.175342,231.74297 C413.464677,231.152141 413.767791,230.588792 414.043349,229.970482 C415.310914,227.208699 416.426923,224.336995 417.474042,221.43781 C417.777155,220.599657 418.080269,219.802724 418.383382,218.937091 C419.278945,216.202788 420.036728,213.386044 420.753178,210.569301 C421.00118,209.525044 421.318072,208.549489 421.510962,207.532714 C422.117189,204.71597 422.571859,201.761824 422.985196,198.862639 C423.109197,197.845863 423.315865,196.856568 423.41231,195.839792 C423.853203,191.910091 424.073649,187.966649 424.073649,183.913286 C424.073649,183.885806 424.101204,183.858326 424.101204,183.830845 L424.101204,112.780201 C424.101204,112.780201 424.073649,112.752721 424.073649,112.72524 L424.073649,112.72524 Z M105.032949,58.4239164 C108.47742,57.7643861 112.05967,57.4071406 115.683254,57.4071406 L302.19448,57.4071406 L308.394528,57.4071406 C312.03189,57.4071406 315.61414,57.7643861 319.072389,58.4239164 L319.072389,46.9920587 C315.572806,46.4561904 312.03189,46.0852046 308.394528,46.0852046 L302.800707,46.0852046 L115.683254,46.0852046 C112.05967,46.0852046 108.491198,46.4561904 105.005393,46.9920587 C101.106252,47.5828879 97.3035556,48.5309626 93.6524161,49.7401014 C83.5807824,53.1751548 74.5287121,58.8086423 67.1713216,66.1321762 C63.7681841,69.5397491 60.7508273,73.3457883 58.1054734,77.4266317 L58.4361427,114.538948 C58.4361427,98.7651833 64.856637,84.5165819 75.2176063,74.1839413 C80.4807583,68.9214395 86.7221401,64.7169342 93.6524161,61.8452295 C93.6524161,61.8452295 93.6524161,61.8177491 93.6799719,61.8177491 L105.005393,58.4239164 L105.032949,58.4239164 Z M47.1933887,111.694724 C47.0693877,112.134411 46.8764974,112.477916 46.7524964,112.876383 L46.7524964,183.762144 C46.8489416,184.105649 47.0142762,184.421674 47.152055,184.8064 C46.9729425,222.399625 46.7387185,260.322614 46.7387185,260.322614 C44.7960368,258.660048 42.853355,256.970002 41.0484521,255.142553 C39.7533309,253.850973 38.5822107,252.463212 37.3697569,251.08919 C35.5510761,249.055639 33.7737289,246.925906 32.1066049,244.782432 C31.8723808,244.493888 31.6519347,244.164123 31.4177106,243.848098 C29.8745875,241.773326 28.3727981,239.629852 26.9674539,237.431418 C26.705674,236.950511 26.4163385,236.469603 26.0994471,235.974956 C24.8318817,233.913923 23.6332057,231.77045 22.4896413,229.599496 C22.1176384,228.898746 21.814525,228.170514 21.4700778,227.442283 C20.4780701,225.436212 19.5273961,223.38892 18.6731672,221.300407 C18.2873865,220.311112 17.9291615,219.294336 17.5709364,218.291301 C16.8820422,216.395151 16.193148,214.485262 15.6006989,212.520411 C15.2011403,211.18761 14.8842489,209.841069 14.5398018,208.494528 C14.0989095,206.777002 13.6304614,205.086956 13.2997922,203.341948 C12.9415672,201.52824 12.7073431,199.673311 12.4455633,197.818383 C12.2664508,196.471842 12.004671,195.139041 11.88067,193.76502 C11.5637787,190.54981 11.3708883,187.265899 11.3708883,183.940767 C11.3708883,183.885806 11.3433325,183.885806 11.3433325,183.830845 L11.3433325,112.807681 C11.3433325,112.780201 11.3708883,112.72524 11.3708883,112.670279 C11.3708883,109.372628 11.5637787,106.088717 11.88067,102.873507 C12.004671,101.499486 12.2664508,100.166685 12.4455633,98.7926637 C12.7073431,96.9377349 12.9415672,95.082806 13.2997922,93.2965783 C13.6304614,91.5515712 14.0989095,89.8340445 14.5398018,88.1439982 C14.8842489,86.7974573 15.2011403,85.4234359 15.6006989,84.0906352 C16.193148,82.1257847 16.8820422,80.2433754 17.5709364,78.347226 C17.9291615,77.3441904 18.2873865,76.3274146 18.6731672,75.3381192 C19.5273961,73.2496068 20.4780701,71.2023149 21.4700778,69.1687633 C21.814525,68.440532 22.1176384,67.7397811 22.4896413,67.0390302 C23.6332057,64.8405961 24.8318817,62.7246032 26.0994471,60.6360907 C26.4163385,60.1414431 26.705674,59.688016 26.9674539,59.2071085 C28.3727981,57.0086744 29.8745875,54.8652011 31.4177106,52.7629484 C31.6519347,52.4744039 31.8723808,52.1446388 32.1066049,51.8560943 C33.7737289,49.6851406 35.5510761,47.5554075 37.3697569,45.5218559 C38.5822107,44.1753149 39.7533309,42.7875534 41.0484521,41.4684929 C42.853355,39.6685249 44.7960368,38.0059591 46.7387185,36.3159128 C50.3209685,33.2518452 54.1374426,30.4351014 58.1054734,27.8656815 C68.7833341,21.0505356 80.756316,16.1590196 93.6524161,13.7270018 C97.3586671,12.9987705 101.161363,12.5453434 105.005393,12.2430587 C107.49919,12.0506957 110.020543,11.8995534 112.58323,11.8995534 L116.069035,11.8995534 L311.535886,11.8995534 C314.084795,11.8995534 316.564814,12.0506957 319.072389,12.2430587 L319.072389,0.811201068 C316.59237,0.673798932 314.071017,0.522656584 311.535886,0.522656584 L112.58323,0.522656584 C110.034321,0.522656584 107.526746,0.673798932 105.032949,0.811201068 L105.005393,0.811201068 L93.6799719,2.15774199 L93.6524161,2.15774199 C80.9767622,4.3012153 68.9900024,8.57442171 58.1192513,14.578895 L58.1054734,14.578895 L46.7524964,21.7925071 C46.7387185,21.7925071 46.7387185,21.7925071 46.7387185,21.8199875 C41.8613473,25.3374822 37.2457559,29.2259626 33.0021674,33.4442082 C24.5838798,41.8669591 17.5847143,51.6362509 12.1837835,62.326137 C11.9633373,62.7246032 11.7842248,63.1230694 11.6051123,63.5077954 C10.0619892,66.6130836 8.67042289,69.787073 7.43041326,73.0297633 C7.08596614,73.9366174 6.72774113,74.8846922 6.41084978,75.8190267 C5.41884208,78.6357705 4.55083534,81.4799947 3.79305168,84.4066601 C3.47616033,85.5883185 3.13171321,86.7699769 2.85615551,87.9791157 C2.19481704,90.8508203 1.71259108,93.7774858 1.27169876,96.7316317 C1.10636415,97.91329 0.872140106,99.0812082 0.748139143,100.262867 C0.279691061,104.398671 0.00413336543,108.561956 0.00413336543,112.780201 L0.00413336543,183.830845 C0.00413336543,188.076571 0.279691061,192.239856 0.748139143,196.34818 C0.872140106,197.557319 1.10636415,198.697756 1.27169876,199.906895 C1.71259108,202.861041 2.19481704,205.787706 2.85615551,208.631931 C3.13171321,209.86855 3.47616033,211.022728 3.79305168,212.204386 C4.55083534,215.131052 5.41884208,218.002756 6.41084978,220.8195 C6.72774113,221.753835 7.08596614,222.674429 7.43041326,223.608763 C8.67042289,226.851454 10.0619892,230.025443 11.6051123,233.158212 C11.7842248,233.542938 11.9633373,233.913923 12.1837835,234.284909 C17.5847143,245.002276 24.5838798,254.799048 33.0021674,263.166838 C37.2457559,267.398824 41.8613473,271.301044 46.7387185,274.84602 L46.7524964,274.84602 L58.1054734,282.032151 L58.1054734,77.4266317 C51.7814243,87.2508843 47.8547272,98.7651833 47.2485002,111.158856 C47.2071666,111.062674 47.1933887,111.131375 47.1933887,111.694724 L47.1933887,111.694724 Z" id="Fill-1" fill="#FEFEFE" fill-rule="nonzero" mask="url(#mask-2)"></path>
                </g>
            </g>
            <g id="Group-6" transform="translate(47.000000, 0.000000)">
                <g id="Fill-4-Clipped">
                    <mask id="mask-4" fill="white">
                        <use xlink:href="#path-3"></use>
                    </mask>
                    <g id="path-3"></g>
                    <path d="M272.692106,0.986009281 L272.692106,302.321636 L284.082567,298.945557 L284.082567,12.2945012 L319.60536,12.2945012 L319.60536,78.9651972 L319.61915,78.9651972 L331.009611,86.1702436 L331.009611,0.986009281 L272.692106,0.986009281 Z M319.60536,346.142042 L319.60536,373.411427 C319.60536,392.817019 311.703745,410.342436 298.920504,423.078213 C286.137263,435.841439 268.499975,443.691508 249.02863,443.691508 L82.1018407,443.691508 C62.6442859,443.691508 45.0069985,435.841439 32.2237573,423.078213 C19.4543061,410.342436 11.5251112,392.817019 11.5113213,373.411427 L11.5113213,346.087146 L0.134650377,338.909548 L0.120860473,338.909548 L0.120860473,373.411427 C0.120860473,395.918619 9.34630635,416.353503 24.1704533,431.09297 C38.9946003,445.832436 59.5277676,455.027448 82.1018407,455.000122 L249.02863,455.000122 C271.630283,455.027448 292.149661,445.832436 306.987598,431.09297 C321.811745,416.353503 331.009611,395.918619 331.009611,373.411427 L331.009611,338.909548 L319.61915,346.114594 C319.60536,346.114594 319.60536,346.142042 319.60536,346.142042 L319.60536,346.142042 Z M11.5113213,78.9651972 L11.5113213,12.2945012 L47.0754841,12.2945012 L47.0754841,66.5450696 L47.1030639,66.5450696 L58.4383651,65.2138515 L58.4383651,0.986009281 L0.120860473,0.986009281 L0.120860473,86.1976914 C0.120860473,86.1702436 0.120860473,86.1702436 0.134650377,86.1702436 L11.5113213,78.9651972 Z M58.4383651,122.758155 L47.1030639,126.134234 C47.0754841,126.134234 47.0754841,126.161682 47.0754841,126.161682 L47.0754841,373.411427 C47.0754841,383.059327 51.0056068,391.80145 57.3489627,398.100719 C63.6647388,404.399988 72.4489078,408.311299 82.1018407,408.311299 L249.02863,408.311299 C258.681563,408.311299 267.493312,404.399988 273.809088,398.100719 C280.152444,391.80145 284.082567,383.059327 284.082567,373.411427 L284.082567,358.534722 L272.692106,359.86594 L272.692106,373.411427 C272.692106,379.944002 270.058234,385.817831 265.755784,390.085963 C261.467124,394.340371 255.592625,396.97536 249.02863,396.97536 L82.1018407,396.97536 C75.5654261,396.97536 69.6909269,394.340371 65.4022667,390.085963 C61.0998166,385.817831 58.4383651,379.944002 58.4383651,373.411427 L58.4383651,122.758155 Z" id="Fill-4" fill="#FEFEFE" fill-rule="nonzero" mask="url(#mask-4)"></path>
                </g>
            </g>
        </g>
    </g>
</svg>