<?xml version="1.0" encoding="UTF-8"?>
<svg width="74px" height="58px" viewBox="0 0 74 58" version="1.1" xmlns="http://www.w3.org/2000/svg" xmlns:xlink="http://www.w3.org/1999/xlink">
    <title>lounge</title>
    <g id="Main-Screens" stroke="none" stroke-width="1" fill="none" fill-rule="evenodd">
        <g id="Property-detail-view-new" transform="translate(-1146.000000, -5497.000000)" fill="#000000" fill-rule="nonzero" stroke="#FFFFFF" stroke-width="0.5">
            <g id="On-site-amenities" transform="translate(-133.000000, 4991.000000)">
                <g id="Amenities-New" transform="translate(175.000000, 198.000000)">
                    <g id="Amenities-Row-2" transform="translate(0.000000, 268.000000)">
                        <g id="Space" transform="translate(999.000000, 0.000000)">
                            <g id="Group-7" transform="translate(21.000000, 41.000000)">
                                <g id="lounge" transform="translate(85.000000, 0.000000)">
                                    <path d="M70.1861458,22.8494222 L67.5702083,20.8711111 C66.9778125,20.4239111 66.245625,20.1777778 65.5065625,20.1777778 L63.9791667,20.1777778 L63.9791667,10.9333333 C63.9791667,9.02204444 62.436875,7.46666667 60.5416667,7.46666667 L59.233125,7.46666667 C58.7209375,5.47795556 56.9414583,4 54.8125,4 L34.1875,4 C32.0585417,4 30.2790625,5.47795556 29.766875,7.46666667 L28.4583333,7.46666667 C26.563125,7.46666667 25.0208333,9.02204444 25.0208333,10.9333333 L25.0208333,20.1777778 L23.4934375,20.1777778 C22.754375,20.1777778 22.0221875,20.4239111 21.4320833,20.8722667 L18.815,22.8505778 C17.6783333,23.7091556 17,25.0761778 17,26.5090667 C17,27.0464 17.0928125,27.5721778 17.2727083,28.0725333 L18.1275,30.4448889 C20.3916667,36.7253333 21.5489583,43.2946667 21.5776042,49.9737778 C20.8832292,50.6070222 20.4375,51.5152889 20.4375,52.5333333 C20.4375,54.4446222 21.9797917,56 23.875,56 C25.4734375,56 26.8094792,54.8883556 27.1921875,53.3953778 C29.354375,52.6500444 36.9741667,50.2222222 44.5,50.2222222 C52.0258333,50.2222222 59.645625,52.6500444 61.8078125,53.3953778 C62.1905208,54.8883556 63.5265625,56 65.125,56 C67.0202083,56 68.5625,54.4446222 68.5625,52.5333333 C68.5625,51.5152889 68.1167708,50.6070222 67.4223958,49.9726222 C67.4510417,43.2935111 68.6083333,36.7241778 70.8725,30.4437333 L71.7272917,28.0736889 C71.9071875,27.5710222 72,27.0452444 72,26.5090667 C72,25.0761778 71.3216667,23.7091556 70.1861458,22.8494222 Z M65.5065625,22.4888889 C65.7529167,22.4888889 65.9969792,22.5709333 66.1952083,22.72 L68.8111458,24.6983111 C68.8501042,24.7283556 68.8798958,24.7676444 68.9165625,24.8 L64.4535417,24.8 L62.161875,22.4888889 L65.5065625,22.4888889 Z M59.3958333,9.77777778 L60.5416667,9.77777778 C61.1730208,9.77777778 61.6875,10.2954667 61.6875,10.9333333 L61.6875,20.1777778 L61.2497917,20.1777778 C60.6092708,20.1777778 59.96875,20.3303111 59.3958333,20.6192 L59.3958333,9.77777778 Z M31.8958333,24.3585778 L31.8958333,8.62222222 C31.8958333,7.34764444 32.9236458,6.31111111 34.1875,6.31111111 L54.8125,6.31111111 C56.0763542,6.31111111 57.1041667,7.34764444 57.1041667,8.62222222 L57.1041667,24.3585778 L57.1041667,25.9555556 L31.8958333,25.9555556 L31.8958333,24.3585778 Z M31.224375,28.2666667 L57.775625,28.2666667 L61.213125,31.7333333 L27.786875,31.7333333 L31.224375,28.2666667 Z M26.1666667,30.0993778 L26.1666667,26.4339556 L29.2707292,23.3035556 C29.4792708,23.6086222 29.6041667,23.9703111 29.6041667,24.3585778 L29.6041667,25.9555556 L29.6041667,26.6327111 L26.1666667,30.0993778 Z M27.3125,10.9333333 C27.3125,10.2954667 27.8269792,9.77777778 28.4583333,9.77777778 L29.6041667,9.77777778 L29.6041667,20.6192 C29.03125,20.3303111 28.3907292,20.1777778 27.7502083,20.1777778 L27.3125,20.1777778 L27.3125,10.9333333 Z M20.1888542,24.6983111 L22.8059375,22.72 C23.0030208,22.5709333 23.2470833,22.4888889 23.4934375,22.4888889 L26.838125,22.4888889 L24.5464583,24.8 L20.0834375,24.8 C20.1201042,24.7676444 20.1498958,24.7283556 20.1888542,24.6983111 Z M20.2816667,29.6533333 L19.4257292,27.2786667 C19.40625,27.2243556 19.3970833,27.1665778 19.3810417,27.1111111 L23.875,27.1111111 L23.875,33.8456889 L23.875,36.3555556 L23.875,49.0666667 C23.8669792,49.0666667 23.8589583,49.0689778 23.8497917,49.0689778 C23.7248958,42.4314667 22.5355208,35.9048889 20.2816667,29.6533333 Z M23.875,53.6888889 C23.2436458,53.6888889 22.7291667,53.1712 22.7291667,52.5333333 C22.7291667,51.8954667 23.2436458,51.3777778 23.875,51.3777778 C24.5063542,51.3777778 25.0208333,51.8954667 25.0208333,52.5333333 C25.0208333,53.1712 24.5063542,53.6888889 23.875,53.6888889 Z M62.8333333,49.9691556 C62.5044792,50.2684444 62.2363542,50.6266667 62.0404167,51.0322667 C59.2388542,50.0928 51.9330208,47.9111111 44.5,47.9111111 C37.0669792,47.9111111 29.7611458,50.0928 26.9595833,51.0322667 C26.7647917,50.6266667 26.4955208,50.2672889 26.1666667,49.9691556 L26.1666667,39.6096 C26.5264583,39.7390222 26.9091667,39.8222222 27.3125,39.8222222 L61.6875,39.8222222 C62.0908333,39.8222222 62.4735417,39.7390222 62.8333333,39.6096 L62.8333333,49.9691556 Z M62.8333333,36.3555556 C62.8333333,36.9934222 62.3188542,37.5111111 61.6875,37.5111111 L27.3125,37.5111111 C26.6811458,37.5111111 26.1666667,36.9934222 26.1666667,36.3555556 L26.1666667,34.0444444 L62.8333333,34.0444444 L62.8333333,36.3555556 Z M62.8333333,30.0993778 L59.3958333,26.6327111 L59.3958333,25.9555556 L59.3958333,24.3585778 C59.3958333,23.9703111 59.5207292,23.6086222 59.7292708,23.3035556 L62.8333333,26.4339556 L62.8333333,30.0993778 Z M65.125,53.6888889 C64.4936458,53.6888889 63.9791667,53.1712 63.9791667,52.5333333 C63.9791667,51.8954667 64.4936458,51.3777778 65.125,51.3777778 C65.7563542,51.3777778 66.2708333,51.8954667 66.2708333,52.5333333 C66.2708333,53.1712 65.7563542,53.6888889 65.125,53.6888889 Z M69.573125,27.2809778 L68.7183333,29.6533333 C66.4644792,35.9037333 65.2751042,42.4303111 65.1502083,49.0689778 C65.1410417,49.0689778 65.1330208,49.0666667 65.125,49.0666667 L65.125,36.3555556 L65.125,33.8456889 L65.125,27.1111111 L69.6189583,27.1111111 C69.6029167,27.1677333 69.59375,27.2255111 69.573125,27.2809778 Z" id="Shape"></path>
                                    <path d="M17,23.3333333 L17,21 L13.4846429,21 L14.5714286,10.5 L14.5714286,7 L10.2619286,7 L10.8022857,2.33333333 L15.7857143,2.33333333 L15.7857143,0 L8.6275,0 L7.81757143,7 L2.42857143,7 L2.43464286,10.6166667 L3.51535714,21 L0,21 L0,23.3333333 L7.28571429,23.3333333 L7.28571429,53.6666667 L0,53.6666667 L0,56 L17,56 L17,53.6666667 L9.71428571,53.6666667 L9.71428571,23.3333333 L17,23.3333333 Z M6.19892857,21 L5.95607143,21 L5.34528571,15.1666667 L6.87407143,15.1666667 L6.19892857,21 Z M7.14364286,12.8333333 L5.10121429,12.8333333 L4.85714286,10.5 L4.85714286,9.33333333 L7.548,9.33333333 L7.14364286,12.8333333 Z M9.98992857,9.33333333 L12.1452857,9.33333333 L12.1477143,10.3833333 L11.8927143,12.8333333 L9.58557143,12.8333333 L9.98992857,9.33333333 Z M8.64207143,21 L9.31721429,15.1666667 L11.6510714,15.1666667 L11.0439286,21 L8.64207143,21 Z" id="Shape"></path>
                                </g>
                            </g>
                        </g>
                    </g>
                </g>
            </g>
        </g>
    </g>
</svg>