<?xml version="1.0" encoding="utf-8"?>
<!-- Generator: Adobe Illustrator 24.0.0, SVG Export Plug-In . SVG Version: 6.00 Build 0)  -->
<svg version="1.1" id="Layer_1" xmlns="http://www.w3.org/2000/svg" xmlns:xlink="http://www.w3.org/1999/xlink" x="0px" y="0px"
	 viewBox="0 0 58 58" style="enable-background:new 0 0 58 58;" xml:space="preserve">
<g id="Mailbox">
	<path d="M45.4,0H19.3c-0.1,0-0.2,0-0.3,0.1C13,0.7,8.3,5.6,7.8,11.6H1c-0.5,0-1,0.4-1,1V30c0,0.5,0.4,1,1,1h6.2l-1.8,3.5
		c-0.7,1.4-0.1,3.2,1.3,3.9c0.4,0.2,0.8,0.3,1.3,0.3h18.9c0.4,0,0.8-0.1,1.2-0.3V57c0,0.5,0.4,1,1,1h9.7c0.5,0,1-0.4,1-1V30.9H57
		c0.5,0,1-0.4,1-1V12.6C58,5.6,52.4,0,45.4,0z M20.3,1.9c5.9,0,10.6,4.7,10.6,10.6c0,0,0,0,0,0V29h-3.9V12.6c0-0.5-0.4-1-1-1H9.7
		C10.2,6.1,14.8,1.9,20.3,1.9z M3.4,29l7.2-6.4l1,0.9c1.1,1,2.8,1,3.9,0l1-0.9l7.2,6.4H3.4z M17.9,21.3l7.2-6.4v12.9L17.9,21.3z
		 M14.2,22c-0.4,0.3-0.9,0.3-1.3,0l-9.5-8.5h20.3L14.2,22z M9.1,21.3l-7.2,6.4V14.8L9.1,21.3z M26.8,36.7H8c-0.5,0-1-0.4-1-1
		c0-0.1,0-0.3,0.1-0.4l2.2-4.4h21l-2.6,5.3C27.5,36.5,27.2,36.7,26.8,36.7z M37.7,56.1H30V36l2.5-5.1h5.2V56.1z M56.1,29H32.9V12.6
		c0-4.3-2.2-8.3-5.9-10.6h18.4c5.9,0,10.6,4.8,10.6,10.6V29z"/>
</g>
</svg>
