<?xml version="1.0" encoding="utf-8"?>
<!-- Generator: Adobe Illustrator 24.0.0, SVG Export Plug-In . SVG Version: 6.00 Build 0)  -->
<svg version="1.1" id="Icon_Set" xmlns="http://www.w3.org/2000/svg" xmlns:xlink="http://www.w3.org/1999/xlink" x="0px" y="0px"
	 viewBox="0 0 58 58" style="enable-background:new 0 0 58 58;" xml:space="preserve">
<style type="text/css">
	.st0{fill:none;}
	.st1{fill:#212A41;}
	.st2{fill:#FEFEFE;}
	.st3{fill:#FFFFFF;}
</style>
<path class="st0" d="M52.2,57.5H1.6c-0.6,0-1.1-0.5-1.1-1.1V1.6C0.5,1,1,0.5,1.6,0.5h50.6c0.6,0,1.1,0.5,1.1,1.1v54.8
	C53.3,57,52.8,57.5,52.2,57.5z"/>
<path class="st1" d="M52.2,58H1.6C0.7,58,0,57.3,0,56.4V1.6C0,0.7,0.7,0,1.6,0h50.6c0.9,0,1.6,0.7,1.6,1.6v54.8
	C53.8,57.3,53.1,58,52.2,58z M1.6,1.1c-0.3,0-0.5,0.2-0.5,0.5v54.8c0,0.3,0.2,0.5,0.5,0.5h50.6c0.3,0,0.5-0.2,0.5-0.5V1.6
	c0-0.3-0.2-0.5-0.5-0.5H1.6z"/>
<path class="st0" d="M56.4,57.5H5.8c-0.6,0-1.1-0.5-1.1-1.1V1.6c0-0.6,0.5-1.1,1.1-1.1h50.6c0.6,0,1.1,0.5,1.1,1.1v54.8
	C57.5,57,57,57.5,56.4,57.5z"/>
<path class="st1" d="M56.4,58H5.8c-0.9,0-1.6-0.7-1.6-1.6V1.6C4.2,0.7,4.9,0,5.8,0h50.6C57.3,0,58,0.7,58,1.6v54.8
	C58,57.3,57.3,58,56.4,58z M5.8,1.1c-0.3,0-0.5,0.2-0.5,0.5v54.8c0,0.3,0.2,0.5,0.5,0.5h50.6c0.3,0,0.5-0.2,0.5-0.5V1.6
	c0-0.3-0.2-0.5-0.5-0.5H5.8z"/>
<path class="st2" d="M6.9,55.9c-0.3,0-0.5-0.2-0.5-0.5V2.6c0-0.3,0.2-0.5,0.5-0.5c0.3,0,0.5,0.2,0.5,0.5v52.7
	C7.4,55.7,7.1,55.9,6.9,55.9z"/>
<path class="st0" d="M33.2,17.4H17.4c-2.3,0-4.2,1.9-4.2,4.2v21.1h24.3V21.6C37.4,19.3,35.5,17.4,33.2,17.4z"/>
<path class="st1" d="M37.4,43.2H13.2c-0.3,0-0.5-0.2-0.5-0.5V21.6c0-2.6,2.1-4.7,4.7-4.7h15.8c2.6,0,4.7,2.1,4.7,4.7v21.1
	C38,43,37.7,43.2,37.4,43.2z M13.7,42.2h23.2V21.6c0-2-1.7-3.7-3.7-3.7H17.4c-2,0-3.7,1.7-3.7,3.7V42.2z"/>
<path class="st0" d="M36.4,17.4H20.6c-2.3,0-4.2,1.9-4.2,4.2v21.1h24.3V21.6C40.6,19.3,38.7,17.4,36.4,17.4z"/>
<path class="st1" d="M40.6,43.2H16.3c-0.3,0-0.5-0.2-0.5-0.5V21.6c0-2.6,2.1-4.7,4.7-4.7h15.8c2.6,0,4.7,2.1,4.7,4.7v21.1
	C41.1,43,40.9,43.2,40.6,43.2z M16.9,42.2h23.2V21.6c0-2-1.7-3.7-3.7-3.7H20.6c-2,0-3.7,1.7-3.7,3.7V42.2z"/>
<path class="st0" d="M13.2,42.7h25.3v4.2c0,1.2-0.9,2.1-2.1,2.1H15.3c-1.2,0-2.1-0.9-2.1-2.1L13.2,42.7z"/>
<path class="st1" d="M36.4,49.6H15.3c-1.5,0-2.6-1.2-2.6-2.6v-4.2c0-0.3,0.2-0.5,0.5-0.5h25.3c0.3,0,0.5,0.2,0.5,0.5v4.2
	C39,48.4,37.8,49.6,36.4,49.6z M13.7,43.2v3.7c0,0.9,0.7,1.6,1.6,1.6h21.1c0.9,0,1.6-0.7,1.6-1.6v-3.7H13.7z"/>
<path class="st3" d="M39.5,36.4H22.7c-1.2,0-2.1-0.9-2.1-2.1v-7.4c0-3.5,2.8-6.3,6.3-6.3h8.4c3.5,0,6.3,2.8,6.3,6.3v7.4
	C41.7,35.4,40.7,36.4,39.5,36.4z"/>
<path class="st1" d="M39.5,36.9H22.7c-1.5,0-2.6-1.2-2.6-2.6v-7.4c0-3.8,3.1-6.9,6.9-6.9h8.4c3.8,0,6.9,3.1,6.9,6.9v7.4
	C42.2,35.7,41,36.9,39.5,36.9z M26.9,21.1c-3.2,0-5.8,2.6-5.8,5.8v7.4c0,0.9,0.7,1.6,1.6,1.6h16.9c0.9,0,1.6-0.7,1.6-1.6v-7.4
	c0-3.2-2.6-5.8-5.8-5.8H26.9z"/>
<path class="st3" d="M22.7,20.6v-9.5c0-2.3,1.9-4.2,4.2-4.2h1.1v13.7H22.7z"/>
<path class="st1" d="M27.9,21.1h-5.3c-0.3,0-0.5-0.2-0.5-0.5v-9.5c0-2.6,2.1-4.7,4.7-4.7h1.1c0.3,0,0.5,0.2,0.5,0.5v13.7
	C28.5,20.9,28.2,21.1,27.9,21.1z M23.2,20h4.2V7.4h-0.5c-2,0-3.7,1.7-3.7,3.7V20z"/>
<path class="st3" d="M32.2,20.6h-2.1c-2.3,0-4.2-1.9-4.2-4.2v-4.2c0-2.3,1.9-4.2,4.2-4.2h2.1c2.3,0,4.2,1.9,4.2,4.2v4.2
	C36.4,18.7,34.5,20.6,32.2,20.6z"/>
<g>
	<path class="st1" d="M32.2,21.1h-2.1c-2.6,0-4.7-2.1-4.7-4.7v-4.2c0-2.6,2.1-4.7,4.7-4.7h2.1c2.6,0,4.7,2.1,4.7,4.7v4.2
		C36.9,19,34.8,21.1,32.2,21.1z M30.1,8.4c-2,0-3.7,1.7-3.7,3.7v4.2c0,2,1.7,3.7,3.7,3.7h2.1c2,0,3.7-1.7,3.7-3.7v-4.2
		c0-2-1.7-3.7-3.7-3.7H30.1z"/>
	<path class="st1" d="M24.8,29.5c-0.3,0-0.5-0.2-0.5-0.5v-2.1c0-0.3,0.2-0.5,0.5-0.5s0.5,0.2,0.5,0.5V29
		C25.3,29.3,25.1,29.5,24.8,29.5z"/>
	<path class="st1" d="M27.9,24.3c-0.1,0-0.1,0-0.2,0c-0.2-0.1-0.3-0.3-0.3-0.5v-3.2c0-0.3,0.2-0.5,0.5-0.5h3.2
		c0.2,0,0.4,0.1,0.5,0.3c0.1,0.2,0,0.4-0.1,0.6l-3.2,3.2C28.2,24.2,28.1,24.3,27.9,24.3L27.9,24.3z M28.5,21.1v1.4l1.4-1.4H28.5z"/>
	<path class="st1" d="M34.3,24.3c-0.1,0-0.3-0.1-0.4-0.2l-3.2-3.2c-0.2-0.2-0.2-0.4-0.1-0.6c0.1-0.2,0.3-0.3,0.5-0.3h3.2
		c0.3,0,0.5,0.2,0.5,0.5v3.2c0,0.2-0.1,0.4-0.3,0.5C34.4,24.2,34.3,24.3,34.3,24.3z M32.4,21.1l1.4,1.4v-1.4H32.4z"/>
</g>
<path class="st3" d="M27.9,6.9v6.3c0,1.7-1.4,3.2-3.2,3.2h-2.1v-5.3c0-2.3,1.9-4.2,4.2-4.2H27.9z"/>
<path class="st1" d="M24.8,16.9h-2.1c-0.3,0-0.5-0.2-0.5-0.5v-5.3c0-2.6,2.1-4.7,4.7-4.7h1.1c0.3,0,0.5,0.2,0.5,0.5v6.3
	C28.5,15.2,26.8,16.9,24.8,16.9z M23.2,15.8h1.6c1.5,0,2.6-1.2,2.6-2.6V7.4h-0.5c-2,0-3.7,1.7-3.7,3.7V15.8z"/>
<path class="st3" d="M27.9,6.9V9c0,1.7,1.4,3.2,3.2,3.2h6.3v-1.1c0-2.3-1.9-4.2-4.2-4.2H27.9z"/>
<path class="st1" d="M37.4,12.7h-6.3c-2,0-3.7-1.7-3.7-3.7V6.9c0-0.3,0.2-0.5,0.5-0.5h5.3c2.6,0,4.7,2.1,4.7,4.7v1.1
	C38,12.4,37.7,12.7,37.4,12.7z M28.5,7.4V9c0,1.5,1.2,2.6,2.6,2.6h5.8v-0.5c0-2-1.7-3.7-3.7-3.7H28.5z"/>
<path class="st3" d="M39.5,36.4h-2.1V29h4.2v5.3C41.7,35.4,40.7,36.4,39.5,36.4z"/>
<path class="st1" d="M39.5,36.9h-2.1c-0.3,0-0.5-0.2-0.5-0.5V29c0-0.3,0.2-0.5,0.5-0.5h4.2c0.3,0,0.5,0.2,0.5,0.5v5.3
	C42.2,35.7,41,36.9,39.5,36.9z M38,35.9h1.6c0.9,0,1.6-0.7,1.6-1.6v-4.7H38V35.9z"/>
<path class="st3" d="M35.3,36.4h-4.2c-1.7,0-3.2-1.4-3.2-3.2s1.4-3.2,3.2-3.2h4.2c1.7,0,3.2,1.4,3.2,3.2S37.1,36.4,35.3,36.4z"/>
<path class="st1" d="M35.3,36.9h-4.2c-2,0-3.7-1.7-3.7-3.7s1.7-3.7,3.7-3.7h4.2c2,0,3.7,1.7,3.7,3.7S37.4,36.9,35.3,36.9z
	 M31.1,30.6c-1.5,0-2.6,1.2-2.6,2.6s1.2,2.6,2.6,2.6h4.2c1.5,0,2.6-1.2,2.6-2.6s-1.2-2.6-2.6-2.6H31.1z"/>
<circle class="st3" cx="38.5" cy="29" r="3.2"/>
<path class="st1" d="M38.5,32.7c-2,0-3.7-1.7-3.7-3.7s1.7-3.7,3.7-3.7c2,0,3.7,1.7,3.7,3.7S40.5,32.7,38.5,32.7z M38.5,26.4
	c-1.5,0-2.6,1.2-2.6,2.6c0,1.5,1.2,2.6,2.6,2.6c1.5,0,2.6-1.2,2.6-2.6S39.9,26.4,38.5,26.4z"/>
<path class="st3" d="M31.1,32.2h-6.3V29h-4.2v5.3c0,1.2,0.9,2.1,2.1,2.1h8.4c0.6,0,1.1-0.5,1.1-1.1v-2.1
	C32.2,32.6,31.7,32.2,31.1,32.2z"/>
<path class="st1" d="M31.1,36.9h-8.4c-1.5,0-2.6-1.2-2.6-2.6V29c0-0.3,0.2-0.5,0.5-0.5h4.2c0.3,0,0.5,0.2,0.5,0.5v2.6h5.8
	c0.9,0,1.6,0.7,1.6,1.6v2.1C32.7,36.2,32,36.9,31.1,36.9z M21.1,29.5v4.7c0,0.9,0.7,1.6,1.6,1.6h8.4c0.3,0,0.5-0.2,0.5-0.5v-2.1
	c0-0.3-0.2-0.5-0.5-0.5h-6.3c-0.3,0-0.5-0.2-0.5-0.5v-2.6H21.1z"/>
<path class="st0" d="M24.8,42.7H48c0.6,0,1.1,0.5,1.1,1.1v3.2c0,1.2-0.9,2.1-2.1,2.1H25.8c-1.2,0-2.1-0.9-2.1-2.1v-3.2
	C23.7,43.2,24.2,42.7,24.8,42.7L24.8,42.7z"/>
<path class="st1" d="M46.9,49.6H25.8c-1.5,0-2.6-1.2-2.6-2.6v-3.2c0-0.9,0.7-1.6,1.6-1.6H48c0.9,0,1.6,0.7,1.6,1.6v3.2
	C49.6,48.4,48.4,49.6,46.9,49.6z M24.8,43.2c-0.3,0-0.5,0.2-0.5,0.5v3.2c0,0.9,0.7,1.6,1.6,1.6h21.1c0.9,0,1.6-0.7,1.6-1.6v-3.2
	c0-0.3-0.2-0.5-0.5-0.5H24.8z"/>
<path class="st3" d="M46.9,53.3h-6.3V42.7h-5.3c-2.3,0-4.2-1.9-4.2-4.2v-2.1h10.5c2.9,0,5.3,2.4,5.3,5.3V53.3z"/>
<path class="st1" d="M46.9,53.8h-6.3c-0.3,0-0.5-0.2-0.5-0.5v-10h-4.7c-2.6,0-4.7-2.1-4.7-4.7v-2.1c0-0.3,0.2-0.5,0.5-0.5h10.5
	c3.2,0,5.8,2.6,5.8,5.8v11.6C47.5,53.5,47.2,53.8,46.9,53.8z M41.1,52.7h5.3V41.7c0-2.6-2.1-4.7-4.7-4.7h-10v1.6
	c0,2,1.7,3.7,3.7,3.7h5.3c0.3,0,0.5,0.2,0.5,0.5V52.7z"/>
<path class="st3" d="M40.6,53.3h-6.3v-9.5c0-0.6-0.5-1.1-1.1-1.1H29c-2.3,0-4.2-1.9-4.2-4.2v-2.1h10.5c2.9,0,5.3,2.4,5.3,5.3V53.3z"
	/>
<path class="st1" d="M40.6,53.8h-6.3c-0.3,0-0.5-0.2-0.5-0.5v-9.5c0-0.3-0.2-0.5-0.5-0.5H29c-2.6,0-4.7-2.1-4.7-4.7v-2.1
	c0-0.3,0.2-0.5,0.5-0.5h10.5c3.2,0,5.8,2.6,5.8,5.8v11.6C41.1,53.5,40.9,53.8,40.6,53.8z M34.8,52.7h5.3V41.7c0-2.6-2.1-4.7-4.7-4.7
	h-10v1.6c0,2,1.7,3.7,3.7,3.7h4.2c0.9,0,1.6,0.7,1.6,1.6V52.7z"/>
<path class="st3" d="M49,57.5h-7.4c-0.6,0-1.1-0.5-1.1-1.1v-3.2H48c1.2,0,2.1,0.9,2.1,2.1v1.1C50.1,57,49.6,57.5,49,57.5z"/>
<path class="st1" d="M49,58h-7.4c-0.9,0-1.6-0.7-1.6-1.6v-3.2c0-0.3,0.2-0.5,0.5-0.5H48c1.5,0,2.6,1.2,2.6,2.6v1.1
	C50.6,57.3,49.9,58,49,58z M41.1,53.8v2.6c0,0.3,0.2,0.5,0.5,0.5H49c0.3,0,0.5-0.2,0.5-0.5v-1.1c0-0.9-0.7-1.6-1.6-1.6H41.1z"/>
<path class="st3" d="M42.7,57.5h-7.4c-0.6,0-1.1-0.5-1.1-1.1v-3.2h7.4c1.2,0,2.1,0.9,2.1,2.1v1.1C43.8,57,43.3,57.5,42.7,57.5z"/>
<path class="st1" d="M42.7,58h-7.4c-0.9,0-1.6-0.7-1.6-1.6v-3.2c0-0.3,0.2-0.5,0.5-0.5h7.4c1.5,0,2.6,1.2,2.6,2.6v1.1
	C44.3,57.3,43.6,58,42.7,58z M34.8,53.8v2.6c0,0.3,0.2,0.5,0.5,0.5h7.4c0.3,0,0.5-0.2,0.5-0.5v-1.1c0-0.9-0.7-1.6-1.6-1.6H34.8z"/>
<path class="st0" d="M15.3,49h3.2v8.4h-3.2V49z"/>
<path class="st1" d="M18.5,58h-3.2c-0.3,0-0.5-0.2-0.5-0.5V49c0-0.3,0.2-0.5,0.5-0.5h3.2c0.3,0,0.5,0.2,0.5,0.5v8.4
	C19,57.8,18.7,58,18.5,58z M15.8,56.9h2.1v-7.4h-2.1V56.9z"/>
<path class="st0" d="M25.8,49H29v8.4h-3.2V49z"/>
<path class="st1" d="M29,58h-3.2c-0.3,0-0.5-0.2-0.5-0.5V49c0-0.3,0.2-0.5,0.5-0.5H29c0.3,0,0.5,0.2,0.5,0.5v8.4
	C29.5,57.8,29.3,58,29,58L29,58z M26.4,56.9h2.1v-7.4h-2.1V56.9z"/>
</svg>
