<?xml version="1.0" encoding="UTF-8"?>
<svg width="50px" height="72px" viewBox="0 0 50 72" version="1.1" xmlns="http://www.w3.org/2000/svg" xmlns:xlink="http://www.w3.org/1999/xlink">
    <!-- Generator: Sketch 63 (92445) - https://sketch.com -->
    <title>legal-paper</title>
    <desc>Created with Sketch.</desc>
    <g id="Main-Screens" stroke="none" stroke-width="1" fill="none" fill-rule="evenodd">
        <g id="Property-detail-view-new" transform="translate(-825.000000, -5229.000000)" fill="#000000" fill-rule="nonzero">
            <g id="On-site-amenities" transform="translate(-133.000000, 4991.000000)">
                <g id="Amenities-New" transform="translate(175.000000, 198.000000)">
                    <g id="Amenities-Row-1">
                        <g id="Amenities-Row-3" transform="translate(666.000000, 2.000000)">
                            <g id="High-Speed-Internet">
                                <g id="Group-7" transform="translate(10.000000, 38.000000)">
                                    <g id="legal-paper" transform="translate(107.000000, 0.000000)">
                                        <path d="M13.9048733,14.9980748 L36.1998134,14.9980748 C36.6294035,14.9671312 36.9718211,14.5652427 36.9983589,14.0612782 C37.0273092,13.5099551 36.6697731,13.0356134 36.1998134,13.0018396 L13.9048733,13.0018396 C13.8699721,12.9993868 13.8350709,12.9993868 13.8001697,13.0018396 C13.33021,13.035802 12.9728347,13.5101437 13.0016242,14.0612782 C13.0305745,14.6126014 13.4349135,15.0320372 13.9048733,14.9980748 Z" id="Path"></path>
                                        <path d="M16.997693,46.0061485 L16.997693,46 C15.1400483,45.9998463 13.3589853,46.7401186 12.0490997,48.0566534 C10.7364462,49.3693454 9.99938565,51.1494726 10.0000004,53.0053794 C10.001231,56.8696742 13.136314,60.0012286 17.0023063,60 C20.8682987,59.9987692 24.0012288,56.8650628 24.0000004,53.000768 C23.9987683,49.1364732 20.8636853,46.0049188 16.997693,46.0061485 Z M20.791717,56.8017339 C18.6923324,58.8978909 15.2902899,58.8960464 13.1930583,56.7975837 C11.0959804,54.699121 11.0978257,51.2985723 13.1972103,49.2022615 C15.2967486,47.1061045 18.6986373,47.107949 20.795869,49.2064117 L20.795869,49.2002633 C21.8057326,50.207839 22.3714839,51.5767892 22.3675067,53.0030737 C22.3673318,54.4281285 21.8005042,55.7946194 20.791717,56.8017339 Z" id="Shape"></path>
                                        <path d="M41.2073198,25 L7.79269765,25 C7.36712806,25.0310019 7.02791515,25.4336484 7.00162575,25.9385633 C6.97294641,26.4909263 7.32713631,26.9661626 7.79269765,27 L41.2073198,27 C41.6328894,26.9689981 41.9721023,26.5663516 41.9983917,26.0614367 C42.0269117,25.5092628 41.6727218,25.0340265 41.2073198,25 Z" id="Path"></path>
                                        <path d="M49.952384,9.18631492 L49.9269888,9.1247238 L49.9111168,9.09392824 L49.9111168,9.07853046 L49.8888959,9.05081446 L40.6831312,0.120102676 L40.6291664,0.0739093389 L40.594248,0.0554320042 L40.5720272,0.0554320042 L40.5339344,0.0400342252 L40.4958415,0.0400342252 C40.4321948,0.0189392681 40.3660085,0.00554320042 40.2990286,0 L3.06647197,0 L3.06647197,0.00307955579 C1.37499206,0.00816082284 0.00523776268,1.33714312 0,2.97793045 L0,57.6893186 C0.00523776268,59.3301059 1.37515078,60.6590882 3.06647197,60.6641695 L9.65335534,60.6641695 C9.86223097,61.0080019 10.1344359,61.3118 10.456479,61.5603202 L10.456479,71.1223409 C10.4244175,71.3265155 10.4769538,71.5345395 10.6025014,71.7012974 C10.6029776,71.7019133 10.6034537,71.7023753 10.6039299,71.7029912 C10.8977208,72.0499031 11.4257825,72.1002539 11.7833788,71.815241 L16.2815059,68.2337176 L20.7034474,71.7936841 C20.8545489,71.9222555 21.0485049,71.9932393 21.2494445,71.9938552 C21.254841,71.9938552 21.2602374,71.9937012 21.2654752,71.9937012 C21.7159228,71.9835387 22.0725668,71.620921 22.0620913,71.183932 L22.0620913,61.7204571 C22.4620659,61.4386777 22.8017269,61.0840669 23.0620278,60.6764877 L46.9303536,60.6764877 C47.7442702,60.6761797 48.5243794,60.3614491 49.0984699,59.8018938 C49.6746238,59.2457261 49.998889,58.4901571 50,57.7016368 L50,9.42036116 C49.9961907,9.34044668 49.98016,9.26161005 49.952384,9.18631492 Z M41.0735826,2.79931621 L47.4223859,8.95842779 L42.4576217,8.95534823 C42.0906609,8.95519425 41.7389372,8.81338071 41.479906,8.56116509 C41.2199225,8.30987334 41.0737413,7.96865856 41.0735826,7.61266191 L41.0735826,2.79931621 L41.0735826,2.79931621 Z M20.4241001,69.4686195 L16.8021078,66.5584392 C16.4930798,66.3123827 16.0477113,66.3123827 15.7386833,66.5584392 L12.0817726,69.4655399 L12.0817726,62.2716976 C12.0817726,62.2716976 13.1420227,62.4041185 13.7356358,62.0961629 C14.3814678,62.8472666 15.336804,63.2824078 16.344994,63.2848714 C17.3465177,63.2580793 18.2910609,62.8272495 18.9511777,62.0961629 C19.25719,62.2057951 19.5779633,62.2721595 19.9034982,62.2932545 C20.0766618,62.3077284 20.2509364,62.3077284 20.4241001,62.2932545 L20.4241001,69.4686195 Z M24.0397435,55.3734926 C24.4754301,55.9245791 24.5351089,56.6732191 24.1921148,57.2828172 C23.8578503,57.8434503 23.219002,58.1652639 22.5541235,58.1081382 C22.0924068,58.0708755 21.6865596,58.4025437 21.6462447,58.8503111 C21.6854485,59.2124669 21.620532,59.5780101 21.458955,59.9065987 C21.1443718,60.4932541 20.5009206,60.8429377 19.8209637,60.7965904 C19.6278014,60.7828863 19.4381309,60.7391566 19.2590947,60.667249 L19.2400483,60.667249 L19.2178274,60.667249 L19.1924322,60.667249 L19.1321186,60.667249 L19.1130722,60.667249 L18.7353184,60.667249 C18.582471,60.5737845 18.3988318,60.5396014 18.2210653,60.5717828 L18.0813917,60.5717828 L18.0306012,60.5994988 L18.0020316,60.6272148 L17.9766364,60.6580104 L17.9512412,60.6918855 L17.9321948,60.6918855 L17.894102,60.6918855 C17.7236366,61.0452645 17.430798,61.3293535 17.0665355,61.4947257 C16.2075424,61.8847514 15.1852263,61.5252133 14.7831884,60.6918855 C14.5866929,60.2856921 14.0889467,60.1095415 13.6689734,60.2977023 C13.3197892,60.577018 12.871405,60.7122105 12.4204812,60.674024 C11.4703828,60.5936476 10.7672529,59.7812608 10.8501048,58.8595498 C10.8543902,58.8101229 10.8540728,58.7603881 10.8489937,58.7111152 C10.8035998,58.2625779 10.3918799,57.9347592 9.92952828,57.9787968 C9.53193448,58.0099003 9.13545172,57.9056574 8.80832963,57.6840833 C8.03075995,57.1573253 7.84061329,56.1185911 8.38359469,55.364254 C8.41010095,55.3280692 8.4334328,55.2897287 8.45343153,55.2498485 C8.65579963,54.8461187 8.4824773,54.3595489 8.06615453,54.1632272 C7.70347914,53.9978551 7.41159291,53.7146899 7.24112755,53.3628506 C6.8368675,52.528599 7.20620913,51.5343644 8.06615453,51.142183 C8.11472287,51.1198562 8.16106914,51.093218 8.20439972,51.0622685 C8.57739191,50.7965028 8.65770427,50.2876062 8.38359469,49.9257584 C8.15979938,49.6077943 8.0564726,49.2243896 8.09107358,48.8408309 C8.17376674,47.9242011 9.00688845,47.2462369 9.9517491,47.3266133 C10.0026982,47.3307707 10.0539648,47.3304628 10.1047553,47.3255355 C10.5671069,47.2814979 10.9050219,46.8820795 10.859628,46.4335422 C10.8055044,45.7879133 11.1407212,45.1700004 11.7198908,44.8475709 C12.2985842,44.5249875 13.0174275,44.556091 13.5642181,44.9276394 C13.6015174,44.9533537 13.6410387,44.9759884 13.6821472,44.9953896 C14.0983112,45.1917113 14.5998667,45.0235676 14.8022348,44.6196838 C15.0807885,44.0304108 15.68948,43.654397 16.3576916,43.6588624 L16.3576916,43.6527033 C16.9846359,43.7426263 17.5074598,44.1643715 17.7131611,44.7459456 C17.9096565,45.152139 18.4074027,45.3282896 18.827376,45.1401287 C19.3941654,44.7148421 20.1668148,44.6557146 20.795505,44.9892305 C21.3734049,45.3135077 21.7051298,45.9332683 21.6462447,46.5782813 C21.6078344,47.0262027 21.9497175,47.4199239 22.4112755,47.4590342 C22.7845851,47.4210017 23.1613866,47.4838247 23.5000952,47.640728 C23.5661228,47.6741412 23.6299283,47.7117118 23.6910355,47.7532858 C24.4679703,48.2811217 24.6568472,49.3198558 24.1127547,50.0735771 C23.8488033,50.4411221 23.9411783,50.9464772 24.3190909,51.2037741 C24.6628785,51.3517467 24.9573043,51.5894884 25.1698305,51.890515 C25.2063361,51.9470249 25.2393499,52.0056904 25.2687131,52.0660497 C25.6753539,52.902919 25.3055362,53.901157 24.4428925,54.2956481 C24.0257761,54.4861186 23.8456288,54.9677611 24.0397435,55.3734926 Z M48.6096121,57.7108755 C48.6096121,58.0668721 48.4632722,58.4080869 48.2032887,58.6593786 C47.9445749,58.9123642 47.5928512,59.0554095 47.225573,59.0566413 L24.8111231,59.0566413 L24.8111231,59.0474027 C26.1053266,58.199601 26.6359279,56.6043911 26.0967558,55.1825602 C26.261031,55.0507552 26.4121326,54.9041683 26.547997,54.7448013 C27.7390324,53.3476068 27.5369818,51.2782993 26.0967558,50.12285 C26.1696083,49.9311477 26.2240493,49.7332862 26.2591264,49.5317293 C26.5711701,47.7389659 25.326011,46.0402829 23.4778744,45.7375626 C23.4427973,45.5407789 23.3893086,45.3473828 23.318202,45.1599919 C22.6701479,43.453918 20.7193194,42.5805559 18.9607009,43.2092473 C18.8261063,43.051728 18.6767507,42.9068349 18.51438,42.7762617 C17.074154,41.6181948 14.9388928,41.8120528 13.745159,43.2092473 C12.8036315,42.8735757 11.75719,42.9604192 10.8881976,43.4463731 C10.0146022,43.932327 9.4103549,44.7715059 9.24068313,45.734483 C9.03720399,45.7686661 8.8373754,45.8208645 8.64373691,45.8903085 C6.88591201,46.5208476 5.98771507,48.4144664 6.6376738,50.1197704 C6.47339851,50.2515754 6.322297,50.3981623 6.18643261,50.5575293 C4.99539712,51.9547238 5.19744778,54.0240313 6.6376738,55.1794806 C6.09485112,56.5986939 6.61862739,58.1940578 7.90743445,59.0474027 L3.06647197,59.0474027 C2.30175862,59.0440152 1.6827503,58.4435018 1.67925846,57.7016368 L1.67925846,2.97793045 C1.6827503,2.23606546 2.30175862,1.63555208 3.06647197,1.63216457 L39.3816266,1.63216457 L39.3816266,7.62190057 C39.3827376,8.41042083 39.7070027,9.16598985 40.2831566,9.72215762 C40.8561361,10.2790953 41.6337058,10.5925941 42.4449241,10.5936719 L48.6096121,10.5936719 L48.6096121,57.7108755 L48.6096121,57.7108755 Z" id="Shape"></path>
                                        <path d="M41.2369507,43.0018396 L24.8627597,43.0018396 C24.8294776,42.9993868 24.7961955,42.9993868 24.7629134,43.0018396 C24.314755,43.035802 23.9739583,43.5101435 24.0015656,44.0614665 C24.0291729,44.6127894 24.4147547,45.0320364 24.8629131,44.998074 L41.237104,44.998074 C41.6467656,44.9671304 41.9732985,44.5652421 41.9984518,44.0614665 C42.0259057,43.5101435 41.6849557,43.035802 41.2369507,43.0018396 Z" id="Path"></path>
                                        <path d="M41.998379,40.0614665 C42.0269739,39.5101435 41.6738275,39.035802 41.2097967,39.0018396 L7.89362202,39.0018396 C7.85914934,38.9993868 7.82467666,38.9993868 7.79020399,39.0018396 C7.32601429,39.035802 6.97302679,39.5101435 7.00162163,40.0614665 C7.03021648,40.6127894 7.42959119,41.0320364 7.89378088,40.998074 L41.2099555,40.998074 C41.6341124,40.9673191 41.9723259,40.5654307 41.998379,40.0614665 Z" id="Path"></path>
                                        <path d="M13.7702051,17 C13.3567109,17.0310019 13.0271231,17.4336484 13.0015796,17.9385633 C12.973714,18.4909263 13.3178539,18.9661626 13.7702051,19 L35.2297949,19 C35.6432891,18.9689981 35.9728769,18.5663516 35.9984204,18.0614367 C36.026286,17.5090737 35.6821461,17.0338374 35.2297949,17 L13.7702051,17 Z" id="Path"></path>
                                        <path d="M7.89375583,36.9980748 L41.2096446,36.9980748 C41.6339567,36.9671312 41.9721673,36.5652427 41.998379,36.0612782 C42.0269737,35.5099551 41.6738303,35.0356134 41.2096446,35.0018396 L7.89375583,35.0018396 C7.85928345,34.9993868 7.82481107,34.9993868 7.79033869,35.0018396 C7.32615298,35.035802 6.9731685,35.5101437 7.00160424,36.0612782 C7.03019885,36.6126014 7.42957012,37.0320372 7.89375583,36.9980748 Z" id="Path"></path>
                                        <path d="M7.79269726,31 C7.36712788,31.0310019 7.02791514,31.4336484 7.00162575,31.9385633 C6.97294642,32.4909263 7.32713614,32.9661626 7.79269726,33 L41.2073027,33 C41.6328721,32.9689981 41.9720849,32.5663516 41.9983742,32.0614367 C42.0270536,31.5090737 41.6728639,31.0338374 41.2073027,31 L7.79269726,31 Z" id="Path"></path>
                                        <path d="M41.2097999,27.0018396 L7.89375989,27.0018396 C7.85928735,26.9993868 7.82481481,26.9993868 7.79034227,27.0018396 C7.32615446,27.0358024 6.97316838,27.5101488 7.00160425,28.0612887 C7.03019898,28.6126174 7.42957207,29.0318687 7.89360103,28.9980946 L41.209641,28.9980946 C41.6339551,28.9671507 41.9721672,28.5652582 41.998379,28.0612887 C42.0269738,27.5101488 41.6738288,27.0358024 41.2097999,27.0018396 Z" id="Path"></path>
                                    </g>
                                </g>
                            </g>
                        </g>
                    </g>
                </g>
            </g>
        </g>
    </g>
</svg>