<?xml version="1.0" encoding="UTF-8"?>
<svg width="58px" height="58px" viewBox="0 0 58 58" version="1.1" xmlns="http://www.w3.org/2000/svg" xmlns:xlink="http://www.w3.org/1999/xlink">
    <title>outdoor-workspace</title>
    <g id="Main-Screens" stroke="none" stroke-width="1" fill="none" fill-rule="evenodd">
        <g id="Artboard" transform="translate(-1153.000000, -505.000000)" fill="#000000" fill-rule="nonzero">
            <g id="On-site-amenities" transform="translate(-134.000000, 0.000000)">
                <g id="Amenities-New" transform="translate(175.000000, 198.000000)">
                    <g id="Amenities-Row-2" transform="translate(0.000000, 268.000000)">
                        <g id="Space" transform="translate(999.000000, 0.000000)">
                            <g id="Group-7" transform="translate(21.000000, 39.000000)">
                                <g id="outdoor-workspace" transform="translate(92.000000, 0.000000)">
                                    <path d="M49.9501211,38.0312344 C48.6548633,38.0312344 47.425082,38.4460703 46.3937695,39.2309961 C46.0203945,39.5151055 45.9481211,40.048207 46.2322305,40.421582 C46.3994336,40.6412344 46.6527305,40.756668 46.9089727,40.756668 C47.0882969,40.756668 47.269207,40.7000273 47.4229297,40.5830078 C48.1558594,40.0252109 49.0297109,39.7303398 49.9501211,39.7303398 C50.8679258,39.7303398 51.7393984,40.0233984 52.4705156,40.5779102 C52.8443438,40.8615664 53.3772188,40.7882734 53.660875,40.4144453 C53.9445312,40.0406172 53.8712383,39.5076289 53.4974102,39.2240859 C52.4683633,38.4436914 51.2417539,38.0312344 49.9501211,38.0312344 L49.9501211,38.0312344 Z" id="Path"></path>
                                    <path d="M55.0867461,37.8221172 C55.3704023,37.4482891 55.2973359,36.9154141 54.9235078,36.6317578 C53.4799648,35.5364414 51.7602422,34.9573477 49.9501211,34.9573477 C48.1354688,34.9573477 46.4126875,35.538707 44.9677852,36.6385547 C44.5945234,36.9227773 44.5221367,37.4558789 44.8063594,37.8292539 C44.9735625,38.048793 45.2267461,38.1643398 45.4829883,38.1643398 C45.6624258,38.1643398 45.8432227,38.1076992 45.9970586,37.9906797 C47.1435781,37.1179609 48.510543,36.6566797 49.9501211,36.6566797 C51.3861875,36.6566797 52.7507734,37.1161484 53.8962734,37.9854688 C54.2701016,38.269125 54.8030898,38.1959453 55.0867461,37.8221172 L55.0867461,37.8221172 Z" id="Path"></path>
                                    <path d="M56.4567695,35.3042148 C56.7405391,34.9305 56.6675859,34.3975117 56.2938711,34.1137422 C54.4530508,32.7160781 52.2594727,31.9772578 49.9500078,31.9772578 C47.6360117,31.9772578 45.439375,32.7183438 43.5975352,34.1203125 C43.2241602,34.4045352 43.1518867,34.9375234 43.4361094,35.3108984 C43.6033125,35.5305508 43.8564961,35.6459844 44.1127383,35.6459844 C44.2920625,35.6459844 44.4729727,35.5893438 44.6266953,35.4723242 C46.1702656,34.2973711 48.0109727,33.6763633 49.9500078,33.6763633 C51.8851914,33.6763633 53.7236328,34.2955586 55.2662969,35.4668867 C55.6400117,35.7508828 56.1731133,35.678043 56.4567695,35.3042148 L56.4567695,35.3042148 Z" id="Path"></path>
                                    <path d="M56.4707031,52.9023438 L54.1942031,52.9023438 L54.1942031,47.4082031 C54.1942031,46.8148359 53.7113984,46.3320312 53.1180313,46.3320312 L50.7957656,46.3320312 L50.7957656,41.8328398 C50.7957656,41.3636289 50.4153672,40.9832305 49.9461563,40.9832305 C49.4769453,40.9832305 49.0965469,41.3636289 49.0965469,41.8328398 L49.0965469,46.3320312 L46.7742813,46.3320312 C46.1809141,46.3320312 45.6981094,46.8148359 45.6981094,47.4082031 L45.6981094,52.9023438 L39.7428008,52.9023438 L39.7428008,51.5872617 C40.3809141,51.5035469 40.8756133,50.9575312 40.8756133,50.296875 L40.8756133,47.8046875 C40.8756133,47.0863711 40.2911953,46.5019531 39.5728789,46.5019531 L37.590457,46.5019531 L37.590457,45.1425781 L37.6470977,45.1425781 C38.3654141,45.1425781 38.949832,44.5581602 38.949832,43.8398437 L38.949832,40.2148438 C38.949832,39.4965273 38.3654141,38.9121094 37.6470977,38.9121094 L24.9595977,38.9121094 C24.2412812,38.9121094 23.6568633,39.4965273 23.6568633,40.2148438 L23.6568633,43.8398437 C23.6568633,44.5581602 24.2412812,45.1425781 24.9595977,45.1425781 L25.0162383,45.1425781 L25.0162383,46.5019531 L23.0338164,46.5019531 C22.3155,46.5019531 21.731082,47.0863711 21.731082,47.8046875 L21.731082,50.296875 C21.731082,50.9575312 22.2257812,51.5035469 22.8638945,51.5872617 L22.8638945,52.9023438 L11.4414062,52.9023438 L11.4414062,43.6534961 C13.8505586,43.4652227 16.0977187,42.4731055 17.8797461,40.7828359 C20.0103398,38.7620117 21.1835937,36.0325 21.1835937,33.097043 C21.1835937,29.9195039 19.7937461,26.9714727 17.3571797,24.9499688 C18.3526953,23.503707 18.8628008,21.7586094 18.7991367,19.9940273 C18.6465469,15.7591211 15.2124258,12.2882969 10.9810312,12.0923203 C9.63626953,12.0301289 8.28844922,12.2984922 7.08358984,12.8684102 C6.65946484,13.0690313 6.47821484,13.575625 6.67883594,13.99975 C6.87945703,14.423875 7.38616406,14.6050117 7.81017578,14.4045039 C8.77839062,13.9465078 9.81853906,13.7393164 10.9024141,13.7898398 C14.2572383,13.9452617 16.9799531,16.6973164 17.1009375,20.0553125 C17.1558789,21.5783789 16.6992422,23.0222617 15.7803047,24.2311992 C15.3472305,24.8011172 15.4551875,25.6200273 16.0208008,26.0567266 C18.2219687,27.7563984 19.484375,30.3225586 19.484375,33.097043 C19.484375,35.5615898 18.4992812,37.8532695 16.710457,39.5499961 C15.2483359,40.9368984 13.4129531,41.7654375 11.4414062,41.9496328 L11.4414062,31.1317266 L12.9594883,31.1317266 C13.4514687,31.1317266 13.9141094,30.940168 14.2622227,30.592168 L15.6575078,29.1968828 C15.9893086,28.865082 15.9893086,28.3271094 15.6575078,27.9954219 C15.325707,27.6636211 14.7877344,27.6636211 14.4560469,27.9954219 L13.060875,29.3905938 C13.0338008,29.417668 12.9978906,29.4326211 12.9596016,29.4326211 L11.4414062,29.4326211 L11.4414062,18.9330352 C11.4414062,18.4638242 11.0610078,18.0834258 10.5917969,18.0834258 C10.1225859,18.0834258 9.7421875,18.4638242 9.7421875,18.9330352 L9.7421875,21.0444844 L8.99804297,21.0444844 C8.94604687,21.0444844 8.89710937,21.024207 8.86029297,20.9875039 L7.41686328,19.5440742 C7.0850625,19.2122734 6.54708984,19.2122734 6.21540234,19.5440742 C5.88360156,19.875875 5.88360156,20.4138477 6.21540234,20.7455352 L7.65883203,22.1889648 C8.01657422,22.546707 8.49212891,22.7437031 8.99804297,22.7437031 L9.7421875,22.7437031 L9.7421875,34.8056641 L7.13343359,34.8056641 C6.80514453,34.8056641 6.49611328,34.6309844 6.32687109,34.3495937 L4.78341406,31.7830937 C4.54155859,31.3809453 4.01955859,31.2510117 3.61752344,31.4928672 C3.215375,31.7347227 3.08544141,32.2567227 3.32729687,32.6587578 L4.87075391,35.2252578 C5.34528906,36.0144883 6.21234375,36.5047695 7.13343359,36.5047695 L9.7421875,36.5047695 L9.7421875,41.9482734 C5.33407422,41.5301523 1.83357031,37.8283477 1.70307031,33.3634805 C1.62014844,30.5244258 2.91382031,27.7925352 5.16369922,26.0555937 C5.72953906,25.618668 5.83942187,24.8032695 5.4085,24.2379961 C4.53816016,23.0964609 4.078125,21.7333477 4.078125,20.2962617 C4.078125,18.8948594 4.51607031,17.5600664 5.34472266,16.4358633 C5.62316797,16.0581836 5.542625,15.5263281 5.16494531,15.2478828 C4.78726562,14.9695508 4.25541016,15.0498672 3.97696484,15.4276602 C2.93149219,16.8458281 2.37890625,18.5294141 2.37890625,20.2962617 C2.37890625,21.9772422 2.87802344,23.5780195 3.82630078,24.9504219 C1.33207422,27.025168 -0.0903984375,30.16 0.00464453125,33.4132109 C0.161539062,38.7855742 4.41558984,43.2290312 9.7421875,43.65225 L9.7421875,52.9023437 L1.52929687,52.9023437 C0.68603125,52.9023437 -3.21964677e-15,53.588375 -3.21964677e-15,54.4316406 C-3.21964677e-15,56.3992227 1.60077734,58 3.56835937,58 L19.7952187,58 C20.2644297,58 20.6448281,57.6196016 20.6448281,57.1503906 C20.6448281,56.6811797 20.2644297,56.3007812 19.7952187,56.3007812 L3.56835937,56.3007812 C2.59493359,56.3007812 1.79301562,55.5528984 1.70680859,54.6015625 L56.2930781,54.6015625 C56.2069844,55.5528984 55.4049531,56.3007812 54.4315273,56.3007812 L23.8152305,56.3007812 C23.3460195,56.3007812 22.9656211,56.6811797 22.9656211,57.1503906 C22.9656211,57.6196016 23.3460195,58 23.8152305,58 L54.4316406,58 C56.3992227,58 58,56.3992227 58,54.4316406 C58,53.588375 57.3139688,52.9023437 56.4707031,52.9023438 Z M25.356082,40.6113281 L37.2506133,40.6113281 L37.2506133,43.4433594 L25.356082,43.4433594 L25.356082,40.6113281 Z M26.715457,45.1425781 L35.8912383,45.1425781 L35.8912383,46.5019531 L26.715457,46.5019531 L26.715457,45.1425781 Z M23.4303008,48.2011719 L39.1763945,48.2011719 L39.1763945,49.9003906 L23.4303008,49.9003906 L23.4303008,48.2011719 Z M24.5631133,51.5996094 L38.043582,51.5996094 L38.043582,52.9023438 L24.5631133,52.9023438 L24.5631133,51.5996094 Z M47.3973281,52.9023438 L47.3973281,48.03125 L52.4949844,48.03125 L52.4949844,52.9023438 L47.3973281,52.9023438 Z" id="Shape"></path>
                                    <path d="M51.0898438,48.9941406 L48.8242188,48.9941406 C48.3550078,48.9941406 47.9746094,49.3745391 47.9746094,49.84375 C47.9746094,50.3129609 48.3550078,50.6933594 48.8242188,50.6933594 L51.0898438,50.6933594 C51.5590547,50.6933594 51.9394531,50.3129609 51.9394531,49.84375 C51.9394531,49.3745391 51.5590547,48.9941406 51.0898438,48.9941406 Z" id="Path"></path>
                                    <path d="M47.8540781,2.83203125 C48.3232891,2.83203125 48.7036875,2.45163281 48.7036875,1.98242187 L48.7036875,0.849609375 C48.7036875,0.380398437 48.3232891,0 47.8540781,0 C47.3848672,0 47.0044688,0.380398437 47.0044688,0.849609375 L47.0044688,1.98242187 C47.0044688,2.45163281 47.3848672,2.83203125 47.8540781,2.83203125 Z" id="Path"></path>
                                    <path d="M52.8203281,4.88910547 C53.0377148,4.88910547 53.2552148,4.80618359 53.4210586,4.64033984 L54.2220703,3.83932813 C54.5538711,3.50752734 54.5538711,2.96955469 54.2220703,2.63775391 C53.8902695,2.30595313 53.3522969,2.30606641 53.0204961,2.63775391 L52.2194844,3.43876563 C51.8876836,3.77056641 51.8876836,4.30853906 52.2194844,4.64033984 C52.3855547,4.80618359 52.6029414,4.88910547 52.8203281,4.88910547 L52.8203281,4.88910547 Z" id="Path"></path>
                                    <path d="M54.0279063,9.00585938 C54.0279063,9.47507031 54.4083047,9.85546875 54.8775156,9.85546875 L56.0103281,9.85546875 C56.4795391,9.85546875 56.8599375,9.47507031 56.8599375,9.00585938 C56.8599375,8.53664844 56.4795391,8.15625 56.0103281,8.15625 L54.8775156,8.15625 C54.4083047,8.15625 54.0279063,8.53664844 54.0279063,9.00585938 Z" id="Path"></path>
                                    <path d="M54.2221836,15.3739648 C54.5539844,15.0421641 54.5538711,14.5041914 54.2221836,14.1723906 L53.4211719,13.3713789 C53.0892578,13.0395781 52.5515117,13.0396914 52.2195977,13.3713789 C51.8877969,13.7031797 51.8879102,14.2411523 52.2195977,14.5729531 L53.0206094,15.3739648 C53.1865664,15.5398086 53.4039531,15.6227305 53.6213398,15.6227305 C53.8387266,15.6227305 54.0563398,15.5398086 54.2221836,15.3739648 L54.2221836,15.3739648 Z" id="Path"></path>
                                    <path d="M42.2869844,4.64022656 C42.4528281,4.80607031 42.6703281,4.88910547 42.8877148,4.88910547 C43.1051016,4.88910547 43.3226016,4.80618359 43.4884453,4.64022656 C43.8202461,4.30842578 43.8202461,3.77045313 43.4884453,3.43876562 L42.6874336,2.63775391 C42.3556328,2.30595312 41.8176602,2.30595312 41.4859727,2.63775391 C41.1541719,2.96955469 41.1541719,3.50752734 41.4859727,3.83921484 L42.2869844,4.64022656 Z" id="Path"></path>
                                    <path d="M22.3221836,16.5007734 L39.6571602,16.5007734 C40.1263711,16.5007734 40.5067695,16.120375 40.5067695,15.6511641 C40.5067695,15.1819531 40.1263711,14.8015547 39.6571602,14.8015547 L23.00425,14.8015547 C23.3681094,14.0049609 24.1675352,13.4720859 25.085793,13.4720859 C25.2084766,13.4720859 25.3356914,13.4829609 25.4635859,13.5044844 C25.685957,13.5414141 25.914332,13.4889648 26.0980742,13.3577852 C26.2817031,13.2266055 26.4055195,13.0276836 26.4423359,12.8050859 C26.7087734,11.1926406 28.0896719,10.022332 29.725793,10.022332 C30.0801367,10.022332 30.4306289,10.0786328 30.7674141,10.1897617 C31.0068906,10.2684922 31.2687969,10.2371133 31.4826719,10.1040078 C31.6965469,9.97078906 31.8403008,9.7494375 31.8749648,9.49987891 C32.1645117,7.41584375 33.9713477,5.84429297 36.0778125,5.84429297 C38.4182031,5.84429297 40.3222344,7.74889062 40.3222344,10.0898477 C40.3222344,10.2597695 40.3113594,10.4349023 40.2900625,10.6107148 C40.2499609,10.9403633 40.4057227,11.2631016 40.6885859,11.4369883 C40.9713359,11.610875 41.3296445,11.6041914 41.6057109,11.419543 C42.075375,11.1055273 42.6251289,10.9395703 43.1955,10.9395703 C44.5154531,10.9395703 45.6606133,11.8325664 45.980293,13.1111719 C46.0414648,13.3560859 46.2083281,13.5610117 46.4356836,13.6705547 C46.6630391,13.7802109 46.9273242,13.7829297 47.1569453,13.6782578 C47.4564609,13.5417539 47.7754609,13.4725391 48.1054492,13.4725391 C48.4305664,13.4725391 48.7402773,13.5405078 49.0215547,13.6621719 C49.0412656,13.6720273 49.0616562,13.6800703 49.0820469,13.6883398 C49.5675703,13.9152422 49.9613359,14.3076484 50.1871055,14.8018945 L43.663125,14.8018945 C43.1939141,14.8018945 42.8135156,15.182293 42.8135156,15.6515039 C42.8135156,16.1207148 43.1939141,16.5011133 43.663125,16.5011133 L50.8691719,16.5011133 C51.2180781,16.5011133 51.5480664,16.34875 51.7745156,16.0829922 C52.000625,15.8176875 52.0987266,15.4683281 52.0435586,15.1244062 C51.9086406,14.2846523 51.5218984,13.5448125 50.9676133,12.9751211 C52.1690742,12.0376055 52.8956602,10.5920234 52.8956602,9.00619922 C52.8956602,6.22650391 50.6343398,3.96518359 47.8546445,3.96518359 C45.0749492,3.96518359 42.8136289,6.22650391 42.8136289,9.00619922 C42.8136289,9.09002734 42.8180469,9.17351563 42.822125,9.25711719 C42.5367695,9.28022656 42.2556055,9.32803125 41.9822578,9.40313672 C41.6407148,6.44751563 39.1231523,4.1451875 36.0780391,4.1451875 C33.4396055,4.1451875 31.1367109,5.90648438 30.3896211,8.36729297 C30.170082,8.33806641 29.9485039,8.32333984 29.7260195,8.32333984 C27.5171484,8.32333984 25.6162891,9.73584375 24.9498555,11.7754727 C23.0403867,11.8386836 21.45275,13.2275117 21.1479102,15.1244062 C21.0927422,15.4682148 21.1907305,15.8175742 21.4169531,16.0828789 C21.6432891,16.3484102 21.9732773,16.5007734 22.3221836,16.5007734 Z M47.8545312,5.6640625 C49.6972773,5.6640625 51.1963281,7.16311328 51.1963281,9.00585938 C51.1963281,10.2766484 50.4922852,11.4105938 49.3795234,11.9789258 C48.9786211,11.8453672 48.5503047,11.7729805 48.1055625,11.7729805 C47.8411641,11.7729805 47.5805039,11.798582 47.3253945,11.849332 C46.7751875,10.6860469 45.7596211,9.81683984 44.5416211,9.44278516 C44.5228164,9.29823828 44.5127344,9.15233203 44.5127344,9.00585938 C44.5127344,7.16311328 46.0117852,5.6640625 47.8545312,5.6640625 L47.8545312,5.6640625 Z" id="Shape"></path>
                                </g>
                            </g>
                        </g>
                    </g>
                </g>
            </g>
        </g>
    </g>
</svg>