<?xml version="1.0" encoding="utf-8"?>
<!-- Generator: Adobe Illustrator 24.0.0, SVG Export Plug-In . SVG Version: 6.00 Build 0)  -->
<svg version="1.1" id="Capa_1" xmlns="http://www.w3.org/2000/svg" xmlns:xlink="http://www.w3.org/1999/xlink" x="0px" y="0px"
	 viewBox="0 0 68.7 58" style="enable-background:new 0 0 68.7 58;" xml:space="preserve">
<g>
	<g>
		<path d="M57.5,5.6h-3.4c-0.5,0-0.8,0.3-0.8,0.7h0v10.8c0,0.5,0.5,0.7,1.1,0.7c0.5,0,1.1-0.2,1.1-0.7v-3.9h1.9
			c2.2,0,3.9-1.1,3.9-3.8V9.3C61.2,6.6,59.6,5.6,57.5,5.6z M59.1,9.6c0,1.3-0.7,1.9-1.8,1.9h-1.9v-4h1.9c1.1,0,1.8,0.6,1.8,1.9
			L59.1,9.6L59.1,9.6z"/>
	</g>
</g>
<g>
	<g>
		<path d="M48.2,36.9c-0.4-0.2-0.8-0.5-1.2-0.8l-6.5-4.4c-2-1.3-4.3-2-6.6-2H21.9c-3.2,0-6.1,1.2-8.4,3.5c-1.1,1.1-2.5,2.1-3.9,2.8
			c-0.8,0.4-1.4,1.3-1.4,2.3c0,1.4,1.1,2.5,2.5,2.5h4.1c0.5,0,1-0.4,1-1c0-0.5-0.4-1-1-1h-4.1c-0.3,0-0.6-0.3-0.6-0.6
			c0-0.2,0.1-0.4,0.3-0.5c1.6-0.8,3.1-1.9,4.4-3.2c1.9-1.9,4.3-2.9,7-2.9h2.7v7.2h-3.3c-0.5,0-1,0.4-1,1c0,0.5,0.4,1,1,1h26.8
			c0.8,0,1.5-0.7,1.5-1.5C49.7,38.4,49.1,37.4,48.2,36.9z M26.6,38.9v-7.2h7.3c2,0,3.9,0.6,5.5,1.7l6.5,4.4c0.4,0.3,0.9,0.6,1.4,0.9
			c0.1,0.1,0.2,0.2,0.3,0.3H26.6z"/>
	</g>
</g>
<g>
	<g>
		<path d="M29,42.3h-3c-0.5,0-1,0.4-1,1c0,0.5,0.4,1,1,1h3c0.5,0,1-0.4,1-1C30,42.8,29.5,42.3,29,42.3z"/>
	</g>
</g>
<g>
	<g>
		<path d="M67.9,41.5L67.6,41c-1.2-1.9-3.1-3.3-5.3-3.7l-2.5-0.5V24h6.5c1.3,0,2.4-1.1,2.4-2.4V2.4c0-1.3-1.1-2.4-2.4-2.4H47.2
			c-1.3,0-2.4,1.1-2.4,2.4v7.2c0,0.5,0.4,1,1,1s1-0.4,1-1V2.4c0-0.3,0.2-0.5,0.5-0.5h19.1c0.3,0,0.5,0.2,0.5,0.5v19.1
			c0,0.3-0.2,0.5-0.5,0.5H47.2c-0.3,0-0.5-0.2-0.5-0.5V16c0-0.5-0.4-1-1-1c-0.5,0-1,0.4-1,1v5.5c0,1.3,1.1,2.4,2.4,2.4h7.4v11.8
			l-1.3-0.3c-1.8-0.4-3.5-1.4-4.7-2.2l-6.5-4.4c-2.5-1.7-5.3-2.5-8.3-2.5H21.9c-4,0-7.7,1.5-10.5,4.3c-1.8,1.8-4,3-6.5,3.5l-1.4,0.3
			C1.5,34.9,0,36.8,0,38.9v9.5c0,1.1,0.7,2.2,1.7,2.6l3.9,1.7c0.2,1.2,0.8,2.4,1.8,3.4C8.7,57.4,10.3,58,12,58s3.3-0.6,4.6-1.9
			c0.8-0.8,1.4-1.8,1.7-2.8h32.5c0.3,1,0.8,2,1.7,2.8c1.2,1.2,2.9,1.9,4.6,1.9c1.7,0,3.4-0.7,4.6-1.9c0.8-0.8,1.4-1.8,1.7-2.8h1.9
			c2,0,3.6-1.6,3.6-3.6v-5.1C68.7,43.5,68.4,42.4,67.9,41.5z M56.6,24h1.2v12.4l-1.2-0.2V24z M15.2,54.7c-0.9,0.9-2,1.3-3.2,1.3
			s-2.4-0.5-3.2-1.3c-1.4-1.4-1.7-3.4-0.9-5.1c0,0,0,0,0,0c0,0,0-0.1,0.1-0.1c0,0,0,0,0-0.1c0,0,0-0.1,0.1-0.1c0,0,0-0.1,0.1-0.1
			c0,0,0-0.1,0.1-0.1c0,0,0-0.1,0.1-0.1c0,0,0-0.1,0.1-0.1c0,0,0.1-0.1,0.1-0.1c0,0,0-0.1,0.1-0.1c0,0,0.1-0.1,0.1-0.1
			c0,0,0,0,0.1-0.1c0-0.1,0.1-0.1,0.2-0.2c0,0,0,0,0,0c0,0,0,0,0,0c0,0,0.1-0.1,0.1-0.1c0,0,0,0,0,0c0,0,0.1-0.1,0.1-0.1
			c0,0,0,0,0,0c1.7-1.3,4.1-1.3,5.7,0c0,0,0,0,0,0c0.1,0,0.1,0.1,0.1,0.1c0,0,0,0,0,0c0.1,0.1,0.1,0.1,0.2,0.2
			c0.1,0.1,0.1,0.1,0.2,0.2c0,0,0,0.1,0.1,0.1c0,0,0.1,0.1,0.1,0.1c0,0,0.1,0.1,0.1,0.1c0,0,0,0,0,0.1c0,0,0.1,0.1,0.1,0.1
			c0,0,0,0,0,0C16.9,50.8,16.7,53.2,15.2,54.7z M60.2,54.7c-0.9,0.9-2,1.3-3.2,1.3s-2.4-0.5-3.2-1.3c-1.5-1.5-1.7-3.9-0.6-5.7
			c0,0,0,0,0,0c0-0.1,0.1-0.1,0.1-0.2c0,0,0,0,0-0.1c0,0,0.1-0.1,0.1-0.1c0,0,0.1-0.1,0.1-0.1c0,0,0-0.1,0.1-0.1
			c0.1-0.1,0.1-0.1,0.2-0.2c0.9-0.9,2-1.3,3.2-1.3s2.4,0.5,3.2,1.3c0.1,0.1,0.1,0.1,0.2,0.2c0,0,0,0.1,0.1,0.1c0,0,0.1,0.1,0.1,0.1
			c0,0,0.1,0.1,0.1,0.1c0,0,0,0,0,0.1c0,0,0.1,0.1,0.1,0.1c0,0,0,0,0,0C61.9,50.8,61.7,53.2,60.2,54.7z M66.8,49.6L66.8,49.6
			c0,0.9-0.8,1.7-1.7,1.7h-1.6c0-1.4-0.5-2.8-1.4-3.9c0,0,0,0,0,0c-0.1-0.1-0.1-0.1-0.2-0.2c0,0,0,0,0-0.1c-0.1-0.1-0.1-0.1-0.2-0.2
			c0,0,0,0,0,0c-0.8-0.8-1.9-1.4-3-1.7c-0.5-0.1-1-0.2-1.6-0.2c-0.4,0-0.9,0-1.3,0.1c-1.2,0.2-2.4,0.9-3.3,1.8c0,0,0,0,0,0
			c-0.1,0.1-0.1,0.1-0.2,0.2c0,0,0,0,0,0c-0.1,0.1-0.1,0.1-0.2,0.2c0,0,0,0,0,0c-0.9,1.1-1.4,2.5-1.4,3.9h-32c0-1.4-0.5-2.8-1.4-3.9
			c0,0,0,0,0,0c-0.1-0.1-0.1-0.1-0.2-0.2c0,0,0,0,0,0c-0.1-0.1-0.1-0.2-0.2-0.2c-0.3-0.3-0.7-0.6-1-0.8C14.5,45.4,13.2,45,12,45
			c-1.7,0-3.3,0.6-4.6,1.9c-0.1,0.1-0.1,0.1-0.2,0.2c0,0,0,0-0.1,0.1c0,0.1-0.1,0.1-0.1,0.2c0,0,0,0-0.1,0.1c0,0.1-0.1,0.1-0.1,0.2
			c0,0,0,0,0,0.1c-0.1,0.2-0.2,0.3-0.3,0.5c0,0,0,0,0,0c-0.1,0.1-0.1,0.2-0.1,0.3c0,0,0,0,0,0c-0.3,0.6-0.6,1.4-0.7,2.1l-3.1-1.4
			C2.2,49.1,2,48.7,2,48.4v-9.5c0-1.2,0.9-2.3,2.1-2.5l1.4-0.3c2.8-0.6,5.4-2,7.4-4c2.4-2.4,5.7-3.8,9.1-3.8h11.9
			c2.6,0,5.1,0.8,7.2,2.2l6.5,4.4c1.3,0.9,3.3,2.1,5.4,2.5l8.9,1.8c1.7,0.3,3.1,1.4,4,2.8l0.3,0.5c0.4,0.6,0.6,1.3,0.6,2V49.6z"/>
	</g>
</g>
<g>
	<g>
		<path d="M14.1,49.4c-0.6-0.6-1.3-0.9-2.1-0.9c-0.8,0-1.5,0.3-2.1,0.9C9.3,50,9,50.7,9,51.5c0,0.8,0.3,1.5,0.9,2.1
			c0.6,0.6,1.3,0.9,2.1,0.9c0.8,0,1.5-0.3,2.1-0.9C15.2,52.4,15.2,50.6,14.1,49.4z M12.7,52.2c-0.2,0.2-0.4,0.3-0.7,0.3
			c-0.3,0-0.5-0.1-0.7-0.3C11.1,52,11,51.8,11,51.5c0-0.3,0.1-0.5,0.3-0.7c0.2-0.2,0.4-0.3,0.7-0.3c0.3,0,0.5,0.1,0.7,0.3
			C13.1,51.2,13.1,51.8,12.7,52.2z"/>
	</g>
</g>
<g>
	<g>
		<path d="M59.1,49.4c-0.6-0.6-1.3-0.9-2.1-0.9c-0.8,0-1.5,0.3-2.1,0.9c-1.2,1.2-1.2,3,0,4.2c0.6,0.6,1.3,0.9,2.1,0.9
			c0.8,0,1.5-0.3,2.1-0.9c0.6-0.6,0.9-1.3,0.9-2.1C60,50.7,59.7,50,59.1,49.4z M57.7,52.2c-0.2,0.2-0.4,0.3-0.7,0.3
			c-0.3,0-0.5-0.1-0.7-0.3c-0.4-0.4-0.4-1,0-1.4c0.2-0.2,0.4-0.3,0.7-0.3c0.3,0,0.5,0.1,0.7,0.3c0.2,0.2,0.3,0.4,0.3,0.7
			C58,51.8,57.9,52,57.7,52.2z"/>
	</g>
</g>
</svg>
