<?xml version="1.0" standalone="no"?>
<!DOCTYPE svg PUBLIC "-//W3C//DTD SVG 20010904//EN"
 "http://www.w3.org/TR/2001/REC-SVG-20010904/DTD/svg10.dtd">
<svg version="1.0" xmlns="http://www.w3.org/2000/svg"
 width="512.000000pt" height="512.000000pt" viewBox="0 0 512.000000 512.000000"
 preserveAspectRatio="xMidYMid meet">

<g transform="translate(0.000000,512.000000) scale(0.100000,-0.100000)"
fill="#000000" stroke="none">
<path d="M702 5107 c-50 -19 -102 -65 -123 -111 -15 -34 -19 -66 -19 -184 0
-98 4 -153 13 -175 20 -46 62 -92 102 -111 l35 -17 0 -1949 0 -1949 -35 -17
c-40 -19 -82 -65 -102 -111 -9 -22 -13 -77 -13 -175 0 -117 4 -150 19 -184 22
-49 78 -97 130 -113 28 -8 393 -11 1337 -11 l1299 0 50 24 c59 27 77 46 104
106 17 38 21 66 21 176 0 72 -5 146 -11 165 -17 51 -56 97 -100 119 l-39 20 0
233 0 233 58 28 c131 65 330 232 451 380 225 275 458 708 572 1064 189 591
127 1129 -158 1368 -196 165 -385 228 -611 205 -141 -15 -215 -63 -241 -157
-16 -58 -15 -753 2 -790 36 -84 94 -128 251 -193 100 -42 111 -49 114 -74 7
-61 -66 -259 -180 -487 -76 -153 -196 -347 -237 -384 l-21 -19 0 1246 0 1247
39 20 c44 22 83 68 100 119 6 19 11 93 11 165 0 110 -4 138 -21 176 -27 60
-45 79 -104 106 l-50 24 -1305 -1 c-978 0 -1313 -3 -1338 -12z m2616 -189 c8
-8 12 -47 12 -110 0 -86 -2 -98 -19 -108 -30 -16 -2533 -14 -2549 2 -16 16
-16 200 0 216 17 17 2539 17 2556 0z m-138 -1703 c0 -707 -3 -1285 -7 -1285
-5 0 -36 12 -70 26 l-63 27 0 44 c0 24 -7 59 -15 79 -26 62 -40 64 -440 64
-378 0 -410 -4 -434 -48 -15 -29 -15 -1375 0 -1404 24 -44 56 -48 434 -48 400
0 414 2 440 64 10 23 15 71 15 140 0 117 -4 110 83 121 l57 7 0 -191 0 -191
-1140 0 -1140 0 0 1940 0 1940 1140 0 1140 0 0 -1285z m724 700 c135 -35 294
-151 356 -260 87 -151 124 -374 101 -605 -30 -301 -129 -598 -319 -960 -314
-596 -659 -892 -1069 -917 -121 -7 -226 8 -334 47 -112 41 -239 128 -239 164
0 17 394 457 421 470 14 7 54 -6 157 -52 75 -33 158 -65 182 -71 152 -34 323
78 481 318 81 121 228 411 287 563 83 215 94 348 37 428 -34 47 -61 64 -188
116 -48 20 -102 46 -120 58 -31 21 -32 24 -35 101 -2 44 -1 198 3 342 6 231 9
262 24 266 40 11 202 6 255 -8z m-1270 -1967 c-91 -103 -297 -328 -300 -328
-2 0 -4 79 -4 175 l0 175 162 0 161 0 -19 -22z m-132 -882 c81 -38 194 -70
281 -81 l57 -7 0 -54 0 -54 -255 0 -255 0 0 150 0 150 49 -35 c27 -19 82 -51
123 -69z m809 -646 c17 -10 19 -22 19 -108 0 -63 -4 -102 -12 -110 -17 -17
-2539 -17 -2556 0 -16 16 -16 200 0 216 16 16 2519 18 2549 2z"/>
<path d="M1105 4451 c-11 -5 -29 -19 -40 -31 -19 -21 -20 -36 -20 -266 l0
-244 28 -27 27 -28 940 0 940 0 27 28 28 27 0 245 0 245 -28 27 -27 28 -928 2
c-510 1 -936 -2 -947 -6z m1735 -296 l0 -105 -800 0 -800 0 0 105 0 105 800 0
800 0 0 -105z"/>
<path d="M1078 3721 l-33 -29 -3 -659 c-2 -362 0 -673 3 -692 4 -18 17 -44 30
-57 l24 -24 395 0 394 0 26 31 26 31 0 679 c0 448 -4 687 -10 700 -26 47 -45
49 -444 49 l-376 0 -32 -29z m672 -716 l0 -555 -255 0 -255 0 0 555 0 555 255
0 255 0 0 -555z"/>
<path d="M2194 3740 c-56 -23 -54 4 -54 -741 l0 -686 26 -27 27 -26 392 0 392
0 26 24 c14 13 28 39 32 57 3 19 5 330 3 691 l-3 658 -28 27 -27 28 -383 2
c-210 1 -392 -2 -403 -7z m646 -735 l0 -555 -255 0 -255 0 0 555 0 555 255 0
255 0 0 -555z"/>
<path d="M1114 2163 c-12 -2 -32 -15 -45 -29 l-24 -26 0 -689 0 -689 28 -27
27 -28 353 -3 c193 -2 371 -1 394 3 25 4 51 16 67 32 l26 26 0 684 c0 754 3
720 -62 742 -30 11 -714 14 -764 4z m636 -743 l0 -550 -255 0 -255 0 0 550 0
550 255 0 255 0 0 -550z"/>
</g>
</svg>
