<?xml version="1.0" encoding="UTF-8"?>
<svg width="40px" height="58px" viewBox="0 0 40 58" version="1.1" xmlns="http://www.w3.org/2000/svg" xmlns:xlink="http://www.w3.org/1999/xlink">
    <title>phone-booth</title>
    <g id="Main-Screens" stroke="none" stroke-width="1" fill="none" fill-rule="evenodd">
        <g id="Artboard" transform="translate(-220.000000, -237.000000)" fill="#000000" fill-rule="nonzero">
            <g id="phone-booth" transform="translate(220.000000, 237.000000)">
                <path d="M15.3831406,16.1426914 C15.3831406,15.3797422 15.177875,14.6307266 14.7898867,13.9768672 L13.3287852,14.8441484 C13.5612383,15.2356484 13.6840352,15.6846953 13.6840352,16.1426914 C13.6840352,17.0497344 13.1954531,17.8959453 12.4088281,18.3508828 L11.9847031,18.59625 L11.9847031,25.5834375 L12.4088281,25.828918 C13.1953398,26.2839687 13.6840352,27.1300664 13.6840352,28.0371094 C13.6840352,29.4425898 12.5405742,30.5860508 11.135207,30.5860508 C9.72972656,30.5860508 8.58626562,29.4425898 8.58626562,28.0371094 C8.58626562,27.1300664 9.07484766,26.2838555 9.86147266,25.828918 L10.2855977,25.5834375 L10.2855977,18.59625 L9.86147266,18.3508828 C9.07496094,17.895832 8.58626562,17.0497344 8.58626562,16.1426914 C8.58626562,14.7372109 9.72972656,13.59375 11.135207,13.59375 C11.5932031,13.59375 12.0421367,13.7165469 12.4335234,13.949 L13.300918,12.4878984 C12.6471719,12.0997969 11.8982695,11.8946445 11.135207,11.8946445 C8.79277734,11.8946445 6.88704688,13.800375 6.88704688,16.1428047 C6.88704688,17.4837148 7.52742578,18.7445352 8.58637891,19.5411289 L8.58637891,24.6388984 C7.52742578,25.4354922 6.88704688,26.6963125 6.88704688,28.0372227 C6.88704688,30.3796523 8.79277734,32.2853828 11.135207,32.2853828 C13.4776367,32.2853828 15.3832539,30.3796523 15.3832539,28.0372227 C15.3832539,26.6961992 14.7429883,25.4354922 13.6839219,24.6388984 L13.6839219,19.5410156 C14.742875,18.7444219 15.3831406,17.4837148 15.3831406,16.1426914 L15.3831406,16.1426914 Z" id="Path"></path>
                <polygon id="Path" points="23.8121719 24.6386719 25.5113906 24.6386719 25.5113906 26.3378906 23.8121719 26.3378906"></polygon>
                <polygon id="Path" points="23.8121719 17.8419102 25.5113906 17.8419102 25.5113906 19.5411289 23.8121719 19.5411289"></polygon>
                <polygon id="Path" points="27.2106094 21.2402344 28.9098281 21.2402344 28.9098281 22.9394531 27.2106094 22.9394531"></polygon>
                <polygon id="Path" points="23.8121719 21.2402344 25.5113906 21.2402344 25.5113906 22.9394531 23.8121719 22.9394531"></polygon>
                <polygon id="Path" points="27.2106094 17.8419102 28.9098281 17.8419102 28.9098281 19.5411289 27.2106094 19.5411289"></polygon>
                <polygon id="Path" points="20.4137344 21.2402344 22.1129531 21.2402344 22.1129531 22.9394531 20.4137344 22.9394531"></polygon>
                <polygon id="Path" points="20.4137344 24.6386719 22.1129531 24.6386719 22.1129531 26.3378906 20.4137344 26.3378906"></polygon>
                <polygon id="Path" points="20.4137344 17.8419102 22.1129531 17.8419102 22.1129531 19.5411289 20.4137344 19.5411289"></polygon>
                <polygon id="Path" points="27.2106094 24.6386719 28.9098281 24.6386719 28.9098281 26.3378906 27.2106094 26.3378906"></polygon>
                <polygon id="Path" points="32.3082656 13.5938633 17.0152969 13.5938633 17.0152969 24.6386719 18.7145156 24.6386719 18.7145156 15.293082 30.6090469 15.293082 30.6090469 28.8867188 18.7145156 28.8867188 18.7145156 26.3378906 17.0152969 26.3378906 17.0152969 30.5859375 32.3082656 30.5859375"></polygon>
                <polygon id="Path" points="35.7402344 17.4169922 35.7402344 3.3984375 10.2519531 3.3984375 10.2519531 5.09765625 34.0410156 5.09765625 34.0410156 17.4169922"></polygon>
                <polygon id="Path" points="20.4137344 32.285043 23.8121719 32.285043 23.8121719 33.9842617 20.4137344 33.9842617"></polygon>
                <polygon id="Path" points="25.5113906 32.285043 28.9098281 32.285043 28.9098281 33.9842617 25.5113906 33.9842617"></polygon>
                <polygon id="Path" points="30.6426914 6.796875 32.3419102 6.796875 32.3419102 8.49609375 30.6426914 8.49609375"></polygon>
                <polygon id="Path" points="23.8457031 6.796875 28.9433594 6.796875 28.9433594 8.49609375 23.8457031 8.49609375"></polygon>
                <polygon id="Path" points="10.2854844 15.2929688 11.9847031 15.2929688 11.9847031 16.9921875 10.2854844 16.9921875"></polygon>
                <polygon id="Path" points="6.85351562 33.984375 8.55273438 33.984375 8.55273438 35.6835938 6.85351562 35.6835938"></polygon>
                <path d="M1.75585938,2.54882812 C1.75585938,2.08029688 2.1369375,1.69921875 2.60546875,1.69921875 L18.7480469,1.69921875 L18.7480469,0 L2.60546875,0 C1.20010156,0 0.056640625,1.14346094 0.056640625,2.54882812 L0.056640625,17.4169922 L1.75585938,17.4169922 L1.75585938,2.54882812 Z" id="Path"></path>
                <path d="M39.1386719,2.54882812 C39.1386719,1.14346094 37.9952109,0 36.5898438,0 L20.4472656,0 L20.4472656,1.69921875 L36.5898438,1.69921875 C37.058375,1.69921875 37.4394531,2.08029688 37.4394531,2.54882812 L37.4394531,29.3116367 L35.7402344,30.5860508 L35.7402344,19.1162109 L34.0410156,19.1162109 L34.0410156,36.5332031 C34.0410156,37.0017344 33.6599375,37.3828125 33.1914062,37.3828125 L28.9434727,37.3828125 L28.9434727,39.0820312 L33.1914062,39.0820312 C34.5967734,39.0820312 35.7402344,37.9385703 35.7402344,36.5332031 L35.7402344,32.7099609 L39.1386719,30.1612461 L39.1386719,2.54882812 Z" id="Path"></path>
                <path d="M17.0488281,51.203125 L18.7480469,51.203125 L18.7480469,39.0820312 L20.4472656,39.0820312 L20.4472656,51.203125 L22.1464844,51.203125 L22.1464844,39.0820312 L27.2442539,39.0820312 L27.2442539,37.3828125 L6.00379297,37.3828125 C5.535375,37.3828125 5.15429687,37.0017344 5.15429687,36.5332031 L5.15429687,5.09765625 L8.55262109,5.09765625 L8.55262109,3.3984375 L3.45507812,3.3984375 L3.45507812,30.5859375 L1.75585937,29.3115234 L1.75585937,19.1162109 L0.056640625,19.1162109 L0.056640625,30.1612461 L3.45507812,32.7099609 L3.45507812,36.5332031 C3.45507812,37.9385703 4.59842578,39.0820312 6.00379297,39.0820312 L17.0488281,39.0820312 L17.0488281,51.203125 Z" id="Path"></path>
                <polygon id="Path" points="6.85351562 58 18.7480469 58 18.7480469 56.3007812 8.55273438 56.3007812 8.55273438 54.6015625 30.6425781 54.6015625 30.6425781 56.3007812 20.4472656 56.3007812 20.4472656 58 32.3417969 58 32.3417969 52.9023438 6.85351562 52.9023438"></polygon>
            </g>
        </g>
    </g>
</svg>