<?xml version="1.0" standalone="no"?>
<!DOCTYPE svg PUBLIC "-//W3C//DTD SVG 20010904//EN"
 "http://www.w3.org/TR/2001/REC-SVG-20010904/DTD/svg10.dtd">
<svg version="1.0" xmlns="http://www.w3.org/2000/svg"
 width="512.000000pt" height="512.000000pt" viewBox="0 0 512.000000 512.000000"
 preserveAspectRatio="xMidYMid meet">

<g transform="translate(0.000000,512.000000) scale(0.100000,-0.100000)"
fill="#000000" stroke="none">
<path d="M2345 5109 c-224 -23 -483 -94 -687 -188 -451 -208 -861 -623 -1062
-1077 -327 -739 -212 -1602 297 -2229 129 -160 382 -386 447 -400 52 -11 120
45 120 100 0 33 -30 73 -87 115 -96 72 -280 259 -359 362 -209 278 -337 590
-384 938 -17 124 -14 386 5 510 54 343 177 637 377 904 79 104 270 295 374
374 473 356 1074 479 1646 336 249 -62 493 -179 702 -336 104 -79 295 -270
374 -374 200 -267 323 -561 377 -904 19 -124 22 -386 5 -510 -47 -348 -175
-660 -384 -938 -79 -103 -263 -290 -359 -362 -57 -42 -87 -82 -87 -115 0 -55
68 -111 120 -100 65 14 318 240 447 400 509 627 624 1490 297 2229 -176 396
-513 769 -897 990 -386 222 -844 320 -1282 275z"/>
<path d="M2363 4285 c-436 -68 -814 -350 -1003 -747 -148 -310 -170 -677 -60
-998 45 -129 138 -298 203 -367 26 -27 38 -33 73 -33 63 0 99 34 99 92 -1 35
-11 59 -58 130 -140 212 -200 454 -176 708 28 297 159 553 383 748 207 181
458 274 736 274 520 0 965 -349 1094 -857 33 -130 38 -370 10 -491 -31 -136
-86 -269 -159 -381 -61 -93 -72 -124 -56 -165 20 -52 93 -77 145 -49 47 26
178 252 226 391 62 183 85 429 57 615 -92 591 -542 1042 -1129 1130 -116 18
-272 18 -385 0z"/>
<path d="M2431 3464 c-174 -47 -320 -194 -366 -369 -69 -268 99 -549 372 -620
266 -69 547 100 618 372 96 366 -258 716 -624 617z"/>
<path d="M2325 2234 c-329 -51 -595 -208 -665 -392 -15 -40 -20 -77 -20 -155
0 -438 121 -968 305 -1340 96 -195 159 -258 298 -302 237 -75 623 -46 759 58
61 47 110 115 173 244 184 372 305 902 305 1340 0 78 -5 115 -20 155 -71 187
-338 343 -673 392 -127 19 -339 19 -462 0z"/>
</g>
</svg>
