<?xml version="1.0" encoding="UTF-8"?>
<svg width="60px" height="59px" viewBox="0 0 60 59" version="1.1" xmlns="http://www.w3.org/2000/svg" xmlns:xlink="http://www.w3.org/1999/xlink">
    <!-- Generator: Sketch 63 (92445) - https://sketch.com -->
    <title>printer</title>
    <desc>Created with Sketch.</desc>
    <g id="Main-Screens" stroke="none" stroke-width="1" fill="none" fill-rule="evenodd">
        <g id="Property-detail-view-new" transform="translate(-483.000000, -5228.000000)" fill="#000000" fill-rule="nonzero">
            <g id="On-site-amenities" transform="translate(-133.000000, 4991.000000)">
                <g id="Amenities-New" transform="translate(175.000000, 198.000000)">
                    <g id="Amenities-Row-1">
                        <g id="High-Speed-Internet" transform="translate(333.000000, 2.000000)">
                            <g id="Group-7" transform="translate(10.000000, 37.000000)">
                                <g id="printer" transform="translate(98.000000, 0.000000)">
                                    <path d="M59.0078165,15.7333333 L50.0781655,15.7333333 L50.0781655,11.8 L59.0078165,11.8 C59.5557499,11.8 60,11.3597125 60,10.8166667 C60,10.2736208 59.5557499,9.83333333 59.0078165,9.83333333 L50.0781655,9.83333333 L50.0781655,4.91666667 C50.0781655,4.37362083 49.6339153,3.93333333 49.085982,3.93333333 L34.2032302,3.93333333 L34.2032302,0 L22.2970287,0 L22.2970287,3.93333333 L9.39864381,3.93333333 C8.8507105,3.93333333 8.40646035,4.37362083 8.40646035,4.91666667 L8.40646035,20.2429 L1.6814409,13.5778667 C1.28729602,13.2006354 0.659119871,13.2113292 0.278493493,13.6019583 C-0.0928311645,13.983 -0.0928311645,14.5871354 0.278493493,14.9683 L8.40646035,23.0237667 L8.40646035,32.0429 L1.6814409,25.3778667 C1.28729602,25.0006354 0.659119871,25.0114521 0.278493493,25.4020813 C-0.0928311645,25.7831229 -0.0928311645,26.3872583 0.278493493,26.7683 L8.40646035,34.8237667 L8.40646035,58.0166667 C8.40646035,58.5597125 8.8507105,59 9.39864381,59 L59.0078165,59 C59.5557499,59 60,58.5597125 60,58.0166667 L60,16.7166667 C60,16.1736208 59.5557499,15.7333333 59.0078165,15.7333333 Z M24.2813956,1.96666667 L32.2188633,1.96666667 L32.2188633,3.93333333 L24.2813956,3.93333333 L24.2813956,1.96666667 L24.2813956,1.96666667 Z M18.3282949,57.0333333 L10.3908273,57.0333333 L10.3908273,5.9 L18.3282949,5.9 L18.3282949,57.0333333 Z M48.0937985,57.0333333 L20.3126618,57.0333333 L20.3126618,47.2 L48.0937985,47.2 L48.0937985,57.0333333 Z M48.0937985,45.2333333 L20.3126618,45.2333333 L20.3126618,35.4 L48.0937985,35.4 L48.0937985,45.2333333 Z M48.0937985,33.4333333 L20.3126618,33.4333333 L20.3126618,23.6 L48.0937985,23.6 L48.0937985,33.4333333 Z M48.0937985,21.6333333 L20.3126618,21.6333333 L20.3126618,13.7666667 L48.0937985,13.7666667 L48.0937985,21.6333333 Z M48.0937985,11.8 L20.3126618,11.8 L20.3126618,9.83333333 L48.0937985,9.83333333 L48.0937985,11.8 Z M48.0937985,7.86666667 L20.3126618,7.86666667 L20.3126618,5.9 L48.0937985,5.9 L48.0937985,7.86666667 Z M58.0156331,57.0333333 L50.0781655,57.0333333 L50.0781655,17.7 L58.0156331,17.7 L58.0156331,57.0333333 Z" id="Shape"></path>
                                    <path d="M32,15 L22,15 L22,21 L32,21 L32,15 Z M30,19 L24,19 L24,17 L30,17 L30,19 Z" id="Shape"></path>
                                    <rect id="Rectangle" x="34" y="15" width="2" height="2"></rect>
                                    <rect id="Rectangle" x="34" y="18" width="2" height="2"></rect>
                                    <rect id="Rectangle" x="37" y="15" width="2" height="2"></rect>
                                    <rect id="Rectangle" x="37" y="18" width="2" height="2"></rect>
                                    <rect id="Rectangle" x="40" y="15" width="2" height="2"></rect>
                                    <rect id="Rectangle" x="40" y="18" width="2" height="2"></rect>
                                    <rect id="Rectangle" x="43" y="15" width="2" height="2"></rect>
                                    <rect id="Rectangle" x="43" y="18" width="2" height="2"></rect>
                                    <path d="M30,27 L38,27 C38.55225,27 39,26.55225 39,26 C39,25.44775 38.55225,25 38,25 L30,25 C29.44775,25 29,25.44775 29,26 C29,26.55225 29.447625,27 30,27 Z" id="Path"></path>
                                    <path d="M30,38 L38,38 C38.55225,38 39,37.55225 39,37 C39,36.44775 38.55225,36 38,36 L30,36 C29.44775,36 29,36.44775 29,37 C29,37.55225 29.447625,38 30,38 Z" id="Path"></path>
                                    <path d="M30,50 L38,50 C38.55225,50 39,49.55225 39,49 C39,48.44775 38.55225,48 38,48 L30,48 C29.44775,48 29,48.44775 29,49 C29,49.55225 29.447625,50 30,50 Z" id="Path"></path>
                                </g>
                            </g>
                        </g>
                    </g>
                </g>
            </g>
        </g>
    </g>
</svg>