<?xml version="1.0" encoding="utf-8"?>
<!-- Generator: Adobe Illustrator 24.0.0, SVG Export Plug-In . SVG Version: 6.00 Build 0)  -->
<svg version="1.1" id="Layer_1" xmlns="http://www.w3.org/2000/svg" xmlns:xlink="http://www.w3.org/1999/xlink" x="0px" y="0px"
	 viewBox="0 0 37.7 58" style="enable-background:new 0 0 37.7 58;" xml:space="preserve">
<g id="Page-1">
	<g id="_x30_71---Walking-Through-Terminal" transform="translate(-1 -1)">
		<path d="M34.8,23.3h-4.1l-7-7.7c3.4,0,6.3-2.3,7.1-5.6c0.8-3.3-0.9-6.7-3.9-8.2c-3.1-1.5-6.7-0.6-8.8,2s-2.1,6.4,0,9.1L8,14.6
			c-1.1,0.2-2.1,0.9-2.7,1.9v0l-3.9,6.8c-0.5,0.9-0.7,1.9-0.4,2.9c0,0.1,0.1,0.2,0.1,0.3l0,0c0,0,0,0,0.1,0.1c0,0,0,0,0,0
			c0,0,0,0,0,0.1c0,0,0,0,0,0c0,0,0,0.1,0,0.1c0,0,0,0,0,0c0,0,0,0,0,0.1c0.1,0.1,0.2,0.2,0.2,0.4C1.8,27.5,2,27.8,2.3,28
			c0.1,0.1,0.2,0.2,0.3,0.2c0,0,0.1,0,0.1,0.1c0,0,0.1,0.1,0.1,0.1c0,0,0,0,0,0c0,0,0.1,0,0.1,0.1c0.1,0.1,0.3,0.1,0.4,0.2
			c0.3,0.1,0.6,0.2,1,0.3c0.1,0,0.2,0,0.3,0l0,0c0.1,0,0.3,0,0.4,0c0.4-0.1,0.8-0.2,1.1-0.3c0.2-0.1,0.3-0.2,0.5-0.3
			c0.1-0.1,0.2-0.1,0.3-0.2c0,0,0.1,0,0.1,0c0,0,0.1,0,0.1,0c0.4-0.3,0.7-0.7,1-1.1l3-5.2l2.7-0.5L4.1,54c-0.3,1-0.2,2,0.3,2.9
			c0.5,0.9,1.3,1.6,2.3,1.9C7,58.9,7.4,59,7.8,59c1.7,0,3.2-1.1,3.7-2.8l4.8-16l5.3,4.3l1.7,11.1c0.3,1.9,1.9,3.3,3.8,3.3
			c0.2,0,0.4,0,0.6-0.1c2.1-0.3,3.6-2.3,3.2-4.4L29,42c-0.2-0.9-0.6-1.8-1.4-2.4L21,34.2l2.1-7.9l3.1,3.4c0.7,0.8,1.8,1.3,2.9,1.3
			h5.8c2.1,0,3.9-1.7,3.9-3.9S36.9,23.3,34.8,23.3z M23.7,3C26.6,3,29,5.3,29,8.3s-2.4,5.3-5.3,5.3c-2.9,0-5.3-2.4-5.3-5.3
			C18.4,5.3,20.8,3,23.7,3z M34.8,29.1H29c-0.5,0-1.1-0.2-1.4-0.6l-4.3-4.7c-0.2-0.3-0.6-0.4-0.9-0.3c-0.3,0.1-0.6,0.3-0.7,0.7
			L19,34.3c-0.1,0.4,0,0.8,0.3,1l7.1,5.8c0.4,0.3,0.6,0.7,0.7,1.2L29,54.8c0.1,0.5-0.1,1-0.4,1.4c-0.3,0.4-0.8,0.7-1.3,0.8
			c-0.1,0-0.2,0-0.3,0c-1,0-1.8-0.7-1.9-1.6L23.4,44c0-0.2-0.2-0.5-0.3-0.6l-6.7-5.5c-0.2-0.2-0.6-0.3-0.9-0.2
			c-0.3,0.1-0.5,0.3-0.6,0.6L9.6,55.7c-0.3,1-1.4,1.6-2.4,1.3c-0.5-0.1-0.9-0.5-1.1-0.9c-0.2-0.5-0.3-1-0.1-1.5l10.2-34.1
			c0.1-0.3,0-0.7-0.2-0.9c-0.2-0.3-0.6-0.4-0.9-0.3l-4.6,0.8c-0.3,0.1-0.5,0.2-0.7,0.5l-3.2,5.6c-0.3,0.6-1,1.1-1.7,1.1
			c-0.7,0-1.4-0.4-1.7-1s-0.3-1.4,0.1-2l3.9-6.8c0.3-0.5,0.8-0.8,1.3-0.9l10.6-1.9c0.7-0.1,1.3,0.1,1.8,0.5c0,0,0.1,0.1,0.1,0.1
			l8.7,9.6c0.2,0.2,0.4,0.3,0.7,0.3h4.5c1.1,0,1.9,0.9,1.9,1.9C36.7,28.2,35.9,29.1,34.8,29.1z"/>
	</g>
</g>
</svg>
