<?xml version="1.0" encoding="UTF-8"?>
<svg width="63px" height="58px" viewBox="0 0 63 58" version="1.1" xmlns="http://www.w3.org/2000/svg" xmlns:xlink="http://www.w3.org/1999/xlink">
    <title>seasonal-snacks</title>
    <g id="Main-Screens" stroke="none" stroke-width="1" fill="none" fill-rule="evenodd">
        <g id="Artboard" transform="translate(-484.000000, -502.000000)" fill="#000000" fill-rule="nonzero">
            <g id="On-site-amenities" transform="translate(-134.000000, 0.000000)">
                <g id="Amenities-New" transform="translate(175.000000, 198.000000)">
                    <g id="Amenities-Row-2" transform="translate(0.000000, 268.000000)">
                        <g id="Coffee" transform="translate(333.000000, 0.000000)">
                            <g id="Group-7" transform="translate(21.000000, 36.000000)">
                                <g id="seasonal-snacks" transform="translate(89.000000, 0.000000)">
                                    <path d="M60.1511786,4.86785714 C58.036623,2.45615742 54.9930425,1.06192096 51.7857143,1.03571429 C46.0689337,1.04370102 41.4365582,5.67607657 41.4285714,11.3928571 C41.4287357,11.4567794 41.4346283,11.5205583 41.4461786,11.5834286 L42.3917857,16.6418571 C42.0725832,16.5974997 41.7508312,16.5739737 41.4285714,16.5714286 C38.6859452,16.5748532 36.180022,18.1256236 34.9532857,20.5786071 C34.8269286,20.4025357 34.6922857,20.2337143 34.5514286,20.0711071 L36.2334286,10.5373571 C36.2446388,10.4779449 36.2501875,10.4176032 36.25,10.3571429 C36.2437211,4.63965362 31.6103464,0.00627888369 25.8928571,-6.12242464e-07 C21.8164381,-0.00136304536 18.0803576,2.27329413 16.2099643,5.89528571 C15.0055057,5.42168352 13.7227969,5.1785626 12.4285714,5.17857143 C9.22124324,5.2047781 6.17766273,6.59901456 4.06310714,9.01071429 C2.43987702,10.8365326 1.71470354,13.2907322 2.08489286,15.7055714 C2.49917857,18.2637857 4.70007143,24.1984286 5.73992857,26.9316786 L1.03571429,26.9316786 C0.463705081,26.9316786 -3.06375276e-07,27.3953837 -3.06375276e-07,27.9673929 L-3.06375276e-07,41.3850714 C-0.00174038717,50.5449886 7.41153833,57.9777272 16.5714286,57.9999994 L45.5714286,57.9999994 C54.7313188,57.9777272 62.1445975,50.5449886 62.1428571,41.3850714 L62.1428571,27.9642857 C62.1428571,27.3922765 61.6791521,26.9285714 61.1071429,26.9285714 L58.3158929,26.9285714 C59.2480357,23.4723929 61.6912857,14.239 62.1293929,11.5596071 C62.4986187,9.14578601 61.7735073,6.69293516 60.1511786,4.86785714 L60.1511786,4.86785714 Z M41.4285714,18.6428571 C44.2864897,18.6479876 46.6020124,20.9635103 46.6071429,23.8214286 L46.6071429,26.9285714 L39.2670357,26.9285714 C39.0340195,25.2253218 37.9111464,23.7752564 36.3204286,23.1233571 C36.6650012,20.5636102 38.8457491,18.6508131 41.4285714,18.6428571 L41.4285714,18.6428571 Z M34.9439643,24.8208929 C36.0296168,25.0350281 36.8946325,25.8556841 37.1655714,26.9285714 L13.5978929,26.9285714 C13.508946,26.5905266 13.4640387,26.242408 13.4642847,25.8928571 C13.4642847,23.6048203 15.319106,21.75 17.6071429,21.75 C18.1791521,21.75 18.6428571,21.2862949 18.6428571,20.7142857 C18.6428571,18.4262489 20.4976775,16.5714286 22.7857143,16.5714286 C24.5463342,16.5341606 26.1785345,17.4893802 27.0083214,19.0426429 C27.197322,19.4849266 27.6635579,19.741335 28.1382857,19.6640714 C30.9927366,19.1920529 33.6936362,21.1105656 34.1878929,23.96125 C34.244256,24.3737032 34.5420833,24.7123288 34.9439643,24.8208929 L34.9439643,24.8208929 Z M25.8928571,2.07142857 C30.4324642,2.07677675 34.124734,5.72981619 34.1785714,10.2691071 L32.71925,18.5392857 C31.46131,17.7960482 30.0100392,17.4454927 28.5515357,17.5325714 C28.2771614,17.0994445 27.9458811,16.705113 27.5665714,16.3601429 L29.73225,14.1944643 L28.26775,12.7299643 L26.9285714,14.0712143 L26.9285714,10.7020357 L29.8285714,6.83571429 L28.1714286,5.59285714 L26.9285714,7.25 L26.9285714,4.14285714 L24.8571429,4.14285714 L24.8571429,9.32142857 L23.6142857,7.66428571 L21.9571429,8.90714286 L24.8571429,12.7734643 L24.8571429,14.8293571 C24.1869192,14.6170369 23.4887387,14.5060262 22.7857143,14.5 C22.7681071,14.5 22.7525714,14.5 22.736,14.5 C22.4145864,11.367498 20.6912822,8.54927672 18.0493929,6.83571429 C19.5500575,3.88983349 22.5868746,2.04520667 25.8928571,2.07142857 L25.8928571,2.07142857 Z M4.12939286,15.3689643 C3.85698494,13.5539537 4.41182354,11.7123456 5.64153571,10.3498929 C7.35790252,8.39547004 9.8275375,7.26749545 12.4285714,7.25 C16.7462053,7.2529788 20.3378482,10.5710457 20.6821786,14.8749286 C18.5483881,15.6442508 17.0012265,17.5123492 16.6428929,19.7521071 C15.4564561,19.9445006 14.3518499,20.4786276 13.4642857,21.2891071 L13.4642857,19.0716429 L16.2679643,16.2679643 L14.8034643,14.8034643 L13.4642857,16.1426429 L13.4642857,10.3571429 L11.3928571,10.3571429 L11.3928571,13.4642857 L10.15,11.8071429 L8.49285714,13.05 L11.3928571,16.9163214 L11.3928571,20.0825 L10.2090357,18.1094643 L8.43382143,19.17625 L11.3928571,24.1083214 L11.3928571,26.9285714 L7.95946429,26.9285714 C7.13192857,24.7815357 4.55714286,17.9675714 4.12939286,15.3689643 L4.12939286,15.3689643 Z M60.0714276,41.3850714 C60.0743119,49.4014441 53.587774,55.9074417 45.5714276,55.9285714 L16.5714276,55.9285714 C8.55508318,55.9074417 2.06854528,49.4014441 2.07142761,41.3850714 L2.07142761,35.2142857 L60.0714276,35.2142857 L60.0714276,41.3850714 Z M60.0714286,29 L60.0714286,33.1428571 L2.07142857,33.1428571 L2.07142857,29 L60.0714286,29 Z M60.0848929,11.2261071 C59.6436786,13.9262143 56.9425357,24.0534286 56.1698929,26.9285714 L52.8214286,26.9285714 L52.8214286,24.8571429 L54.8928571,24.8571429 L54.8928571,22.7857143 L52.8214286,22.7857143 L52.8214286,19.9654643 L55.7804643,15.0333929 L54.00525,13.9666071 L52.8214286,15.9396429 L52.8214286,12.7734643 L55.7214286,8.90714286 L54.0642857,7.66428571 L52.8214286,9.32142857 L52.8214286,6.21428571 L50.75,6.21428571 L50.75,11.9997857 L49.4108214,10.6606071 L47.9463214,12.1251071 L50.75,14.9287857 L50.75,26.9285714 L48.6785714,26.9285714 L48.6785714,23.8214286 C48.6749631,21.0591683 47.1039977,18.5383168 44.6258214,17.3181786 L43.5,11.2996429 C43.5583128,6.76308693 47.248789,3.11412865 51.7857143,3.10714286 C54.3867482,3.1246383 56.8563832,4.25261289 58.57275,6.20703571 C59.8024622,7.56948844 60.3573008,9.41109657 60.0848929,11.2261071 Z" id="Shape"></path>
                                    <path d="M22.7857143,18.6428571 C21.0696867,18.6428571 19.6785714,20.0339724 19.6785714,21.75 L21.75,21.75 C21.75,21.1779908 22.2137051,20.7142857 22.7857143,20.7142857 C23.3577235,20.7142857 23.8214286,21.1779908 23.8214286,21.75 L25.8928571,21.75 C25.8928571,20.0339724 24.5017419,18.6428571 22.7857143,18.6428571 L22.7857143,18.6428571 Z" id="Path"></path>
                                    <path d="M30.0357143,21.75 C28.3196867,21.75 26.9285714,23.1411152 26.9285714,24.8571429 L29,24.8571429 C29,24.2851337 29.4637051,23.8214286 30.0357143,23.8214286 C30.6077235,23.8214286 31.0714286,24.2851337 31.0714286,24.8571429 L33.1428571,24.8571429 C33.1428571,23.1411152 31.7517419,21.75 30.0357143,21.75 L30.0357143,21.75 Z" id="Path"></path>
                                    <polygon id="Path" points="42.4642857 21.75 44.5357143 21.75 44.5357143 23.8214286 42.4642857 23.8214286"></polygon>
                                    <polygon id="Path" points="4.14285714 37.2857143 8.28571429 37.2857143 8.28571429 39.3571429 4.14285714 39.3571429"></polygon>
                                    <polygon id="Path" points="10.3571429 37.2857143 14.5 37.2857143 14.5 39.3571429 10.3571429 39.3571429"></polygon>
                                    <polygon id="Path" points="16.5714286 37.2857143 20.7142857 37.2857143 20.7142857 39.3571429 16.5714286 39.3571429"></polygon>
                                    <polygon id="Path" points="22.7857143 37.2857143 26.9285714 37.2857143 26.9285714 39.3571429 22.7857143 39.3571429"></polygon>
                                    <polygon id="Path" points="29 37.2857143 33.1428571 37.2857143 33.1428571 39.3571429 29 39.3571429"></polygon>
                                    <polygon id="Path" points="35.2142857 37.2857143 39.3571429 37.2857143 39.3571429 39.3571429 35.2142857 39.3571429"></polygon>
                                    <polygon id="Path" points="41.4285714 37.2857143 45.5714286 37.2857143 45.5714286 39.3571429 41.4285714 39.3571429"></polygon>
                                    <polygon id="Path" points="47.6428571 37.2857143 51.7857143 37.2857143 51.7857143 39.3571429 47.6428571 39.3571429"></polygon>
                                    <polygon id="Path" points="53.8571429 37.2857143 58 37.2857143 58 39.3571429 53.8571429 39.3571429"></polygon>
                                </g>
                            </g>
                        </g>
                    </g>
                </g>
            </g>
        </g>
    </g>
</svg>