<?xml version="1.0" encoding="utf-8"?>
<!-- Generator: Adobe Illustrator 24.0.1, SVG Export Plug-In . SVG Version: 6.00 Build 0)  -->
<svg version="1.1" id="Layer_1" xmlns="http://www.w3.org/2000/svg" xmlns:xlink="http://www.w3.org/1999/xlink" x="0px" y="0px"
	 viewBox="0 0 460.3 494.7" style="enable-background:new 0 0 460.3 494.7;" xml:space="preserve">
<style type="text/css">
	.st0{fill:#FFFFFF;}
</style>
<g>
	<path class="st0" d="M51.2,190.6c-0.1,0.5-0.3,0.8-0.5,1.3v77.1c0.1,0.4,0.3,0.7,0.4,1.1c-0.2,40.9-0.4,82.2-0.4,82.2
		c-2.1-1.8-4.2-3.7-6.2-5.6c-1.4-1.4-2.7-2.9-4-4.4c-2-2.2-3.9-4.5-5.7-6.9c-0.2-0.3-0.5-0.7-0.7-1c-1.7-2.2-3.3-4.6-4.8-7
		c-0.3-0.5-0.6-1.1-0.9-1.6c-1.4-2.2-2.7-4.6-3.9-6.9c-0.4-0.8-0.7-1.5-1.1-2.3c-1.1-2.2-2.1-4.4-3-6.7c-0.4-1.1-0.8-2.2-1.2-3.3
		c-0.7-2.1-1.5-4.1-2.1-6.3c-0.4-1.5-0.8-2.9-1.1-4.4c-0.5-1.9-1-3.7-1.4-5.6c-0.4-2-0.6-4-0.9-6c-0.2-1.5-0.5-2.9-0.6-4.4
		c-0.3-3.5-0.6-7.1-0.6-10.7c0-0.1,0-0.1,0-0.1v-77.3c0,0,0-0.1,0-0.1c0-3.6,0.2-7.2,0.6-10.7c0.1-1.5,0.4-3,0.6-4.4
		c0.3-2,0.5-4,0.9-6c0.4-1.9,0.9-3.8,1.4-5.6c0.4-1.5,0.7-2.9,1.1-4.4c0.6-2.1,1.4-4.2,2.1-6.3c0.4-1.1,0.8-2.2,1.2-3.3
		c0.9-2.3,2-4.5,3-6.7c0.4-0.8,0.7-1.5,1.1-2.3c1.2-2.4,2.6-4.7,3.9-7c0.3-0.5,0.7-1,0.9-1.5c1.5-2.4,3.2-4.7,4.8-7
		c0.2-0.3,0.5-0.7,0.7-1c1.8-2.4,3.7-4.7,5.7-6.9c1.3-1.5,2.6-3,4-4.4c2-2,4.1-3.8,6.2-5.6c3.9-3.3,8-6.4,12.3-9.2
		C74.6,92,87.6,86.7,101.6,84c4-0.8,8.2-1.3,12.3-1.6c2.7-0.2,5.4-0.4,8.2-0.4h3.8l0,0h212.1c2.8,0,5.5,0.2,8.2,0.4V70
		c-2.7-0.1-5.4-0.3-8.2-0.3H122.2c-2.8,0-5.5,0.2-8.2,0.3h0l-12.3,1.5c0,0,0,0,0,0c-13.8,2.3-26.8,7-38.5,13.5h0l-12.3,7.9
		c0,0,0,0,0,0c-5.3,3.8-10.3,8.1-14.9,12.6c-9.1,9.2-16.7,19.8-22.6,31.4c-0.2,0.4-0.4,0.9-0.6,1.3c-1.7,3.4-3.2,6.8-4.5,10.4
		c-0.4,1-0.8,2-1.1,3c-1.1,3.1-2,6.2-2.8,9.3c-0.3,1.3-0.7,2.6-1,3.9c-0.7,3.1-1.2,6.3-1.7,9.5c-0.2,1.3-0.4,2.6-0.6,3.9
		c-0.5,4.5-0.8,9-0.8,13.6v77.3c0,4.6,0.3,9.1,0.8,13.6c0.1,1.3,0.4,2.6,0.6,3.9c0.5,3.2,1,6.4,1.7,9.5c0.3,1.3,0.7,2.6,1,3.9
		c0.8,3.2,1.8,6.3,2.8,9.4c0.4,1,0.7,2,1.1,3c1.3,3.5,2.9,7,4.5,10.4c0.2,0.4,0.4,0.8,0.6,1.2c5.9,11.7,13.5,22.3,22.6,31.4
		c4.6,4.6,9.6,8.8,14.9,12.7c0,0,0,0,0,0l12.3,7.8V153.4c-6.9,10.7-11.1,23.2-11.8,36.7C51.2,189.9,51.2,190,51.2,190.6z M114,132.7
		c3.7-0.7,7.6-1.1,11.6-1.1H328l0,0h6.7c3.9,0,7.8,0.4,11.6,1.1v-12.4c-3.8-0.6-7.6-1-11.6-1h-6.1l0,0H125.6c-3.9,0-7.8,0.4-11.6,1
		c-4.2,0.6-8.4,1.7-12.3,3c-10.9,3.7-20.7,9.9-28.7,17.8c-3.7,3.7-7,7.9-9.8,12.3l0.3,40.4c0-17.2,7-32.7,18.2-43.9
		c5.7-5.7,12.5-10.3,20-13.4c0,0,0,0,0,0L114,132.7L114,132.7z M460.2,191.8c0-4.4-0.2-8.7-0.7-13c-0.1-1.1-0.3-2.2-0.5-3.3
		c-0.5-3.2-0.9-6.3-1.6-9.4c-0.2-1.1-0.6-2.2-0.8-3.3c-0.8-3.1-1.6-6.1-2.6-9.1c-0.3-0.9-0.7-1.8-1-2.7c-1.1-3.2-2.4-6.2-3.7-9.3
		c-0.3-0.7-0.6-1.3-0.9-2c-1.5-3.2-3.2-6.4-5.1-9.5c-0.2-0.4-0.5-0.8-0.7-1.2c-2-3.3-4.2-6.5-6.5-9.7c-0.1-0.1-0.2-0.3-0.3-0.4
		c-3.5-4.7-7.3-9.3-11.4-13.4c-4.6-4.6-9.6-8.8-14.9-12.7l0,0L397.2,85c0,0,0,0,0,0v222.8c7.6-11.7,12-25.6,12-40.5v-6.6
		c0.1,0.2,0.2,0.4,0.3,0.5V108.8c1.5,1.3,3.1,2.6,4.5,3.9c0,0.1,0,0.1,0,0.1c15.5,14.9,26.7,34.2,31.4,56c0,0.2,0.1,0.3,0.1,0.5
		c0.7,3.1,1.1,6.3,1.5,9.5c0.1,0.6,0.2,1.1,0.3,1.7c0.4,3.7,0.6,7.4,0.6,11.2c0,0.1,0,0.2,0,0.3v77.3c0,0.1,0,0.1,0,0.2
		c0,3.8-0.2,7.5-0.6,11.2c-0.1,0.6-0.2,1.1-0.3,1.7c-0.4,3.2-0.8,6.4-1.5,9.5c0,0.2-0.1,0.3-0.1,0.5c-4.7,21.7-15.9,41-31.4,56
		c0,0,0,0.1,0,0.1c-1.4,1.4-3,2.7-4.5,4c-3.9,3.4-8,6.5-12.4,9.3c-11.6,7.4-24.6,12.8-38.5,15.4c-4,0.8-8.2,1.3-12.4,1.5
		c-2.7,0.2-5.4,0.4-8.2,0.4H126l0,0h-3.8c-2.8,0-5.5-0.2-8.2-0.4V391h0c2.7,0.1,5.4,0.3,8.2,0.3h215.9c2.7,0,5.5-0.1,8.2-0.3
		l12.4-1.5c13.7-2.4,26.7-7,38.5-13.5c0,0,0,0,0,0l12.4-7.9l0,0c5.3-3.8,10.3-8.1,14.9-12.7c4.1-4.2,7.9-8.7,11.4-13.4
		c0.1-0.2,0.2-0.3,0.3-0.5c2.3-3.1,4.5-6.3,6.5-9.7c0.2-0.4,0.5-0.7,0.7-1.1c1.8-3.1,3.5-6.3,5.1-9.6c0.3-0.6,0.6-1.3,0.9-1.9
		c1.4-3,2.6-6.1,3.7-9.3c0.3-0.9,0.7-1.8,1-2.7c1-3,1.8-6,2.6-9.1c0.3-1.1,0.6-2.2,0.8-3.3c0.7-3.1,1.1-6.3,1.6-9.4
		c0.1-1.1,0.4-2.2,0.5-3.3c0.5-4.3,0.7-8.6,0.7-13c0,0,0-0.1,0-0.1L460.2,191.8C460.3,191.8,460.2,191.8,460.2,191.8z M378.6,311.2
		c-5.7,5.7-12.5,10.3-20,13.5l-12.4,3.7c-3.8,0.7-7.6,1.1-11.6,1.1H328l0,0H125.6c-3.9,0-7.8-0.4-11.6-1.1h0v12.4
		c3.8,0.6,7.7,1,11.6,1h203.1l0,0h6.1c3.9,0,7.8-0.4,11.6-1c4.2-0.7,8.4-1.7,12.4-3c10.9-3.7,20.7-9.8,28.7-17.8
		c3.7-3.7,6.9-7.8,9.8-12.2l-0.3-40.5C396.8,284.4,389.9,299.9,378.6,311.2z"/>
	<path class="st0" d="M114,132.7l-12.3,3.7c0,0,0,0,0,0v269.4c0,10.5,4.3,20,11.1,26.9c6.8,6.9,16.4,11.1,26.8,11.1h181
		c10.5,0,20-4.3,26.9-11.1c6.9-6.9,11.1-16.4,11.1-26.9v-16.2l-12.4,1.5v14.7c0,7.1-2.9,13.5-7.5,18.2c-4.7,4.6-11,7.5-18.1,7.5
		h-181c-7.1,0-13.4-2.9-18.1-7.5c-4.7-4.6-7.5-11-7.5-18.2V132.7z M63.1,85V12.3h38.6v59.1c0,0,0,0,0,0L114,70V0H50.7v92.8
		c0,0,0,0,0,0L63.1,85z M397.2,376.1v29.7c0,21.1-8.6,40.2-22.4,54.1c-13.9,13.9-33,22.5-54.1,22.5h-181c-21.1,0-40.2-8.6-54.1-22.5
		c-13.8-13.9-22.4-33-22.5-54.1V376l-12.3-7.8c0,0,0,0,0,0v37.6c0,24.5,10,46.8,26.1,62.8c16.1,16.1,38.3,26.1,62.8,26.1h181
		c24.5,0,46.8-10,62.8-26.1c16.1-16.1,26.1-38.3,26.1-62.8v-37.6L397.2,376.1C397.2,376,397.2,376.1,397.2,376.1z M346.3,0v328.3
		l12.4-3.7V12.3h38.5V85c0,0,0,0,0,0l12.4,7.9V0H346.3z"/>
</g>
</svg>
