<?xml version="1.0" encoding="utf-8"?>
<!-- Generator: Adobe Illustrator 16.0.0, SVG Export Plug-In . SVG Version: 6.00 Build 0)  -->
<!DOCTYPE svg PUBLIC "-//W3C//DTD SVG 1.1//EN" "http://www.w3.org/Graphics/SVG/1.1/DTD/svg11.dtd">
<svg version="1.1" id="Layer_1" xmlns="http://www.w3.org/2000/svg" xmlns:xlink="http://www.w3.org/1999/xlink" x="0px" y="0px"
	 width="230.66px" height="33.082px" viewBox="0 0 230.66 33.082" enable-background="new 0 0 230.66 33.082" xml:space="preserve">
<g>
	<g>
		<path fill="#0089CF" d="M3.425,12.75c-0.009,0.031-0.022,0.057-0.031,0.086v5.158C3.4,18.02,3.412,18.043,3.422,18.07
			c-0.013,2.736-0.029,5.496-0.029,5.496c-0.142-0.121-0.282-0.244-0.413-0.377c-0.094-0.094-0.18-0.195-0.268-0.295
			c-0.132-0.148-0.261-0.303-0.382-0.459c-0.017-0.021-0.033-0.045-0.05-0.068c-0.112-0.15-0.221-0.307-0.323-0.467
			c-0.019-0.035-0.04-0.07-0.062-0.105c-0.092-0.15-0.18-0.307-0.263-0.465c-0.026-0.051-0.049-0.104-0.073-0.156
			c-0.072-0.146-0.142-0.295-0.203-0.447c-0.028-0.072-0.054-0.146-0.08-0.219c-0.05-0.139-0.101-0.277-0.144-0.42
			c-0.028-0.098-0.052-0.195-0.076-0.293c-0.032-0.125-0.066-0.248-0.091-0.375c-0.025-0.133-0.043-0.268-0.062-0.402
			c-0.013-0.098-0.032-0.195-0.041-0.295c-0.023-0.234-0.037-0.473-0.037-0.715c0-0.004-0.002-0.004-0.002-0.008v-5.17
			c0-0.002,0.002-0.006,0.002-0.01c0-0.24,0.014-0.479,0.037-0.713c0.009-0.1,0.028-0.197,0.041-0.297
			c0.019-0.135,0.036-0.27,0.062-0.4c0.024-0.127,0.059-0.252,0.091-0.375c0.024-0.098,0.048-0.197,0.076-0.295
			c0.043-0.143,0.094-0.279,0.144-0.418c0.026-0.072,0.052-0.146,0.08-0.219c0.062-0.152,0.131-0.301,0.203-0.449
			C1.583,9.602,1.605,9.551,1.632,9.5c0.083-0.16,0.171-0.314,0.263-0.467C1.917,8.998,1.938,8.965,1.957,8.93
			C2.06,8.77,2.168,8.613,2.28,8.461c0.017-0.021,0.033-0.045,0.05-0.066c0.121-0.158,0.25-0.312,0.382-0.461
			C2.8,7.836,2.886,7.734,2.979,7.639C3.11,7.508,3.251,7.387,3.393,7.264c0.26-0.223,0.537-0.428,0.825-0.615
			c0.774-0.496,1.644-0.852,2.579-1.029c0.27-0.053,0.546-0.086,0.824-0.107c0.182-0.014,0.364-0.025,0.55-0.025h0.253l0,0h14.188
			c0.185,0,0.365,0.012,0.547,0.025V4.68c-0.18-0.01-0.363-0.021-0.547-0.021H8.171c-0.185,0-0.366,0.012-0.548,0.021H7.621
			L6.799,4.777c-0.002,0-0.002,0-0.002,0c-0.92,0.156-1.79,0.467-2.578,0.904H4.218L3.394,6.207c-0.001,0-0.001,0-0.001,0.002
			C3.038,6.465,2.703,6.748,2.396,7.055C1.784,7.668,1.276,8.379,0.884,9.156C0.868,9.186,0.855,9.215,0.842,9.242
			C0.73,9.469,0.629,9.699,0.539,9.936c-0.024,0.066-0.051,0.135-0.074,0.203c-0.071,0.205-0.135,0.412-0.189,0.625
			c-0.023,0.086-0.048,0.172-0.068,0.26c-0.048,0.209-0.083,0.422-0.114,0.637c-0.013,0.086-0.029,0.172-0.038,0.258
			C0.021,12.219,0,12.521,0,12.828V18c0,0.309,0.021,0.611,0.055,0.91c0.009,0.088,0.025,0.172,0.038,0.26
			c0.031,0.215,0.066,0.428,0.114,0.635c0.021,0.09,0.045,0.174,0.068,0.26c0.055,0.213,0.118,0.422,0.189,0.627
			c0.023,0.068,0.05,0.135,0.074,0.203c0.09,0.236,0.191,0.467,0.303,0.695c0.014,0.027,0.026,0.055,0.042,0.082
			c0.393,0.779,0.9,1.492,1.512,2.102c0.308,0.309,0.643,0.592,0.997,0.85c0,0,0,0,0.001,0l0.824,0.523V10.256
			c-0.46,0.715-0.744,1.553-0.788,2.455C3.427,12.703,3.426,12.709,3.425,12.75z M7.623,8.873c0.25-0.049,0.51-0.074,0.773-0.074
			h13.537l0,0h0.45c0.264,0,0.523,0.025,0.774,0.074V8.041c-0.254-0.039-0.511-0.066-0.774-0.066h-0.406l0,0H8.396
			c-0.264,0-0.522,0.027-0.775,0.066C7.338,8.084,7.062,8.152,6.797,8.24C6.066,8.49,5.409,8.9,4.875,9.434
			c-0.247,0.248-0.466,0.525-0.657,0.822l0.023,2.701c0-1.148,0.466-2.186,1.218-2.938C5.841,9.637,6.294,9.33,6.797,9.121
			c0,0,0-0.002,0.002-0.002l0.822-0.246H7.623z M30.779,12.824c0-0.295-0.016-0.582-0.048-0.867
			c-0.007-0.074-0.022-0.148-0.031-0.221c-0.03-0.213-0.062-0.424-0.106-0.631c-0.015-0.074-0.038-0.146-0.056-0.221
			c-0.052-0.207-0.106-0.41-0.172-0.611c-0.021-0.061-0.044-0.119-0.065-0.18c-0.076-0.211-0.157-0.418-0.249-0.621
			c-0.021-0.045-0.042-0.086-0.063-0.131c-0.103-0.217-0.215-0.43-0.338-0.637c-0.014-0.027-0.031-0.053-0.046-0.078
			c-0.135-0.221-0.279-0.438-0.434-0.646c-0.007-0.01-0.015-0.021-0.021-0.029c-0.237-0.314-0.486-0.619-0.764-0.896
			c-0.308-0.309-0.644-0.59-0.998-0.848l0,0l-0.826-0.525c-0.001,0-0.001,0-0.001,0V20.58c0.507-0.779,0.806-1.709,0.806-2.707
			v-0.441c0.006,0.012,0.015,0.023,0.021,0.035V7.273c0.101,0.088,0.206,0.174,0.303,0.264c-0.002,0.004-0.002,0.006-0.002,0.006
			c1.037,0.996,1.786,2.287,2.103,3.742c0.001,0.012,0.006,0.021,0.008,0.033c0.044,0.209,0.075,0.42,0.101,0.635
			c0.004,0.039,0.014,0.074,0.018,0.113c0.025,0.246,0.039,0.496,0.039,0.746c0,0.006,0.001,0.012,0.001,0.018V18
			c0,0.004-0.001,0.01-0.001,0.016c0,0.252-0.014,0.502-0.039,0.748c-0.004,0.037-0.014,0.074-0.018,0.113
			c-0.025,0.215-0.057,0.426-0.101,0.635c-0.002,0.012-0.007,0.021-0.008,0.033c-0.316,1.453-1.065,2.744-2.103,3.742
			c0,0,0,0.004,0.002,0.004c-0.097,0.094-0.202,0.178-0.303,0.266c-0.263,0.227-0.537,0.438-0.827,0.623
			c-0.772,0.496-1.644,0.854-2.576,1.033c-0.27,0.051-0.547,0.084-0.826,0.104c-0.182,0.014-0.362,0.027-0.547,0.027H8.424l0,0
			H8.171c-0.186,0-0.368-0.014-0.55-0.027v0.834h0.002c0.182,0.01,0.363,0.02,0.548,0.02h14.44c0.184,0,0.367-0.008,0.547-0.02
			l0.826-0.098c0.918-0.158,1.788-0.467,2.576-0.902c0,0,0-0.002,0.001-0.002l0.826-0.525l0,0c0.354-0.256,0.69-0.541,0.998-0.848
			c0.277-0.279,0.526-0.582,0.764-0.895c0.007-0.012,0.015-0.021,0.021-0.031c0.154-0.209,0.299-0.424,0.434-0.648
			c0.015-0.023,0.032-0.049,0.046-0.076c0.123-0.207,0.235-0.42,0.338-0.639c0.021-0.043,0.043-0.084,0.063-0.129
			c0.092-0.201,0.173-0.41,0.249-0.621c0.021-0.061,0.044-0.119,0.065-0.182c0.065-0.199,0.12-0.404,0.172-0.609
			c0.019-0.076,0.041-0.146,0.056-0.221c0.044-0.205,0.076-0.42,0.106-0.631c0.009-0.074,0.024-0.146,0.031-0.221
			c0.032-0.285,0.048-0.572,0.048-0.867c0-0.002,0.002-0.004,0.002-0.006v-5.172C30.781,12.828,30.779,12.826,30.779,12.824z
			 M25.321,20.811c-0.381,0.381-0.834,0.689-1.337,0.9l-0.826,0.246c-0.251,0.047-0.511,0.072-0.774,0.072h-0.45l0,0H8.396
			c-0.264,0-0.523-0.025-0.773-0.072H7.621v0.832c0.253,0.041,0.512,0.066,0.775,0.066h13.581l0,0h0.406
			c0.264,0,0.521-0.025,0.774-0.066c0.283-0.045,0.559-0.111,0.826-0.201c0.73-0.25,1.388-0.658,1.922-1.191
			c0.246-0.246,0.463-0.521,0.654-0.816l-0.021-2.707C26.54,19.02,26.075,20.057,25.321,20.811z"/>
		<path fill="#023F88" d="M7.621,8.873L6.799,9.119c-0.002,0-0.002,0.002-0.002,0.002v18.016c0,0.703,0.285,1.34,0.745,1.799
			C8,29.395,8.637,29.68,9.337,29.68h12.105c0.7,0,1.339-0.285,1.797-0.744c0.46-0.459,0.745-1.096,0.745-1.799v-1.084l-0.826,0.098
			v0.986c0,0.477-0.191,0.904-0.503,1.215s-0.737,0.502-1.213,0.502H9.337c-0.474,0-0.899-0.191-1.211-0.502
			s-0.505-0.738-0.505-1.215V8.873z M4.218,5.682V0.824h2.579v3.953c0,0,0,0,0.002,0L7.621,4.68V0H3.393v6.209
			c0-0.002,0-0.002,0.001-0.002L4.218,5.682z M26.561,25.15v1.986c0,1.414-0.573,2.691-1.5,3.619
			c-0.928,0.93-2.206,1.502-3.618,1.502H9.337c-1.411,0-2.689-0.572-3.617-1.502c-0.926-0.928-1.501-2.205-1.502-3.619v-1.99
			l-0.824-0.523c-0.001,0-0.001,0-0.001,0v2.514c0,1.641,0.669,3.129,1.743,4.203c1.075,1.074,2.564,1.744,4.201,1.742h12.105
			c1.639,0.002,3.127-0.668,4.203-1.742c1.074-1.074,1.742-2.562,1.742-4.203v-2.514l-0.826,0.525
			C26.561,25.148,26.561,25.15,26.561,25.15z M23.158,0v21.957l0.826-0.246V0.824h2.576v4.857c0,0,0,0,0.001,0l0.826,0.525V0H23.158
			z"/>
	</g>
	<g>
		<g>
			<g>
				<g>
					<path fill="#023F88" d="M70.842,18.412c1.609,0,2.834-0.389,3.668-1.164c0.836-0.777,1.252-1.914,1.252-3.408
						c0-0.861-0.15-1.648-0.447-2.359c-0.301-0.707-0.717-1.275-1.258-1.699c-0.434-0.332-0.936-0.566-1.502-0.703
						c-0.568-0.137-1.463-0.207-2.686-0.207h-4.283v18.234h2.117v-8.693h0.312l6.65,8.693h2.752l-6.963-8.693H70.842z
						 M67.703,16.805v-6.102h1.656c1.662,0,2.785,0.234,3.375,0.703s0.885,1.289,0.885,2.459c0,1.088-0.287,1.85-0.859,2.287
						c-0.572,0.436-1.705,0.652-3.4,0.652H67.703z M56.279,20.219c0,1.842-0.391,3.195-1.176,4.061
						c-0.787,0.863-2.016,1.295-3.693,1.295c-1.68,0-2.908-0.432-3.695-1.295c-0.781-0.865-1.174-2.219-1.174-4.061V8.871h-2.195
						v11.348c0,2.465,0.588,4.311,1.766,5.537c1.174,1.225,2.943,1.838,5.299,1.838c2.367,0,4.137-0.613,5.312-1.838
						c1.174-1.227,1.762-3.072,1.762-5.537V8.871h-2.205V20.219z M96.652,27.105h2.354l2.367-5.592h7.123l2.367,5.592h2.354
						l-8.293-18.957L96.652,27.105z M102.02,19.658l2.904-6.715l2.9,6.715H102.02z M131.229,8.871v13.85L117.891,8.148v18.957h2.068
						V13.406l13.338,14.408V8.871H131.229z M89.551,17.441c0.879-0.258,1.551-0.711,2.012-1.359
						c0.461-0.645,0.691-1.451,0.691-2.414c0-0.807-0.16-1.547-0.48-2.225c-0.32-0.676-0.77-1.232-1.352-1.662
						c-0.457-0.332-1.002-0.566-1.639-0.703c-0.633-0.137-1.619-0.207-2.957-0.207h-3.799v18.234h3.799
						c1.785,0,3.057-0.102,3.812-0.311c0.754-0.207,1.391-0.564,1.904-1.07c0.473-0.473,0.842-1.043,1.107-1.707
						c0.268-0.664,0.398-1.361,0.398-2.094c0-1.219-0.311-2.23-0.939-3.031C91.484,18.092,90.629,17.607,89.551,17.441z
						 M84.146,10.752h1.68c1.637,0,2.746,0.234,3.332,0.703c0.586,0.471,0.877,1.289,0.877,2.461c0,1.062-0.314,1.816-0.945,2.268
						c-0.631,0.449-1.719,0.672-3.264,0.672h-1.68V10.752z M90.436,23.496c-0.217,0.471-0.512,0.842-0.885,1.107
						c-0.307,0.223-0.715,0.381-1.227,0.473c-0.512,0.09-1.344,0.137-2.498,0.137h-1.68v-6.652h2.316
						c0.803,0,1.396,0.037,1.781,0.113c0.381,0.076,0.717,0.199,1.008,0.373c0.492,0.275,0.865,0.658,1.121,1.146
						c0.256,0.49,0.385,1.066,0.385,1.73C90.758,22.498,90.65,23.021,90.436,23.496z"/>
				</g>
			</g>
			<g>
				<g>
					<path fill="#0089CF" d="M210.797,8.539c-1.32,0-2.535,0.219-3.65,0.656c-1.111,0.439-2.127,1.1-3.045,1.984
						c-0.949,0.926-1.654,1.953-2.119,3.088c-0.461,1.135-0.693,2.395-0.693,3.775c0,1.59,0.346,3.045,1.039,4.373
						c0.691,1.324,1.691,2.443,3.002,3.352c0.787,0.539,1.629,0.951,2.529,1.236c0.9,0.279,1.826,0.422,2.775,0.422
						c1.096,0,2.16-0.164,3.188-0.498c1.027-0.332,1.986-0.82,2.881-1.469v-2.836c-0.812,0.943-1.709,1.65-2.689,2.127
						c-0.982,0.475-2.047,0.709-3.193,0.709c-1.221,0-2.355-0.275-3.408-0.826c-1.051-0.553-1.938-1.342-2.66-2.365
						c-0.408-0.588-0.717-1.234-0.92-1.938c-0.203-0.707-0.307-1.475-0.307-2.311c0-1.064,0.172-2.037,0.516-2.916
						c0.344-0.881,0.859-1.68,1.549-2.391c0.662-0.686,1.445-1.223,2.352-1.607c0.904-0.385,1.83-0.578,2.781-0.578
						c1.178,0,2.254,0.223,3.229,0.67c0.973,0.445,1.891,1.137,2.752,2.068V10.48c-0.951-0.664-1.912-1.154-2.887-1.469
						S211.834,8.539,210.797,8.539z M167.613,26.947h2.139v-8.879h7.342v-1.99h-7.342V10.92h7.342V8.969h-9.48V26.947z
						 M230.66,10.92V8.969h-9.479v17.979h9.479v-1.988h-7.34v-6.891h7.34v-1.99h-7.34V10.92H230.66z M160.504,11.301
						c-0.9-0.875-1.943-1.551-3.127-2.025c-1.186-0.475-2.414-0.711-3.691-0.711c-1.271,0-2.496,0.236-3.674,0.711
						c-1.182,0.475-2.221,1.15-3.123,2.025c-0.918,0.893-1.615,1.91-2.096,3.053c-0.477,1.143-0.717,2.355-0.717,3.641
						c0,1.277,0.24,2.484,0.717,3.623c0.48,1.139,1.178,2.152,2.096,3.045c0.91,0.885,1.951,1.564,3.129,2.045
						c1.174,0.479,2.396,0.719,3.668,0.719c1.268,0,2.496-0.24,3.68-0.719c1.184-0.48,2.23-1.16,3.139-2.045
						c0.908-0.881,1.602-1.895,2.076-3.033s0.713-2.348,0.713-3.635c0-1.293-0.238-2.51-0.713-3.652S161.412,12.186,160.504,11.301z
						 M160.506,20.83c-0.369,0.895-0.906,1.691-1.609,2.396c-0.715,0.711-1.516,1.254-2.402,1.627
						c-0.891,0.371-1.828,0.559-2.809,0.559c-0.994,0-1.928-0.186-2.811-0.553c-0.879-0.369-1.682-0.912-2.402-1.633
						c-0.711-0.721-1.25-1.523-1.617-2.408c-0.363-0.883-0.547-1.824-0.547-2.824c0-1.008,0.186-1.959,0.553-2.861
						c0.369-0.9,0.908-1.709,1.611-2.42c0.689-0.703,1.48-1.24,2.373-1.607s1.84-0.555,2.84-0.555c0.988,0,1.93,0.188,2.82,0.555
						c0.889,0.367,1.684,0.904,2.391,1.607c0.695,0.697,1.23,1.5,1.604,2.408c0.371,0.908,0.561,1.865,0.561,2.873
						C161.061,18.994,160.875,19.939,160.506,20.83z M181.193,26.947h2.137v-8.879h7.342v-1.99h-7.342V10.92h7.342V8.969h-9.479
						V26.947z M194.797,26.947h2.135V8.969h-2.135V26.947z"/>
				</g>
			</g>
		</g>
	</g>
</g>
</svg>
