<?xml version="1.0" encoding="utf-8"?>
<!-- Generator: Adobe Illustrator 16.0.0, SVG Export Plug-In . SVG Version: 6.00 Build 0)  -->
<!DOCTYPE svg PUBLIC "-//W3C//DTD SVG 1.1//EN" "http://www.w3.org/Graphics/SVG/1.1/DTD/svg11.dtd">
<svg version="1.1" id="Layer_1" xmlns="http://www.w3.org/2000/svg" xmlns:xlink="http://www.w3.org/1999/xlink" x="0px" y="0px"
	 width="173px" height="185.932px" viewBox="0 0 173 185.932" enable-background="new 0 0 173 185.932" xml:space="preserve">
<g>
	<path fill="#FFFFFF" d="M19.249,71.659c-0.049,0.176-0.126,0.318-0.176,0.483v28.991c0.039,0.143,0.104,0.274,0.159,0.428
		c-0.071,15.38-0.165,30.89-0.165,30.89c-0.796-0.68-1.586-1.372-2.322-2.118c-0.527-0.526-1.01-1.098-1.504-1.657
		c-0.741-0.835-1.465-1.702-2.146-2.58c-0.093-0.121-0.187-0.252-0.28-0.384c-0.631-0.846-1.241-1.724-1.817-2.624
		c-0.104-0.197-0.225-0.395-0.351-0.593c-0.516-0.845-1.01-1.724-1.477-2.612c-0.148-0.285-0.274-0.582-0.412-0.878
		c-0.406-0.823-0.796-1.658-1.142-2.515c-0.159-0.405-0.302-0.822-0.45-1.229c-0.28-0.779-0.565-1.559-0.807-2.36
		c-0.159-0.549-0.291-1.098-0.428-1.646c-0.181-0.703-0.373-1.395-0.51-2.108c-0.143-0.746-0.242-1.504-0.346-2.261
		c-0.072-0.549-0.181-1.098-0.231-1.657c-0.131-1.317-0.208-2.656-0.208-4.018c0-0.022-0.011-0.022-0.011-0.044V72.109
		c0-0.011,0.011-0.033,0.011-0.055c0-1.35,0.077-2.689,0.208-4.006c0.05-0.56,0.159-1.109,0.231-1.669
		c0.104-0.757,0.203-1.515,0.346-2.25c0.137-0.714,0.329-1.416,0.51-2.107c0.137-0.549,0.269-1.109,0.428-1.658
		c0.241-0.801,0.527-1.569,0.807-2.349c0.148-0.406,0.291-0.823,0.45-1.229c0.346-0.856,0.735-1.69,1.142-2.525
		c0.137-0.296,0.264-0.582,0.412-0.867c0.466-0.9,0.96-1.767,1.477-2.624c0.126-0.197,0.247-0.384,0.351-0.582
		c0.576-0.9,1.186-1.778,1.817-2.634c0.093-0.121,0.187-0.252,0.28-0.374c0.681-0.889,1.405-1.756,2.146-2.59
		c0.494-0.549,0.977-1.12,1.504-1.658c0.735-0.735,1.526-1.416,2.322-2.107c1.46-1.251,3.019-2.404,4.638-3.458
		c4.353-2.788,9.237-4.786,14.496-5.785c1.515-0.296,3.068-0.483,4.632-0.604c1.021-0.077,2.047-0.143,3.09-0.143h1.421l0,0h79.738
		c1.038,0,2.053,0.066,3.074,0.143v-4.676c-1.01-0.055-2.042-0.121-3.074-0.121H45.923c-1.037,0-2.058,0.066-3.079,0.121h-0.011
		l-4.622,0.549c-0.011,0-0.011,0-0.011,0c-5.17,0.878-10.061,2.623-14.49,5.082h-0.005l-4.632,2.953c-0.005,0-0.005,0-0.005,0.011
		c-1.992,1.438-3.875,3.03-5.604,4.753c-3.436,3.447-6.29,7.443-8.496,11.812c-0.088,0.165-0.159,0.33-0.236,0.483
		c-0.625,1.273-1.196,2.568-1.701,3.896c-0.137,0.373-0.286,0.758-0.417,1.142c-0.401,1.153-0.758,2.316-1.065,3.513
		c-0.132,0.483-0.269,0.966-0.384,1.46c-0.269,1.175-0.466,2.371-0.642,3.579C0.45,66.017,0.357,66.5,0.307,66.983
		C0.115,68.673,0,70.375,0,72.098v29.068c0,1.734,0.115,3.436,0.307,5.115c0.05,0.493,0.143,0.966,0.214,1.46
		c0.176,1.207,0.373,2.404,0.642,3.567c0.115,0.505,0.252,0.978,0.384,1.46c0.307,1.196,0.664,2.371,1.065,3.523
		c0.131,0.385,0.28,0.758,0.417,1.142c0.505,1.328,1.076,2.624,1.701,3.908c0.077,0.153,0.148,0.308,0.236,0.461
		c2.206,4.38,5.061,8.387,8.496,11.812c1.729,1.734,3.612,3.326,5.604,4.775c0,0,0,0,0.005,0l4.632,2.941V57.642
		c-2.585,4.018-4.182,8.727-4.429,13.798C19.259,71.396,19.254,71.429,19.249,71.659z M42.844,49.869
		c1.405-0.274,2.865-0.417,4.347-0.417h76.083l0,0h2.53c1.481,0,2.942,0.143,4.353,0.417v-4.676
		c-1.428-0.22-2.871-0.374-4.353-0.374h-2.283l0,0h-76.33c-1.482,0-2.937,0.154-4.358,0.374c-1.592,0.241-3.14,0.625-4.632,1.119
		c-4.105,1.405-7.799,3.711-10.802,6.707c-1.389,1.395-2.618,2.953-3.694,4.622l0.132,15.181c0-6.455,2.618-12.284,6.844-16.51
		c2.146-2.152,4.693-3.875,7.52-5.049c0,0,0-0.011,0.011-0.011l4.622-1.383H42.844z M172.988,72.076
		c0-1.657-0.087-3.271-0.268-4.874c-0.039-0.417-0.127-0.834-0.176-1.24c-0.17-1.196-0.352-2.382-0.599-3.546
		c-0.083-0.417-0.214-0.823-0.313-1.24c-0.291-1.164-0.598-2.305-0.965-3.436c-0.121-0.341-0.248-0.67-0.368-1.01
		c-0.429-1.186-0.884-2.35-1.399-3.491c-0.115-0.252-0.236-0.483-0.357-0.735c-0.576-1.219-1.207-2.415-1.898-3.579
		c-0.077-0.154-0.176-0.296-0.258-0.439c-0.758-1.24-1.57-2.459-2.438-3.634c-0.038-0.055-0.082-0.12-0.121-0.164
		c-1.334-1.768-2.732-3.48-4.291-5.039c-1.729-1.734-3.617-3.315-5.609-4.764l0,0l-4.645-2.953c-0.005,0-0.005,0-0.005,0v83.734
		c2.849-4.381,4.528-9.605,4.528-15.215v-2.48c0.033,0.065,0.082,0.131,0.121,0.197v-57.29c0.564,0.494,1.158,0.978,1.701,1.482
		c-0.012,0.021-0.012,0.033-0.012,0.033c5.829,5.598,10.039,12.854,11.817,21.032c0.005,0.066,0.032,0.121,0.044,0.187
		c0.247,1.174,0.422,2.36,0.565,3.568c0.022,0.219,0.077,0.417,0.099,0.637c0.143,1.383,0.22,2.788,0.22,4.193
		c0,0.033,0.005,0.066,0.005,0.099v29.057c0,0.021-0.005,0.055-0.005,0.087c0,1.416-0.077,2.822-0.22,4.205
		c-0.021,0.208-0.076,0.417-0.099,0.637c-0.144,1.207-0.318,2.393-0.565,3.567c-0.012,0.065-0.039,0.12-0.044,0.187
		c-1.778,8.167-5.988,15.423-11.817,21.032c0,0,0,0.022,0.012,0.022c-0.543,0.526-1.137,0.998-1.701,1.492
		c-1.477,1.273-3.02,2.459-4.649,3.502c-4.341,2.788-9.237,4.797-14.479,5.807c-1.514,0.285-3.072,0.473-4.643,0.582
		c-1.021,0.077-2.036,0.153-3.074,0.153H47.344l0,0h-1.421c-1.043,0-2.069-0.076-3.09-0.153v4.688h0.011
		c1.021,0.055,2.042,0.109,3.079,0.109h81.159c1.032,0,2.064-0.044,3.074-0.109l4.643-0.549c5.16-0.89,10.051-2.624,14.479-5.072
		c0,0,0-0.011,0.005-0.011l4.645-2.952l0,0c1.992-1.438,3.88-3.041,5.609-4.765c1.559-1.569,2.957-3.271,4.291-5.027
		c0.039-0.065,0.083-0.121,0.121-0.176c0.867-1.175,1.68-2.382,2.438-3.645c0.082-0.132,0.181-0.274,0.258-0.428
		c0.691-1.164,1.322-2.36,1.898-3.59c0.121-0.241,0.242-0.472,0.357-0.725c0.516-1.13,0.971-2.305,1.399-3.49
		c0.12-0.341,0.247-0.67,0.368-1.021c0.367-1.119,0.674-2.272,0.965-3.425c0.105-0.428,0.23-0.823,0.313-1.24
		c0.247-1.152,0.429-2.36,0.599-3.545c0.049-0.418,0.137-0.824,0.176-1.241c0.181-1.603,0.268-3.216,0.268-4.874
		c0-0.011,0.012-0.021,0.012-0.032V72.098C173,72.098,172.988,72.087,172.988,72.076z M142.313,116.962
		c-2.141,2.141-4.688,3.875-7.515,5.061l-4.643,1.383c-1.41,0.264-2.871,0.406-4.353,0.406h-2.53l0,0H47.191
		c-1.482,0-2.942-0.143-4.347-0.406h-0.011v4.676c1.421,0.231,2.876,0.374,4.358,0.374h76.33l0,0h2.283
		c1.481,0,2.925-0.143,4.353-0.374c1.592-0.252,3.139-0.625,4.643-1.13c4.105-1.405,7.8-3.699,10.803-6.696
		c1.383-1.383,2.602-2.931,3.677-4.588l-0.115-15.215C149.163,106.896,146.551,112.725,142.313,116.962z"/>
	<path fill="#FFFFFF" d="M42.833,49.869l-4.622,1.383c-0.011,0-0.011,0.011-0.011,0.011v101.253c0,3.952,1.603,7.53,4.188,10.11
		c2.574,2.579,6.153,4.183,10.088,4.183h68.037c3.936,0,7.524-1.604,10.099-4.183c2.586-2.58,4.188-6.158,4.188-10.11v-6.092
		l-4.643,0.549v5.543c0,2.679-1.076,5.082-2.826,6.828c-1.752,1.745-4.145,2.821-6.817,2.821H52.476
		c-2.662,0-5.055-1.076-6.806-2.821c-1.751-1.746-2.837-4.149-2.837-6.828V49.869z M23.705,31.933v-27.3h14.496v22.218
		c0,0,0,0,0.011,0l4.622-0.549V0H19.067v34.896c0-0.011,0-0.011,0.005-0.011L23.705,31.933z M149.278,141.353v11.164
		c0,7.947-3.222,15.127-8.431,20.341c-5.214,5.226-12.398,8.441-20.335,8.441H52.476c-7.931,0-15.115-3.216-20.33-8.441
		c-5.203-5.214-8.436-12.394-8.441-20.341v-11.186l-4.632-2.941c-0.005,0-0.005,0-0.005,0v14.127c0,9.221,3.76,17.586,9.797,23.623
		c6.043,6.037,14.413,9.803,23.612,9.792h68.037c9.21,0.011,17.574-3.755,23.623-9.792c6.037-6.037,9.792-14.402,9.792-23.623
		V138.39l-4.645,2.952C149.278,141.342,149.278,141.353,149.278,141.353z M130.156,0v123.405l4.643-1.383V4.633h14.479v27.3
		c0,0,0,0,0.005,0l4.645,2.953V0H130.156z"/>
</g>
</svg>
