<?xml version="1.0" encoding="UTF-8"?>
<svg width="62px" height="58px" viewBox="0 0 62 58" version="1.1" xmlns="http://www.w3.org/2000/svg" xmlns:xlink="http://www.w3.org/1999/xlink">
    <title>virtual-office</title>
    <g id="Main-Screens" stroke="none" stroke-width="1" fill="none" fill-rule="evenodd">
        <g id="Artboard" transform="translate(-818.000000, -503.000000)" fill="#000000" fill-rule="nonzero">
            <g id="On-site-amenities" transform="translate(-134.000000, 0.000000)">
                <g id="Amenities-New" transform="translate(175.000000, 198.000000)">
                    <g id="Amenities-Row-2" transform="translate(0.000000, 268.000000)">
                        <g id="Snacks" transform="translate(666.000000, 0.000000)">
                            <g id="Group-7" transform="translate(21.000000, 37.000000)">
                                <g id="virtual-office" transform="translate(90.000000, 0.000000)">
                                    <path d="M48.8813047,17.6887554 C48.4262661,17.1192103 47.9383691,16.5655966 47.4305579,16.0428498 L46.0017167,17.4288755 C46.464721,17.9068155 46.9107983,18.4126352 47.3260086,18.9323948 L48.8813047,17.6887554 Z" id="Path"></path>
                                    <path d="M49.5175622,22.2819571 L51.2809614,21.3569442 C50.9404292,20.7087382 50.5660429,20.071485 50.1687554,19.4650987 L48.5029356,20.5603777 C48.8653734,21.1100086 49.2069013,21.6905064 49.5175622,22.2819571 L49.5175622,22.2819571 Z" id="Path"></path>
                                    <path d="M45.8274678,14.5423176 C45.2718627,14.0703519 44.6883777,13.6192961 44.0919485,13.2030901 L42.9518627,14.8340601 C43.4955193,15.2154163 44.0292189,15.6306266 44.53703,16.0597768 L45.8274678,14.5423176 Z" id="Path"></path>
                                    <path d="M51.8017167,29.9160515 L53.7841717,29.7169099 C53.7124807,28.9870558 53.6049442,28.256206 53.4645494,27.543279 L51.51097,27.928618 C51.6364292,28.5827983 51.7350043,29.2499227 51.8017167,29.9160515 Z" id="Path"></path>
                                    <path d="M51.0280515,25.9889785 L52.9358283,25.4174421 C52.7277253,24.7204464 52.4817854,24.0234506 52.20697,23.3483605 L50.3619227,24.0991245 C50.6138369,24.7184549 50.8378712,25.3517253 51.0280515,25.9889785 L51.0280515,25.9889785 Z" id="Path"></path>
                                    <path d="M51.8136652,33.919794 L53.7961202,34.1020086 C53.8598455,33.4050129 53.895691,32.6930815 53.895691,31.9114506 L51.9012876,31.9871245 C51.9012876,32.6323433 51.8714163,33.2815451 51.8136652,33.919794 Z" id="Path"></path>
                                    <path d="M26.1124464,54.3666609 C26.7506953,54.5050644 27.4018884,54.6175794 28.0490987,54.7002232 L28.3010129,52.7257339 C27.7115536,52.6490644 27.1171159,52.5465064 26.5356223,52.4200515 L26.1124464,54.3666609 Z" id="Path"></path>
                                    <path d="M30.0853219,52.8770815 L29.9986953,54.8684979 C30.3286066,54.881774 30.6595136,54.888412 30.9914163,54.888412 C31.3170129,54.888412 31.640618,54.8814421 31.9642232,54.8675021 L31.879588,52.8760858 C31.2831588,52.9039657 30.6797597,52.90297 30.0853219,52.8770815 L30.0853219,52.8770815 Z" id="Path"></path>
                                    <path d="M22.3586266,53.2056652 C22.9660086,53.4526009 23.5883262,53.6756395 24.2086524,53.8668155 L24.7961202,51.9640172 C24.2315536,51.7897682 23.664,51.5866438 23.1093906,51.360618 L22.3586266,53.2056652 Z" id="Path"></path>
                                    <path d="M37.1648069,51.9699914 L37.751279,53.8727897 C38.3745923,53.680618 38.9969099,53.4575794 39.6023004,53.2116395 L38.8575107,51.367588 C38.3048927,51.5916223 37.7363433,51.7947468 37.1648069,51.9699914 Z" id="Path"></path>
                                    <path d="M33.6678798,52.7267296 L33.919794,54.7022146 C34.5660086,54.6195708 35.2142146,54.503073 35.8564464,54.3696481 L35.4352618,52.4230386 C34.8517768,52.5494936 34.2573391,52.6520515 33.6678798,52.7267296 Z" id="Path"></path>
                                    <path d="M10.1681717,33.8968927 C10.1104206,33.2666094 10.0815451,32.623382 10.0815451,31.9871245 L10.0815451,31.8875536 L8.09012876,31.9871245 C8.09012876,32.6841202 8.12199142,33.3860944 8.18969957,34.0781116 L10.1681717,33.8968927 Z" id="Path"></path>
                                    <path d="M11.6268841,24.0831931 L9.78283262,23.3294421 C9.50801717,24.0025408 9.26207725,24.6985408 9.05198283,25.3975279 L10.9597597,25.9700601 C11.1509356,25.3318112 11.3759657,24.6975451 11.6268841,24.0831931 L11.6268841,24.0831931 Z" id="Path"></path>
                                    <path d="M19.0429185,14.8270901 L17.9038283,13.1941288 C17.3064034,13.6123262 16.7199313,14.063382 16.1663176,14.5343519 L17.4497854,16.055794 C17.959588,15.6206695 18.4922918,15.2084464 19.0429185,14.8270901 L19.0429185,14.8270901 Z" id="Path"></path>
                                    <path d="M10.4798283,27.9126867 L8.52425751,27.5263519 C8.38286695,28.2412704 8.27533047,28.9721202 8.20264378,29.6969957 L10.1850987,29.8961373 C10.2498197,29.232 10.3493906,28.5648755 10.4798283,27.9126867 L10.4798283,27.9126867 Z" id="Path"></path>
                                    <path d="M13.4878627,20.5424549 L11.8230386,19.447176 C11.4247554,20.0575451 11.0483777,20.6938026 10.7098369,21.3390215 L12.4722403,22.2660258 C12.7819056,21.6805494 13.1234335,21.1000515 13.4878627,20.5424549 L13.4878627,20.5424549 Z" id="Path"></path>
                                    <path d="M15.9900773,17.4209099 L14.5622318,16.0328927 C14.0554163,16.5536481 13.5665236,17.1072618 13.1104893,17.6758112 L14.663794,18.9224378 C15.0819914,18.4016824 15.5280687,17.8968584 15.9900773,17.4209099 Z" id="Path"></path>
                                    <path d="M50.9055794,35.9699571 C47.8094859,35.9716286 44.8598536,37.2884481 42.7915536,39.5923433 L36.2965494,34.7213391 C37.1745009,33.0293145 37.189563,31.0192908 36.3370672,29.314299 C35.4845713,27.6093073 33.867515,26.4153428 31.9871245,26.1024893 L31.9871245,21.9792618 C37.8181498,21.4469645 42.1992864,16.4226615 41.9328618,10.5734552 C41.6664372,4.72424887 36.8466872,0.119035765 30.9914163,0.119035765 C25.1361455,0.119035765 20.3163954,4.72424887 20.0499708,10.5734552 C19.7835462,16.4226615 24.1646828,21.4469645 29.9957082,21.9792618 L29.9957082,26.1024893 C28.1152629,26.4156399 26.4982539,27.6098134 25.6457909,29.3149364 C24.7933279,31.0200594 24.8083802,33.0301693 25.6862833,34.7223348 L19.1922747,39.5923433 C15.2568496,35.2323598 8.58808481,34.7391369 4.05405833,38.4727184 C-0.479968156,42.2062998 -1.2752138,48.8458237 2.24883638,53.5445573 C5.77288655,58.2432908 12.3694982,59.3389217 17.2232639,56.0316591 C22.0770295,52.7243965 23.4707896,46.1842798 20.3871245,41.1854764 L26.8821288,36.3154678 C29.1803944,38.5124932 32.8004468,38.5124932 35.0987124,36.3154678 L41.5937167,41.1854764 C38.9869081,45.4299803 39.5758487,50.8994855 43.026497,54.4917399 C46.4771452,58.0839942 51.9185568,58.8923121 56.2644141,56.458223 C60.6102714,54.024134 62.7636791,48.9620027 61.5032446,44.1430226 C60.24281,39.3240424 55.8866672,35.964525 50.9055794,35.9699571 L50.9055794,35.9699571 Z M7.0944206,54.9381974 L7.0944206,52.8969957 C7.0944206,50.697338 8.8775955,48.9141631 11.0772532,48.9141631 C13.2769109,48.9141631 15.0600858,50.697338 15.0600858,52.8969957 L15.0600858,54.9381974 C12.5544865,56.1988015 9.60001993,56.1988015 7.0944206,54.9381974 Z M9.08583691,44.9313305 L9.08583691,43.9356223 C9.08583691,42.8357935 9.97742436,41.944206 11.0772532,41.944206 C12.1770821,41.944206 13.0686695,42.8357935 13.0686695,43.9356223 L13.0686695,44.9313305 C13.0686695,46.0311593 12.1770821,46.9227468 11.0772532,46.9227468 C9.97742436,46.9227468 9.08583691,46.0311593 9.08583691,44.9313305 Z M17.0515021,53.5830386 L17.0515021,52.8969957 C17.0502404,50.7200856 15.8649838,48.7161741 13.9578369,47.6665408 C14.6636079,46.9306592 15.0584146,45.9509537 15.0600858,44.9313305 L15.0600858,43.9356223 C15.0600858,41.7359646 13.2769109,39.9527897 11.0772532,39.9527897 C8.8775955,39.9527897 7.0944206,41.7359646 7.0944206,43.9356223 L7.0944206,44.9313305 C7.09609184,45.9509537 7.49089852,46.9306592 8.19666953,47.6665408 C6.28952266,48.7161741 5.10426603,50.7200856 5.10300429,52.8969957 L5.10300429,53.5830386 C2.33361229,51.1060191 1.38000298,47.176954 2.7057859,43.7060093 C4.03156882,40.2350645 7.36172395,37.9422519 11.0772532,37.9422519 C14.7927825,37.9422519 18.1229376,40.2350645 19.4487205,43.7060093 C20.7745035,47.176954 19.8208942,51.1060191 17.0515021,53.5830386 L17.0515021,53.5830386 Z M29,9.08583691 L29,8.09012876 C29,6.9902999 29.8915875,6.09871245 30.9914163,6.09871245 C32.0912452,6.09871245 32.9828326,6.9902999 32.9828326,8.09012876 L32.9828326,9.08583691 C32.9828326,10.1856658 32.0912452,11.0772532 30.9914163,11.0772532 C29.8915875,11.0772532 29,10.1856658 29,9.08583691 Z M30.9914163,13.0686695 C33.191074,13.0686695 34.9742489,14.8518444 34.9742489,17.0515021 L34.9742489,19.0927039 C32.4686496,20.353308 29.514183,20.353308 27.0085837,19.0927039 L27.0085837,17.0515021 C27.0085837,14.8518444 28.7917586,13.0686695 30.9914163,13.0686695 L30.9914163,13.0686695 Z M22.0300223,11.0772532 C22.0212596,6.95700578 24.8231233,3.36171297 28.8206731,2.36365884 C32.8182228,1.3656047 36.9811932,3.22201197 38.9100976,6.86286955 C40.839002,10.5037271 40.036715,14.9906978 36.9656652,17.7375451 L36.9656652,17.0515021 C36.9644035,14.874592 35.7791469,12.8706805 33.872,11.8210472 C34.577771,11.0851656 34.9725777,10.1054602 34.9742489,9.08583691 L34.9742489,8.09012876 C34.9742489,5.89047104 33.191074,4.10729614 30.9914163,4.10729614 C28.7917586,4.10729614 27.0085837,5.89047104 27.0085837,8.09012876 L27.0085837,9.08583691 C27.0102549,10.1054602 27.4050616,11.0851656 28.1108326,11.8210472 C26.2036858,12.8706805 25.0184291,14.874592 25.0171674,17.0515021 L25.0171674,17.7375451 C23.11839,16.0441595 22.0318081,13.6214441 22.0300223,11.0772532 L22.0300223,11.0772532 Z M30.9914163,35.9699571 C28.7917586,35.9699571 27.0085837,34.1867822 27.0085837,31.9871245 C27.0085837,29.7874667 28.7917586,28.0042918 30.9914163,28.0042918 C33.191074,28.0042918 34.9742489,29.7874667 34.9742489,31.9871245 C34.9742489,34.1867822 33.191074,35.9699571 30.9914163,35.9699571 Z M46.9227468,54.9381974 L46.9227468,52.8969957 C46.9227468,50.697338 48.7059217,48.9141631 50.9055794,48.9141631 C53.1052371,48.9141631 54.888412,50.697338 54.888412,52.8969957 L54.888412,54.9381974 C52.3828127,56.1988015 49.4283461,56.1988015 46.9227468,54.9381974 Z M48.9141631,44.9313305 L48.9141631,43.9356223 C48.9141631,42.8357935 49.8057505,41.944206 50.9055794,41.944206 C52.0054083,41.944206 52.8969957,42.8357935 52.8969957,43.9356223 L52.8969957,44.9313305 C52.8969957,46.0311593 52.0054083,46.9227468 50.9055794,46.9227468 C49.8057505,46.9227468 48.9141631,46.0311593 48.9141631,44.9313305 Z M56.8798283,53.5830386 L56.8798283,52.8969957 C56.8785666,50.7200856 55.69331,48.7161741 53.7861631,47.6665408 C54.4919341,46.9306592 54.8867408,45.9509537 54.888412,44.9313305 L54.888412,43.9356223 C54.888412,41.7359646 53.1052371,39.9527897 50.9055794,39.9527897 C48.7059217,39.9527897 46.9227468,41.7359646 46.9227468,43.9356223 L46.9227468,44.9313305 C46.924418,45.9509537 47.3192247,46.9306592 48.0249957,47.6665408 C46.1178488,48.7161741 44.9325922,50.7200856 44.9313305,52.8969957 L44.9313305,53.5830386 C42.1619385,51.1060191 41.2083292,47.176954 42.5341121,43.7060093 C43.859895,40.2350645 47.1900501,37.9422519 50.9055794,37.9422519 C54.6211087,37.9422519 57.9512638,40.2350645 59.2770467,43.7060093 C60.6028296,47.176954 59.6492203,51.1060191 56.8798283,53.5830386 L56.8798283,53.5830386 Z" id="Shape"></path>
                                </g>
                            </g>
                        </g>
                    </g>
                </g>
            </g>
        </g>
    </g>
</svg>