<?xml version="1.0" standalone="no"?>
<!DOCTYPE svg PUBLIC "-//W3C//DTD SVG 20010904//EN"
 "http://www.w3.org/TR/2001/REC-SVG-20010904/DTD/svg10.dtd">
<svg version="1.0" xmlns="http://www.w3.org/2000/svg"
 width="512.000000pt" height="512.000000pt" viewBox="0 0 512.000000 512.000000"
 preserveAspectRatio="xMidYMid meet">

<g transform="translate(0.000000,512.000000) scale(0.100000,-0.100000)"
fill="#000000" stroke="none">
<path d="M1749 5097 c-24 -13 -57 -43 -74 -66 l-30 -43 -3 -178 -4 -179 26
-26 c32 -32 70 -32 101 0 24 23 25 28 25 179 0 127 3 157 16 170 14 14 158 16
1433 16 1089 0 1420 -3 1429 -12 9 -9 12 -189 12 -750 l0 -738 -115 0 -115 0
0 415 c0 402 -1 416 -20 435 -39 39 -105 17 -216 -71 -178 -141 -314 -392
-364 -670 -6 -35 -13 -74 -16 -86 l-4 -23 -1020 0 -1020 0 0 404 c0 222 -3
412 -6 421 -18 45 -111 48 -134 5 -6 -12 -10 -251 -10 -633 l0 -614 23 -44
c13 -24 43 -57 66 -74 l43 -30 536 -5 537 -5 3 -132 3 -133 -852 0 -851 0 30
38 c44 56 91 155 112 237 21 83 45 342 35 386 -12 55 -28 59 -262 59 l-213 0
0 70 0 70 73 0 c224 0 416 177 421 388 1 60 -1 65 -31 92 -89 79 -295 77 -415
-5 -20 -14 -39 -25 -42 -25 -4 0 -6 28 -6 62 0 60 1 62 51 115 150 159 153
413 5 571 -92 98 -165 105 -245 23 -166 -170 -171 -426 -12 -594 50 -53 51
-55 51 -116 0 -35 -3 -61 -7 -59 -5 2 -44 21 -87 43 -75 38 -84 40 -170 40
-108 0 -169 -16 -208 -55 -25 -25 -28 -35 -28 -94 0 -92 29 -163 97 -237 93
-99 203 -149 334 -149 l69 0 0 -70 0 -70 -235 0 c-302 0 -280 16 -272 -199 9
-228 46 -362 133 -475 l35 -46 -154 0 c-138 0 -157 -2 -178 -19 l-24 -19 -3
-1265 -2 -1264 21 -27 c26 -33 79 -36 109 -6 19 19 20 33 20 210 l0 190 680 0
680 0 0 -194 c0 -190 1 -195 22 -210 32 -23 81 -20 104 5 18 20 19 53 22 990
l2 969 1323 -2 1322 -3 3 -102 3 -103 -673 0 c-370 0 -710 -4 -756 -10 -118
-13 -205 -37 -297 -80 -103 -48 -180 -111 -238 -197 -62 -91 -88 -167 -94
-281 -5 -87 -4 -94 17 -117 l23 -25 499 0 498 0 0 -65 0 -65 -144 0 c-163 0
-199 -8 -216 -51 -16 -37 2 -87 34 -94 11 -3 89 -6 171 -8 l150 -2 0 -315 0
-315 -495 -2 c-491 -3 -495 -3 -512 -24 -23 -28 -23 -71 1 -100 l19 -24 1067
0 1067 0 19 24 c23 28 24 69 3 99 l-15 22 -500 0 -499 0 0 459 0 459 323 4
c297 4 327 6 387 26 122 40 195 104 246 215 44 97 55 175 61 435 l6 242 253 0
254 0 0 -369 0 -370 26 -20 c35 -28 69 -26 99 4 l25 24 0 651 c0 689 -1 697
-45 714 -9 3 -154 6 -321 6 l-304 0 0 135 0 135 110 0 c151 0 206 25 251 112
18 36 19 73 19 998 0 925 -1 962 -19 998 -24 47 -56 77 -103 97 -33 13 -200
15 -1476 15 l-1439 0 -44 -23z m-902 -586 c37 -96 14 -229 -51 -290 l-23 -22
-31 35 c-33 38 -62 118 -62 171 0 52 27 128 61 168 l32 38 28 -27 c16 -15 37
-48 46 -73z m3453 -1323 l0 -932 -31 30 c-58 55 -122 149 -170 249 -93 194
-130 384 -130 660 0 358 77 636 229 825 36 44 90 100 98 100 2 0 4 -419 4
-932z m-3784 675 c86 -29 190 -156 170 -208 -7 -20 -99 -20 -159 1 -81 27
-152 104 -172 186 -5 20 -3 27 12 31 40 10 102 6 149 -10z m658 11 c34 -13 7
-93 -52 -152 -53 -52 -125 -82 -200 -82 -75 0 -82 10 -54 72 29 65 66 104 134
137 60 30 132 40 172 25z m2645 -689 l0 -135 -999 0 c-894 0 -1000 2 -1014 16
-13 12 -16 40 -16 135 l0 119 1014 0 1015 0 0 -135z m861 12 c0 -82 -4 -127
-12 -135 -8 -8 -48 -12 -115 -12 l-103 0 0 135 0 135 115 0 115 0 0 -123z
m-3513 -94 c-14 -225 -83 -360 -215 -425 -65 -32 -70 -33 -197 -33 -127 0
-132 1 -197 33 -39 19 -80 49 -98 70 -65 78 -104 201 -116 366 l-7 86 418 0
418 0 -6 -97z m2313 -338 l0 -135 -240 0 -240 0 0 135 0 135 240 0 240 0 0
-135z m378 22 c13 -61 26 -122 29 -134 5 -23 5 -23 -126 -23 l-131 0 0 135 0
135 103 0 102 0 23 -113z m113 -339 c24 -57 110 -181 172 -245 l60 -63 -2026
0 -2027 0 0 170 0 170 1904 0 1904 0 13 -32z m999 -138 l0 -170 -260 0 -260 0
0 170 0 170 260 0 260 0 0 -170z m-3462 -637 l2 -313 -680 0 -680 0 0 315 0
315 678 -2 677 -3 3 -312z m2798 -75 c-3 -18 -8 -57 -11 -87 -18 -164 -90
-250 -233 -280 -36 -7 -308 -11 -859 -11 l-805 0 6 38 c10 57 62 155 106 201
51 52 106 87 188 118 128 48 186 51 925 52 l688 1 -5 -32z m-2796 -703 l0
-315 -680 0 -680 0 0 315 0 315 680 0 680 0 0 -315z"/>
<path d="M500 1730 c-31 -31 -30 -85 2 -112 18 -16 50 -18 333 -18 l314 0 20
26 c28 35 26 69 -4 99 l-24 25 -311 0 c-297 0 -311 -1 -330 -20z"/>
<path d="M500 950 c-31 -31 -30 -85 2 -112 18 -16 50 -18 333 -18 l314 0 20
26 c28 35 26 69 -4 99 l-24 25 -311 0 c-297 0 -311 -1 -330 -20z"/>
<path d="M4996 919 l-26 -20 0 -425 c0 -411 1 -425 20 -444 30 -30 83 -27 110
7 20 26 21 33 18 446 l-3 419 -24 19 c-30 25 -62 24 -95 -2z"/>
</g>
</svg>
