<?xml version="1.0" encoding="utf-8"?>
<!-- Generator: Adobe Illustrator 16.0.0, SVG Export Plug-In . SVG Version: 6.00 Build 0)  -->
<!DOCTYPE svg PUBLIC "-//W3C//DTD SVG 1.1//EN" "http://www.w3.org/Graphics/SVG/1.1/DTD/svg11.dtd">
<svg version="1.1" id="Layer_1" xmlns="http://www.w3.org/2000/svg" xmlns:xlink="http://www.w3.org/1999/xlink" x="0px" y="0px"
	 width="222.342px" height="45.093px" viewBox="0 0 222.342 45.093" enable-background="new 0 0 222.342 45.093"
	 xml:space="preserve">
<g>
	<path fill="#FFFFFF" d="M5.287,11.291l4.696-8.132l0.978,0.563l0.772-1.336l0.162-0.28l0.25,0.143l1.307,0.755l0.673-1.167
		l0.162-0.281l0.28,0.162l11.125,6.424V0h9.392v1.129h1.542h0.324v0.289v1.508h1.348h0.324V3.25v13.048l7.906-4.565l4.697,8.135
		l-0.979,0.564l0.771,1.336l0.162,0.279l-0.25,0.146l-1.307,0.753l0.674,1.169l0.162,0.279l-0.28,0.161l-10.544,6.087l5.917,3.417
		l-4.696,8.134l-0.978-0.564l-0.771,1.336l-0.162,0.281l-0.25-0.145l-1.308-0.755l-0.674,1.167l-0.162,0.281l-0.28-0.162
		l-11.512-6.646v8.104l-9.392,0.002V43.96h-1.542H13.5v-0.287v-1.508h-1.348h-0.325v-0.326V30.141l-7.135,4.118L0,26.128
		l0.979-0.565l-0.772-1.337l-0.161-0.279l0.25-0.145l1.307-0.754l-0.674-1.167l-0.162-0.28l0.281-0.161l10.908-6.3L5.287,11.291
		L5.287,11.291z M35.085,1.707v16.635l1.219-0.704V2.926V1.707H35.085L35.085,1.707z M36.952,17.265l1.024-0.591V3.575h-1.024
		V17.265L36.952,17.265z M11.46,4.011l14.233,8.216V10.82L13.408,3.728l-0.281-0.163l-1.056-0.611L11.46,4.011L11.46,4.011z
		 M25.693,10.071V8.889L14.524,2.442l-0.512,0.886L25.693,10.071L25.693,10.071z M1.478,25.276l13.893-8.021V17.13h0.028
		l-1.125-0.649L0.868,24.22L1.478,25.276L1.478,25.276z M2.161,22.725l11.466-6.618l-1.026-0.592L1.648,21.837L2.161,22.725
		L2.161,22.725z M49.75,20.721l-13.65,7.88l1.219,0.703l13.04-7.529L49.75,20.721L49.75,20.721z M49.065,23.272l-11.099,6.407
		l1.025,0.591l10.586-6.112L49.065,23.272L49.065,23.272z M39.381,41.341l-14.619-8.44v1.406l14.01,8.09L39.381,41.341
		L39.381,41.341z M24.762,35.056v1.184l11.556,6.672l0.512-0.888L24.762,35.056L24.762,35.056z M15.37,43.386V28.099l-1.218,0.703
		v14.584H15.37L15.37,43.386z M13.503,29.177l-1.024,0.591V41.52h1.024V29.177L13.503,29.177z"/>
	<path fill="#2C6742" stroke="#FFFFFF" stroke-width="0.216" stroke-miterlimit="22.9256" d="M24.876,29.027
		c-2.193-0.085-3.9-0.738-5.12-1.961c-1.221-1.221-1.831-2.671-1.831-4.347c0-1.77,0.458-3.341,1.372-4.713
		c0.915-1.374,2.361-2.357,4.337-2.945c-1.206,0.926-2.005,1.924-2.397,2.989c-0.392,1.065-0.588,2.261-0.588,3.586
		c0,1.844,0.331,3.222,0.992,4.138c0.661,0.917,1.391,1.556,2.189,1.916c0.117,0.048,0.236,0.097,0.359,0.146
		c0.124,0.047,0.244,0.09,0.36,0.127c-0.073-0.241-0.2-0.459-0.382-0.65c-0.181-0.193-0.41-0.387-0.686-0.579
		c-0.044-0.024-0.086-0.051-0.131-0.081c-0.044-0.031-0.086-0.059-0.13-0.081c0.073,0.013,0.146,0.022,0.218,0.036
		c0.073,0.012,0.139,0.03,0.197,0.055c0.494,0.096,0.912,0.207,1.252,0.334c0.343,0.127,0.673,0.34,0.993,0.642
		c0.086,0.085,0.177,0.175,0.272,0.271c0.094,0.098,0.185,0.203,0.272,0.324c0.087,0,0.167,0,0.24,0
		c0.072,0,0.138-0.005,0.196-0.018c0.043,0,0.08,0,0.108,0c0.029,0,0.044,0,0.044,0V16.957l-1.33,0.542l-0.065,6.053
		c0,0.544-0.134,0.979-0.403,1.311s-0.563,0.582-0.883,0.749c-0.334,0.183-0.635,0.302-0.904,0.361
		c-0.27,0.062-0.403,0.091-0.403,0.091s0.019-0.021,0.055-0.063c0.036-0.043,0.076-0.105,0.119-0.19
		c0.044-0.095,0.084-0.218,0.12-0.36c0.037-0.146,0.055-0.32,0.055-0.525v-5.527c0-0.277-0.105-0.476-0.316-0.597
		c-0.21-0.119-0.541-0.181-0.991-0.181c0.262-0.059,0.584-0.165,0.97-0.316c0.385-0.15,0.781-0.315,1.188-0.496
		c0.087-0.036,0.174-0.075,0.262-0.117c0.086-0.042,0.174-0.082,0.261-0.117c0.61-0.291,1.141-0.549,1.59-0.778
		c0.451-0.229,0.676-0.343,0.676-0.343v-1.39h0.174v1.301l2.135-1.301c0,0,0.196,0.06,0.588,0.18
		c0.394,0.121,0.829,0.391,1.308,0.813c0.479,0.434,0.915,1.07,1.308,1.907c0.393,0.836,0.588,1.972,0.588,3.405
		c0,2.012-0.436,3.547-1.307,4.607c-0.872,1.06-1.831,1.819-2.876,2.276c-0.35,0.146-0.687,0.267-1.014,0.361
		c-0.327,0.098-0.642,0.176-0.948,0.236c0.029,0.082,0.077,0.171,0.142,0.26c0.066,0.092,0.149,0.189,0.25,0.301
		c0.189,0.203,0.418,0.393,0.688,0.568c0.268,0.174,0.54,0.298,0.816,0.37c0.058,0.011,0.109,0.021,0.152,0.026
		c0.044,0.004,0.087,0.008,0.131,0.008c0.014,0,0.025,0,0.033,0c0.008,0,0.018,0,0.033,0c0.101,0,0.203-0.008,0.304-0.026
		c0.103-0.017,0.211-0.038,0.327-0.063c0.102-0.022,0.208-0.056,0.316-0.09c0.109-0.035,0.207-0.065,0.294-0.092
		c0.189-0.07,0.349-0.138,0.479-0.195c0.131-0.063,0.196-0.092,0.196-0.092s-0.058,0.069-0.174,0.207
		c-0.116,0.139-0.291,0.293-0.522,0.461c-0.233,0.156-0.521,0.303-0.862,0.441c-0.341,0.141-0.744,0.209-1.209,0.209
		c-0.349,0-0.733-0.059-1.155-0.172c-0.421-0.114-0.872-0.311-1.351-0.59c-0.13-0.069-0.247-0.159-0.348-0.271
		c-0.102-0.106-0.189-0.222-0.262-0.342c-0.116-0.192-0.207-0.362-0.272-0.517C24.91,29.103,24.876,29.027,24.876,29.027
		L24.876,29.027z M30.563,24.257c0,0-0.05-0.028-0.152-0.082c-0.102-0.055-0.232-0.111-0.392-0.172
		c-0.102-0.035-0.208-0.07-0.317-0.107c-0.109-0.038-0.221-0.066-0.336-0.09c-0.074-0.014-0.146-0.025-0.219-0.037
		c-0.073-0.012-0.146-0.02-0.217-0.02c-0.263,0-0.499,0.049-0.709,0.146c-0.211,0.096-0.396,0.199-0.555,0.309
		c-0.146,0.106-0.262,0.209-0.349,0.305c-0.087,0.098-0.131,0.146-0.131,0.146v3.561c0.146,0,0.368-0.075,0.665-0.227
		c0.297-0.15,0.607-0.357,0.926-0.625c0.45-0.359,0.86-0.813,1.231-1.354C30.378,25.468,30.563,24.882,30.563,24.257L30.563,24.257z
		 M27.186,24.437c0,0,0.037-0.044,0.11-0.137c0.071-0.09,0.174-0.188,0.305-0.297c0.146-0.107,0.327-0.209,0.545-0.299
		c0.217-0.09,0.479-0.136,0.785-0.136c0.086,0,0.173,0.007,0.261,0.019c0.087,0.011,0.175,0.031,0.262,0.056s0.181,0.051,0.283,0.08
		c0.103,0.03,0.197,0.058,0.284,0.083c0.159,0.07,0.295,0.132,0.403,0.179c0.109,0.048,0.164,0.073,0.164,0.073
		s0.011-0.063,0.032-0.189c0.022-0.127,0.047-0.285,0.076-0.479c0.015-0.085,0.025-0.176,0.033-0.271
		c0.007-0.097,0.018-0.193,0.032-0.289c0.016-0.11,0.026-0.221,0.033-0.335c0.007-0.113,0.012-0.22,0.012-0.315
		c0-0.096-0.004-0.2-0.012-0.308c-0.007-0.108-0.018-0.217-0.033-0.325c-0.014-0.084-0.024-0.172-0.032-0.261
		c-0.008-0.09-0.019-0.179-0.033-0.263c-0.029-0.181-0.054-0.332-0.076-0.452c-0.021-0.121-0.032-0.181-0.032-0.181
		s-0.055,0.022-0.164,0.063c-0.108,0.042-0.244,0.086-0.403,0.136c-0.087,0.024-0.182,0.047-0.284,0.071
		c-0.102,0.025-0.195,0.05-0.283,0.073c-0.086,0.013-0.174,0.024-0.262,0.038c-0.087,0.011-0.175,0.017-0.261,0.017
		c-0.305,0-0.567-0.042-0.785-0.127c-0.218-0.084-0.399-0.174-0.545-0.271c-0.131-0.095-0.233-0.187-0.305-0.271
		c-0.073-0.083-0.11-0.127-0.11-0.127V24.437L27.186,24.437z M28.123,16.433l-0.937,0.415v2.945c0,0,0.044,0.042,0.131,0.126
		c0.087,0.085,0.204,0.176,0.349,0.271c0.16,0.098,0.344,0.188,0.555,0.273c0.21,0.083,0.446,0.126,0.709,0.126
		c0.072,0,0.149-0.003,0.229-0.009c0.079-0.007,0.163-0.02,0.25-0.045c0.101-0.014,0.207-0.034,0.316-0.063
		c0.109-0.029,0.207-0.057,0.294-0.082c0.159-0.048,0.295-0.092,0.403-0.134c0.109-0.044,0.164-0.065,0.164-0.065
		c0-0.179-0.072-0.456-0.218-0.83c-0.145-0.374-0.342-0.764-0.588-1.175c-0.218-0.337-0.465-0.66-0.741-0.966
		C28.762,16.912,28.458,16.65,28.123,16.433L28.123,16.433z"/>
</g>
<g enable-background="new    ">
	<path fill="#FFFFFF" d="M72.806,28.088c0.656,0.518,1.467,0.794,2.14,0.794c0.466,0,0.949-0.121,1.415-0.121
		c0.449,0,0.759,0.362,0.759,0.794c0,0.811-1.087,0.949-1.691,0.949c-1.64,0-3.176-0.881-4.125-2.157
		c-0.189,0.034-0.414,0.052-0.638,0.052c-3.952,0-6.61-2.865-6.61-6.593s2.658-6.593,6.61-6.593c3.952,0,6.609,2.865,6.609,6.593
		C77.276,24.809,75.55,27.259,72.806,28.088z M70.667,16.387c-2.416,0-3.849,2.347-3.849,5.419s1.433,5.419,3.831,5.419
		c-0.259-0.552-0.414-1.381-0.414-1.76c0-0.415,0.104-0.933,0.569-0.933c0.984,0,0.225,1.07,1.053,2.468
		c1.691-0.655,2.658-2.675,2.658-5.194C74.515,18.734,73.083,16.387,70.667,16.387z"/>
	<path fill="#FFFFFF" d="M82.148,15.49c0.432,0,0.673,0.242,0.673,0.518c0,0.726-0.863,0.466-0.983,0.933
		c-0.104,0.396-0.449,4.107-0.449,6.108c0,3.038,1.225,4.177,3.521,4.177c2.14,0,3.417-1.174,3.417-3.865
		c0-1.45-0.172-5.281-0.345-6.093c-0.172-0.794-1.191-0.638-1.191-1.26c0-0.345,0.19-0.518,0.466-0.518h2.623
		c0.449,0,0.569,0.207,0.569,0.483c0,0.552-0.949,0.276-0.949,1.277c0,0.38,0.345,3.382,0.345,5.522
		c0,3.589-1.674,5.626-5.608,5.626c-3.331,0-5.437-1.898-5.437-4.901c0-1.415,0.328-4.263,0.449-6.402
		c0.035-0.742-0.915-0.518-0.915-1.088c0-0.362,0.259-0.518,0.708-0.518H82.148z"/>
	<path fill="#FFFFFF" d="M94.166,23.877c-0.259,0.639-0.759,2.381-0.759,2.761c0,0.483,0.88,0.276,0.88,1.001
		c0,0.397-0.224,0.483-0.569,0.483H91.37c-0.311,0-0.466-0.207-0.466-0.483c0-0.794,0.794-0.38,1.053-1.242
		c1.363-4.539,3.227-8.732,4.314-10.562c0.276-0.467,0.483-0.622,1.07-0.622c0.656,0,0.777,0.087,0.897,0.312
		c2.071,3.658,3.503,8.369,4.504,11.01c0.224,0.604,0.88,0.276,0.88,1.07c0,0.38-0.241,0.518-0.586,0.518h-3.245
		c-0.345,0-0.5-0.138-0.5-0.483c0-0.725,0.794-0.552,0.794-0.966c0-0.346-0.328-1.14-0.846-2.796H94.166z M98.773,22.634
		l-2.123-5.177l-2.071,5.177H98.773z"/>
	<path fill="#FFFFFF" d="M104.94,17.215c0-0.914-0.967-0.466-0.967-1.208c0-0.327,0.173-0.518,0.794-0.518h2.899
		c0.621,0,0.794,0.19,0.794,0.518c0,0.742-0.967,0.294-0.967,1.208v8.905c0,0.656,0.138,0.828,2.037,0.828
		c3.658,0,3.21-1.622,4.107-1.622c0.242,0,0.379,0.173,0.379,0.673c0,0.777-0.414,2.123-1.38,2.123h-7.87
		c-0.621,0-0.794-0.189-0.794-0.518c0-0.742,0.967-0.294,0.967-1.208V17.215z"/>
	<path fill="#FFFFFF" d="M117.87,26.397c0,0.914,0.967,0.466,0.967,1.208c0,0.328-0.173,0.518-0.795,0.518h-2.898
		c-0.621,0-0.794-0.189-0.794-0.518c0-0.742,0.966-0.294,0.966-1.208v-9.182c0-0.914-0.966-0.466-0.966-1.208
		c0-0.327,0.173-0.518,0.794-0.518h2.898c0.622,0,0.795,0.19,0.795,0.518c0,0.742-0.967,0.294-0.967,1.208V26.397z"/>
	<path fill="#FFFFFF" d="M126.242,26.397c0,0.914,1.069,0.466,1.069,1.208c0,0.328-0.172,0.518-0.793,0.518h-3.107
		c-0.621,0-0.793-0.189-0.793-0.518c0-0.742,1.07-0.294,1.07-1.208v-9.164c0-0.448-0.19-0.569-0.828-0.569
		c-2.072,0-2.33,1.449-3.107,1.449c-0.345,0-0.432-0.224-0.432-0.518c0-0.38,0.207-1.242,0.311-1.64
		c0.104-0.396,0.277-0.466,0.639-0.466h9.389c0.362,0,0.535,0.069,0.639,0.466c0.104,0.397,0.311,1.26,0.311,1.64
		c0,0.294-0.086,0.518-0.432,0.518c-0.776,0-1.035-1.449-3.106-1.449c-0.638,0-0.828,0.121-0.828,0.569V26.397z"/>
	<path fill="#FFFFFF" d="M135.687,28.123c-0.621,0-0.793-0.189-0.793-0.518c0-0.742,0.966-0.294,0.966-1.208v-3.245
		c-1.761-1.863-3.071-4.106-4.28-6.212c-0.224-0.397-1.035-0.346-1.035-0.984c0-0.327,0.173-0.466,0.449-0.466h3.831
		c0.38,0,0.552,0.207,0.552,0.518c0,0.622-0.793,0.518-0.793,0.794c0,0.483,1.414,2.796,3.071,5.005
		c1.519-2.105,2.882-4.176,2.882-4.763c0-0.639-0.983-0.414-0.983-1.07c0-0.345,0.173-0.483,0.621-0.483h2.589
		c0.311,0,0.432,0.155,0.432,0.466c0,0.535-0.535,0.328-1.035,1.243c-1.088,2.019-2.606,4.021-3.746,5.643v3.556
		c0,0.914,0.967,0.466,0.967,1.208c0,0.328-0.172,0.518-0.793,0.518H135.687z"/>
	<path fill="#FFFFFF" d="M153.106,15.49c0.381,0,0.588,0.38,0.863,1.104c0.932,2.14,1.761,4.245,2.555,6.558l2.882-6.954
		c0.276-0.656,0.311-0.708,1.001-0.708h2.623c0.414,0,0.604,0.207,0.604,0.569c0,0.812-1.173,0.155-1.173,1.295v9.043
		c0,0.914,0.966,0.466,0.966,1.208c0,0.328-0.172,0.518-0.793,0.518h-2.797c-0.621,0-0.793-0.189-0.793-0.518
		c0-0.742,0.967-0.294,0.967-1.208v-8.353h-0.035c-1.26,3.348-1.829,4.452-3.244,7.662c-0.26,0.587-0.449,0.863-0.76,0.863
		c-0.241,0-0.604-0.38-0.896-1.036c-1.174-2.554-2.348-5.073-3.107-7.489h-0.034l-0.173,8.249c0,0.966,1.277,0.535,1.277,1.346
		c0,0.276-0.207,0.483-0.828,0.483h-2.658c-0.432,0-0.586-0.225-0.586-0.535c0-0.707,1.069-0.207,1.173-1.397
		c0.241-2.969,0.38-6.386,0.38-8.975c0-0.862-1.346-0.311-1.346-1.173c0-0.346,0.241-0.553,0.552-0.553H153.106z"/>
	<path fill="#FFFFFF" d="M167.196,23.877c-0.26,0.639-0.76,2.381-0.76,2.761c0,0.483,0.88,0.276,0.88,1.001
		c0,0.397-0.224,0.483-0.569,0.483h-2.348c-0.311,0-0.465-0.207-0.465-0.483c0-0.794,0.793-0.38,1.053-1.242
		c1.363-4.539,3.227-8.732,4.314-10.562c0.275-0.467,0.482-0.622,1.069-0.622c0.655,0,0.776,0.087,0.897,0.312
		c2.07,3.658,3.504,8.369,4.504,11.01c0.225,0.604,0.881,0.276,0.881,1.07c0,0.38-0.242,0.518-0.587,0.518h-3.245
		c-0.345,0-0.5-0.138-0.5-0.483c0-0.725,0.794-0.552,0.794-0.966c0-0.346-0.328-1.14-0.846-2.796H167.196z M171.804,22.634
		l-2.123-5.177l-2.07,5.177H171.804z"/>
	<path fill="#FFFFFF" d="M177.798,28.123c-0.621,0-0.795-0.189-0.795-0.518c0-0.742,0.967-0.294,0.967-1.208v-9.182
		c0-0.914-0.967-0.466-0.967-1.208c0-0.327,0.174-0.518,0.795-0.518h5.764c2.451,0,4.332,0.794,4.332,3.141
		c0,1.45-1.363,2.451-2.676,2.899v0.035c1.105,1.501,1.83,3.037,2.555,4.745c0.379,0.897,1.208,0.639,1.208,1.364
		c0,0.275-0.173,0.448-0.483,0.448h-3.865c-0.242,0-0.414-0.173-0.414-0.483c0-0.655,0.793-0.311,0.793-0.966
		c0-0.915-1.622-3.452-2.243-4.418l-2.243,0.414v3.728c0,0.914,0.967,0.466,0.967,1.208c0,0.328-0.174,0.518-0.795,0.518H177.798z
		 M180.524,21.496c1.622-0.207,4.607-0.621,4.607-2.727c0-1.381-0.811-2.105-2.969-2.105c-1.19,0-1.639,0.38-1.639,1.104V21.496z"/>
	<path fill="#FFFFFF" d="M190.228,17.215c0-0.914-0.966-0.466-0.966-1.208c0-0.327,0.173-0.518,0.794-0.518h6.04
		c2.761,0,3.935,1.14,3.935,2.692c0,1.761-1.242,2.761-3.037,3.21v0.034c2.105,0.052,3.814,1.226,3.814,3.038
		c0,2.605-2.158,3.658-4.712,3.658h-6.04c-0.621,0-0.794-0.189-0.794-0.518c0-0.742,0.966-0.294,0.966-1.208V17.215z
		 M192.782,21.392c1.64-0.362,4.487-0.967,4.487-3.21c0-0.932-0.759-1.519-2.657-1.519c-1.623,0-1.83,0.173-1.83,1.294V21.392z
		 M192.782,25.655c0,1.001,0.155,1.294,1.623,1.294c2.313,0,3.641-0.794,3.641-2.381c0-1.761-1.639-2.589-2.468-2.658l-2.796,0.553
		V25.655z"/>
	<path fill="#FFFFFF" d="M202.485,17.215c0-0.914-0.966-0.466-0.966-1.208c0-0.327,0.173-0.518,0.794-0.518h2.899
		c0.621,0,0.794,0.19,0.794,0.518c0,0.742-0.967,0.294-0.967,1.208v8.905c0,0.656,0.139,0.828,2.037,0.828
		c3.658,0,3.209-1.622,4.107-1.622c0.241,0,0.379,0.173,0.379,0.673c0,0.777-0.414,2.123-1.381,2.123h-7.869
		c-0.621,0-0.794-0.189-0.794-0.518c0-0.742,0.966-0.294,0.966-1.208V17.215z"/>
	<path fill="#FFFFFF" d="M212.673,28.123c-0.621,0-0.795-0.189-0.795-0.518c0-0.742,0.967-0.294,0.967-1.208v-9.182
		c0-0.914-0.967-0.466-0.967-1.208c0-0.327,0.174-0.518,0.795-0.518h7.921c0.812,0,1.019,0.242,1.019,1.813
		c0,0.362-0.087,0.5-0.294,0.5c-0.38,0-0.448-0.345-1.19-0.776c-0.587-0.345-1.381-0.362-2.709-0.362
		c-1.848,0-2.02,0.086-2.02,1.208v2.83h3.002c1.002,0,1.036-0.587,1.502-0.587c0.38,0,0.466,0.38,0.466,1.104
		c0,0.967-0.017,1.277-0.448,1.277c-0.518,0-0.363-0.621-1.536-0.621h-2.985v3.089c0,1.864,0.138,1.984,1.104,1.984
		c2.486,0,3.97-0.172,4.385-0.794c0.275-0.414,0.518-0.638,0.811-0.638c0.362,0,0.5,0.259,0.5,0.552c0,1.57-0.345,2.054-1.26,2.054
		H212.673z"/>
</g>
</svg>
